<mxfile host="app.diagrams.net" agent="Mozilla/5.0 (Macintosh; Intel Mac OS X 10.15; rv:138.0) Gecko/20100101 Firefox/138.0" version="26.2.14">
  <diagram name="Страница — 1" id="lkkm97kYBcMQmji846F2">
    <mxGraphModel dx="2253" dy="827" grid="1" gridSize="10" guides="1" tooltips="1" connect="1" arrows="1" fold="1" page="1" pageScale="1" pageWidth="827" pageHeight="1169" math="0" shadow="0">
      <root>
        <mxCell id="0" />
        <mxCell id="1" parent="0" />
        <UserObject label="" plantUmlData="{&#xa;  &quot;data&quot;: &quot;@startuml\nskinparam class {\n  BackgroundColor #EFF4FC\n  BorderColor #5B9BD5\n  ArrowColor #4472C4\n  FontSize 13\n}\n\n&#39; 1. Фасад (Structural)\nclass PropertySearchFacade {\n  +searchByCriteria(criteria: SearchCriteria): List&lt;Property&gt;\n  +getPropertyDetails(id: String): PropertyDetails\n}\nnote top: Фасад - упрощает взаимодействие\\nс сложной подсистемой поиска\n\n&#39; 2. Стратегия (Behavioral)\ninterface SearchStrategy {\n  +executeSearch(criteria: SearchCriteria): List&lt;Property&gt;\n}\nclass PriceSearchStrategy implements SearchStrategy\nclass LocationSearchStrategy implements SearchStrategy\nnote right: Стратегия - позволяет менять\\nалгоритмы поиска динамически\n\n&#39; 3. Наблюдатель (Behavioral)\ninterface PropertyObserver {\n  +update(property: Property)\n}\nclass EmailNotifier implements PropertyObserver\nclass SMSNotifier implements PropertyObserver\nclass PropertySubject {\n  -observers: List&lt;PropertyObserver&gt;\n  +addObserver(o: PropertyObserver)\n  +notifyObservers()\n}\nnote left: Наблюдатель - уведомляет\\nо новых подходящих объектах\n\n&#39; 4. Декоратор (Structural)\nclass BasicPropertyDisplay {\n  +display(): String\n}\nclass GeoMapDecorator extends BasicPropertyDisplay {\n  -component: BasicPropertyDisplay\n  +display(): String\n}\nnote bottom: Декоратор - добавляет\\nкарту к базовому отображению\n\n&#39; 5. Одиночка (Creational)\nclass DatabaseConnection {\n  -static instance: DatabaseConnection\n  +getInstance(): DatabaseConnection\n  -constructor()\n}\nnote right: Одиночка - гарантирует\\nединственное подключение к БД\n\n&#39; Дополнительные классы\nclass SearchCriteria {\n  +minPrice: double\n  +maxPrice: double\n  +location: String\n}\n\nclass Property {\n  +id: String\n  +price: double\n  +address: String\n}\n\nclass PropertyDetails {\n  +description: String\n  +photos: List&lt;String&gt;\n}\n\n&#39; Связи между классами\nPropertySearchFacade --&gt; SearchStrategy\nPropertySearchFacade --&gt; DatabaseConnection\nPropertySearchFacade --&gt; PropertySubject\nPropertySubject o-- PropertyObserver\nBasicPropertyDisplay &lt;|-- GeoMapDecorator\nDatabaseConnection --&gt; Property\n@enduml&quot;,&#xa;  &quot;format&quot;: &quot;png&quot;&#xa;}" id="TXvXWFRMx7JduoYhu3wI-1">
          <mxCell style="shape=image;noLabel=1;verticalAlign=top;aspect=fixed;imageAspect=0;image=data:image/png,iVBORw0KGgoAAAANSUhEUgAACCgAAAKSCAIAAACVke9FAAAAKnRFWHRjb3B5bGVmdABHZW5lcmF0ZWQgYnkgaHR0cHM6Ly9wbGFudHVtbC5jb212zsofAAAEn2lUWHRwbGFudHVtbAABAAAAeJztVt1OG0cUvt+nGKkXtVUtCmCHdhUhahtHpbiJashVbsa7g5lmPbOanaXQNlIAoaolCqqU21aK1AcwBAeHH+cVZt+oZ2Z3jVmWqlGl9gKEZHbP+c6ZOd/52bMQSixk1POt8BllARa4h1wfhyH60UKoht1nXcEj5tW5zwX6ZLHZrDTrWsOFR0Qqrda+qDWqIP1SCP59KqxU5mbqFRA2OZNt+gNB07PWc8v6FE1PIfWn6sfbqq+OUaktReTKSGC/bCVHPxY8IEJutQkW7noTu9gj5j6fhUZS26oLKomguOSmDw5KwJmi7KBlGsoHmat5bd0lMntvEImpH5aoB5ZSUNYFi5wSbsu4JEjywJm8sY3iXfUhfqFG8S8gGMQ7SB2pE3gcqnM1UsdqoN7H2/EOSIdq8JTF2whMz0D1Tl3A73ukPmgcCIcGNzB2qRhE6lT1NVMzwNSbeAeO6hvUW1AeoFKNrOMNyg1jlEG8a9glKQEQDJaku5XwRTaJG0mSqD6CrOfjTFCX5BzTXuCTHmEyzB2Z2ixzF0vK2T82MyQL2l2XTlG4dkLLCbA5UmfxQUL4Oegv4gNAv3zKgPozQI/AcgiW5/H+FSoRpGQIzPfBahj/DA60eKgZngWGfwfFIXh+BbDk4LP45U0sZxw96oREbBCR8BwFHsRSClLlZSmVx1Qu9qCmvuGSrlGwmmAj7zHFt1vtj0CPWybqfEdcaW5l8xQT5vKb2ZqmwJ6XvZe4c81/WWOYvshYFJbKWWv4ZE0nrZhB0ydH8HIMqTjPUgfZGiHTBkfxfryXtcKe+T2Ajhpq4Ugdxr+C6Sl468d7OlUVSNVrLTJ51sfA/6LxUcMhdce9TMPAx2k7eMlLqZw1/Tg7Dwlv4aBBXMi3hPFFNiVh3t/4sl3eCziDnDiFoJuOM7R1uJS85xTFYyND1yEwejRBGVRx/AKKfRepU2S0J5pBTayWjbQ1UAZ+YMZAZwCLrzRpVSDtj7T8R1D6uhtKdUFMh15S1sASd3BI6pwxKB/QJUHC10FSF1EGD8wlTgEwHaxfpRAdbCEICAOIzhUXlwWUtX3+jkDDWx0yxHMBsQ0h+N2UikECTQesjlUX0yAtJLCGOtRNrknQYuDrN/VakwF0jwzqzBCU1im42jc4EMOIh7/9rAWvTMmkhHqUmaHoII9HHZ8YGd68JvPTKTiR+lyrJv4uP0D6Lci7ge4UJAxv9pJ+q9L6JiHM+ODKudrrOpc8GwKJeD75FKs30IUHUEvDZKK+gx7cnaAiGZlW4QfZtufzk/xGXEFF3IjNjTIrP9q4bV+fgoV9+uAngOY62yoo9clTrQXoe70PWQv/+Wp0t/1MbD93i82/WGzu9pX/e1+5W0WuriK3Z8+4HbvDrVwJHvuYydXWMtJTRcOmp2buzVSnZkorEUFLmKF7c2h6zpmtOrP30cPWCtLqsrWENzD6NmKS9iBDjwLClhpfZwK0yDao4EzPS2vpSesScL9i16gERs3gftKyGmQNR74EC5d7kAkHra407c+tZcy6Ee6Cb8KsOiwlUsBMX21bfwEHbNYtoguzMwAAgABJREFUeF7s3QmUFOW9/3/O8fzuze94E7wxQW7+ipoYf3EBzU8WFZDdxCAiatQQrqjRuCBBBWFk39cRxSiCggR1EAYYR0AYAjIowsgo26BssjjIMgMMzYioI4j/rzy/1C2fb3V39cZ0T71f53P6VD/91FNVPTVDzfNlump9BwAAAAAAAAAAkCS17AYAAAAAAAAAAIB4UXgAAAAAAAAAAABJQ+EBAAAAAAAAAAAkDYUHAAAAAAAAAACQNBQeAAAAAAAAAABA0lB4AAAAAAAAAAAASUPhAQAAAAAAAEDSrC89mlNUnlNURtInr68um/3BgWNV39pfLSA1KDwAAAAAAAAASI4V244s2xwKfXGCpFv2Hq7KW3PA/oIBqUHhAQAAAAAAAEByzCou11PeJE0iXx37CwakBoUHAAAAAAAAAMlB4SGdQ+EBpw2FBwAAAAAAAADJQeEhnUPhAacNhQcAAAAAAAAAyRFH4eHQ51VzFy7462MPX9Oy6SWXX1K3bt1LLr+0actmD/f824Ilbx8+elyvQuILhQecNhQeAAAAAAAAACRHrIWH1/LnNG7WpOG1je7r88BTuROmvj197oZ58ijL0tKwaaNrrmv65sLFekUSRyg84LSh8AAAAAAAAAAgOfwXHg4c+eq+Hg/Wv6rBgIlD5m6YFy7yaoOrrnj0iV6HKqv0ICSmnM7CwzcnTs7fcFC2SGp2cj8of++TI/aXn8IDAAAAAAAAgGSZ5a/wcPDI13+45cY2HdrmFM3SxQYr0qdNh3a33nE7tYcEM+t0FR6qjp988Z19uw58pfeB1Lws3xz6aM8X1jlA4QEAAAAAAABAcvgsPNzf46E2HdrOXpevywyekZ5tO7R7vHcfPRTxn9NWeFiw4RBVh+Dk8Pen1gHrHKDwAAAAAAAAACA5/BQeZs+fX/+qBq+tsv/WYeCkoX2e6eckd+0b7lel/5UNf/vW4kI9IPGZ01Z4mPXBAb11UoOjTy0KDwAAAAAAAACSI2rh4fDR41dfd42+r8OI6WNq/VCfZ/rN/GCuu4+s1aJVKxlBD0v8RM8Op0jU04DUsOhTi8IDAAAAAAAAgOSIOuO8YMnbDZs2sqoOkjN/fGatWrXu7X2/iak9TCqYYnW7uvm1SwpXWmPuLa8s2bRDsmlbqd5igllVvOEv9z+k22Pa6O9uaL97/2Hn6a49B8sqjuluPmON5j96djhFop4GMeXw0ePyRc/qO7B127b1GzSoW7fu5Q3qt2zTumdWlrRTiEqH6FOLwgMAAAAAAACA5Ig649ytZ4/7+zzgWXi48P/80nnaqmMbz8LDA09269N3gHvA3fsPDxs5tn2HjpLb7/zz0uVFeqOJZEXR2s5dulqNsW60V59++w587jx9qFuPBQXLdDefsUbzHz07nCJRTwP/eWtxYcvWra9p3vTBJ7s9lTth6tvT5TSQR1m+r88DjZo2adqi+YJFb+sVyemMPrUoPAAAAAAAAABIjqgzzs1aNX9q1oSohYfHRve6sctN01fMsLrJum3atnMP6C4MlGza0b5DR9OY1XegZNTY8e6e7satO/fmzMybk78wcjczvtVNbzTcaBLT6P4TB1148LlvejTPIw0XPTucIlFPAz85VFnVO6v/VY0aDn5huD5hnAyYOKTBVVf8rVdP6a8HIacn+tSi8AAAAAAAABB060uP5hSV5xSVkZqX11eXzf7gwLGqb+2vempEnXG+9PJLpy57RU8fW4WHcJF16zdo4B7QXQPYf/Do0uVFGz7e3r1Hz5yZeZIXp74yaMgIeUk3yornnldv4ODhcXTTG/XsZrKqeMMll15Wuq/CjN++Q8cLL/zV1dc0vfve+00Hnxv1HE0faYTo2eEUiXoaRM2hyqo7O3dp36lDTpF9E3Id6dOmQ9ub/3grtYfqij61KDwAAAAAAAAE2optR5ZtDumJJFJjsvdwVd6aA/YXPjWizjife965uWve0HPHPgsPsu559eq5BzwQ+uq5F6bUb3DFgoJln5V9fyavKFp72+1/Kt1XIVm5er35GwjptmX7Z+5G6dbx5lvNKh9t2fXHOzqbdZ2KwqHKqk8+3e/u5v6LCuvzlzxHc9KseQtTKpDdkEG63HXP1OkznJtD6B32P5p1UO5uOnp2OEWingZR0zur/423dJy9Ll+fA56Rnm06tH2k56N6KHIaok8tCg8AAAAAAACBlvgUIUn/6GnBFIl6Ol1a/7IE/+KhQYMr9LChU59f1L5Dx6IPSlYUra1zTt1mzVuY9OrTL3TqXtCjxo43LQ0bNzGT+/rmDbrR3RK58KBHc+KUCkysj1rSO+xzNH1QurM76XMaRM5biwsbNm782qrof+vgjvRvcNUVeW8t0gOSVEefWhQeAAAAAAAAAi3BKUKSEdHTgikS9XS6rnVLP/d46Ni1U51f1HlpyTSr24TZz7dtd717wO2lZXnzCsyyKQx4ztrr+kHUbrrFs/DwWVlo5uw39YruRC08RNiojjOa575FSPqcBhFy+Ojx1m3ajnxprD5JJAMnDe3zTD8nuWt/8NczAyYOuea6pjKCHpakNPrUovAAAAAAAAAQaIlMEZJMiZ4WTJGop1OvrCfv7/OAnlC2Cg+tOrapVavWpIIpVrfHB/bO6jvQPaCefHe37NhdPib7GavbnZ3/20/hwayrx7e66Y3q+C886I3qeBYezEHpzu6kz2kQIUsKVzZv0UKfIZIR08fU+qE+z/Sb+cFcd5+GTRvNX7JUD0tSGn1qUXgAAAAAAAAItMhThIePHs9fvPjBx7tf27LpJZdfUrduXXmUZWmRdv5ncaZETwumSOTTKXRqWrlJs6v1nPLP/6tOrVq1LmtY30SWzzjjjMmLX7a6NW/RQkZwD1h26Itx45+t3+AKSctWbTZ8vF23WN2m5+SGKxXodXWNIWo3d17PzZc+Z575H5dedvnDj/y/OxBs/mT3Lbfd0e53N/jZaITR9EHpVdxJn9MgQrL6Dnx8UG99hsw9VZ2SE+Pe3vebmNqDVZ26v88DD/f8mx429K8bbJg4N9g4Pdm152BZxTHd7sS9b1F/rkYdzcnvbmi/e/9h5+nQEWPqnFPX3ZKs6FOLwgMAAAAAAECgRZginLPgraubX9Pw2kb39XngqdwJU9+ePnfDPHmUZWmRdnlV+ugVSbpFTwumSITTyeTw0eMtWrUaMHGInlau84vvaw+OV1fOtDqMnTq+dZu2UadlSbikz2kQIW3bXf/cnMn69Jjr789inpo14dqWzfSwoVN/IHLuefXad+gouf3OPy9dXqT7pCjW37jouPdt1px5uoM7UUdz0qtPv30HPne3WH98k6zoU4vCAwAAAAAAQKB5ThEeqqx6+PG/NbiqgecEsRN5VfpIT+mvByHpEz0tmCKep5OVtxYX/rbhVbHeOnjm+3MbNWki6+oBic+k1WkQLg2uuHJa4Wv6BJirCg+Pje51Y5ebpq+Y4e4zddkrl1x+iR425PUBWVt37s2ZmTcnf2FW34Gjxo5395QWpzHBbqEflgpMN7Ncuq9i6vQZZihn3wYNHek0usf3HC1CN7Mn1t9GWIWHcOvGGn1qUXgAAAAAAAAIND1FeKiy6qbbOrXp0DanKPrUsPSRntKf2kM6R08Lpog+nTzTO6vf7zv+Yfa6fH1GeWf9vJtvu7V3Vn89FPGfdDsNPHNevXq5a35wy2gnVuHBM7Luueedq4cNeRUezN8ZDBw8PGdm3otTXxk0ZIS8tOHj7d179JQWpzHBbrKhCy/81dXXNL373vs9d8OzUY/vOZpnN5NVxRsuufQy6+8b3IWHCOvGGn1qUXgAAAAAAAAIND1F+EjPx9p0aOt/Ulh6Sn9ZS89GkTSJnhZMEX06eeZQZdWdf+ryh043+ilu5a7O7/TH2+7s3IXiVoJJt9PAM/7/4sEzkf/i4T//86fmlhit27T75NP90tLx5ls/KwvJqx9t2fXHOzqbbro+4XRzlwpuu/1PpfsqJCtXr7e6OaOZmzd0ueueqdNnmBtL6PE9G/X4nqNJy5btn1ndnOgPVnK3rCrecNfdf5Gn8p0lkTfE3TOm6FOLwgMAAAAAAECgWVOE8xYtbXDVFZ4fgzNw0tA+z/Rzkrv2f/5XsvSXtWRdPSFF0iF6WjBF/M84H6qs6p3V/6rGjYZPHq1PNpO8kvlPT3uucZMm0pOqQ+JJw9NAx/89HjwT+R4P1i27dYvV6NQAPEsFdc6p26x5C5Neffp5jmbi/nCkcKPpjVrje462t7xy1Njxpk/Dxk1iKjyETn0ck7RMnPzyksJV7m6xRp9aFB4AAAAAAAACzT1FePjo8aYtm3ve12HE9DHuG/+KPs/0m/nBXKeDrCXrcuPf9IyeFkyRWGec31pc2Kp1m2YtrntsYO+JeVOmL389r2T+a+/mTnlzeu/B/a5r2Upe5b4OyUrangbuZPUd+Pig3vpH0FxVeOjYtVOdX9R5ack0d5/7+zzwcM+/6WFDXmUG3WI1Ri48+BnNxF0q2PzJ7l59+r27ao0sDxg0TI+mNxphNL2iu2fUwoPJuPHPdu/Rc+bsN612/9GnFoUHAEA1yM4eRki15NZbb9qzZ499RgIAAASbe4pwSeHKRk2b6Pk+M+VXq1ate3vfb2JqD5MKprj7yLoygjOa+VQQE/OpILHmdze0373/sG43SXz8uLNrz0Hrlq1W3PumizGRjytcho4YU+ecunGsGPKaFkyROGac5f2R0yar78B21//uiit/W7duXXmUZWmRdv3ukbiTzqeBE/miN2/RQv8IMj+F3IWHVh3b6J9CDZs2mr9kqR425FUY0C1Wo1MD+OUvL8qbV+C0WN127C4fk/2M52gm1u2g127c2qtPP+k8aOhIPVq37o/NW7hUj+85mrvbnZ3/O6bCw0dbdj37/ItmWRctYoo+tSg8AACqwbjsfie/20HI6U/ffo906XIrtQcAAAA39xTh432y7u/zgJ7v8znlJ+vKCM5oK07darV9h46S2+/889LlRXq6KnJ69em378Dnut0k8fHjjjWNqOPet1lz5lmvRj6uCNHTiD6jpwVTJJEZZ5LqZMRpcPjo8dZt2o58aaz+KfTz/6ojP3Yua1jfRJbPOOOMyYtfdjoMmDjkmuuahitW6cKAbpGUHfpi3Phnza0gWrZqs+Hj7dLthvYdejz2hNMSrpsezWTzJ7tvue2Odr+7wd0i/ddt3OYUHpz7TxSuKPYc33M0d7fpOblO8eD13HxpOfPM/7j0sssffuRRz5YIm4g1+tSi8AAAqAYUHkh1Rc69I5UbqD0AAAC4uacIW7Ru9dSsCXq+b64qPDw2uteNXW6avmKGu4+sKyM4o+n/OGwas/oOlIwaO97dUzfOyV8oLe4/LLC6eY6/defenJl5Zl1nND1+It1CqvBgupnl0n0VU6fPcO/boKEjpcXpbB2X/42GVOHBWlfvhtNTTwumSCIzziTVyZTT4K3FhQ0bN/a800ydX3xfe3C8unKm85K500zeW4v0gAkmQkUhvuzac1DGlOQv+KepAWR69KlF4QEAUA0oPJDqijn3qD0AAAC4uacIL6t/+dRlr+jJvrmq8OAZWVdGcEbThYENH2/v3qNnzsw8yYtTXxk0ZIS85NkoWVW84ZJLL3Pm2XU3Pb7Z6Lnn1Rs4eLjTTa+YYDfZ0IUX/urqa5refe/94Y5Ut5hl67h8btRZ11140OtG2KieFkyRBGecSUqTQadB76z+N97Scfa6fP1zxjPSs02Hto/0TMkkvvsjiZKSgqXvyreqRL6F9auZGH1qUXgAAFQDCg+kuuKce9QeAAAAHO4pwvPOOy93zRt6Um+uv8KDrCsjOKOtcH14iPkcjwOhr7Zs/6x0X4Vk5er1ZmZ8VfGGu+7+i7QcqqySfPLpfmcE9zy7e1bddHOP37pNO7OiNHa8+dbPykKhU9OFf7yjs+d0vLubUyq47fY/WfumRzM3b+hy1z1Tp89wbiyhN6FbzLKJc1yex673Ta8YOnUbCevNjLBRPS2YIonPOJPUJYNOA/l2uLNzl/adOuQUefzdgxXp06ZD25v/eKuspYcipyH61KLwAACoBhQeSHXFfe5RewAAADDcU4SXN6if4F88yAjOaHoefG955aix45s1byFp2LiJMzM+J3+htEyc/PKSwlXuyaxwhYdwLZ6Nejc8G6Wlzjl1zb5JevXp5zmaifVRS56j6Y06cR+XPvYI67pX1G9mhBX1tGCKyIYWlVTkFJWRdEvBxorTeRo4517cOVRZ1Tur/1WNGg5+Ybj+aeNkwMQhDa664m+9elJ1qMboU4vCAwCgGlB4INUV69yj9gAAAPDdD6cIW7Vt6/MeDx27dqrzizovLZnm7iPrygjOaHoeXLe4p67GjX+2e4+eM2e/6bSc5sKDn9FMrMLD5k929+rT791Va2R5wKBhUY/UfVwm7mOPsG64N8R007vhrKinBVMkKTPOJEXJxNPgrcWFLVu3vqZ50wef7PZU7oSpb0+XHzXyKMv39XmgUdMmTVs0X7Dobb0iOZ3RpxaFBwBANaDwQKor+tyj9gAAAOCeIszqO/Chvt111UEXHlp1bFOrVq1JBVPcfWRdGcEZTc+Mu1vu7PzfZmbc/fnpPufZd+wuH5P9jGdVQDfq3TCNv/zlRXnzCpxGPb7naCZW4UGyduPWXn36SedBQ0dao3Xr/ti8hUvdnZ3j8jx2vW96RdNNv5nWbjgr6mnBFEnijDNJejL0NDh89PiSwpXys6V127b1GzSoW7fu5Q3qt2zTumdWlrTLq3oVcpqjTy0KDwCAaqAnf0lwsqhg2uw5z8vCfffdoV9NdTzPPWoPAAAg4NxThEsKV157XTNddZD8/L/q1KpV67KG9U1k+Ywzzpi8+GV3H1lXRnBGW6Hu8VB26Itx4581LdNzcs3MuLvRdJPG13Pz5emZZ/7HpZdd/vAj398wVnfzrAroRr2i6XZD+w49HnvCc9/c3fQmQqf+xOGW2+5o97sbrEbpv27jNlN4cI69cEWx08c6rnAbtfZNrxj64XE5b6a1G8529bRgiiR3xpkkN5wGJEXRpxaFBwBANfCc/D36xcZdn77btm3Tko2Lyg98oDuQmpGqb7YOG/74lVdeundfkX411fE8905SewAAAMHmniI8fPR4q9Zth0waoQsPkjq/+L724Hh15Uz3q7KWrJsp//s4XEUh7uzac1DGlOQv+KcpDMSdRPYt3G7oacEUYcY5ncNpQFIUfWpReAAAVAM9+XukcsO47Cdvvrndz372n+3bt/rb37pu3rJEzw4TkmDk3AuXvv0eufnm9idPnrTPVwAAgJrOmiJ8a3Fhw8aNXls1SxceIkT6y1qyrp6QSs+4P+MoKSlY+m7nLl0l3Xv01K/GlET2Ldxu6GnBFGHGOZ3DaUBSFH1qUXgAAFQDXXhYt37B3XffKgstWzYJHVn/Rv7kQYN7mHZZkDz9zACnp9USrnFRwTTT+PrMZ63NxZT9Zatlf8yy7JsZTRrN4M4mTDez0Qj79sKk4SdP7duuT991RtPdPFusjUoKl89wNuTE3S3CaLrRfaSjRvd2jlQfvudoJ9V7rrt5bsKzm3MIJnlvvOAsxzqa/2RnD7NPVgAAgADQU4S9s/rfeEvH2evydYHBM9JT+staejaKpEn0tGCK6NOJpE84DUiKok8tCg8AgGrgs/Cwc9c7vXrdL8uSV18bP3LUE7pFVvFslDz66D3Dhj8++cURN9/cTk8x+4+zb5Jdn75rRpPG1q2vMRs1m5CWevV+MWJkr8j7duWVl548tW+Fy2c4o+luuuXkqb8LMS2XX37xazlPy4Ln34W49y3CaLrRfaRnnfUT50jluObNf0mWO3W6Xhr1is6m3e+5Zze9Cc9u+kgl1kH5H81/KDwAAIBg0lOEhyqr7uzc5aZbb84pytVlBivSR3pKf1lLz0aRNImeFkwRfTolMTkz8wqWvqvbE0kqxoyQQUNH7tgdw1sknWUV3R7611+3xLTzp/M0WFRSkVNURoKQgo0V+tSi8AAAqAY+Cw9V32zdu69Inko2lCw0k/vORPPxE9vMrSB0N2mcPef5cdlPfvX1Zmdy3zOyrlmx8vMS/arT54VJw6e+PEaWr7++udmorkZIy2233WDGcdcnrG6ehQd9CLJi5843WQflxLxL7hZ33Otu/Kjgz3/u6B7ftITbqNnbO++8cVHBNOcQ/u3f/tdT4/tJt3PPrWt9Fdxvr/Weex6C3oTn19SJc6T6oMKNpjfqPxQeAABAMHnOFB+qrOqd1b9R4yZjpozXxQYn8qr0kZ5UHdI8elowRTxPp2Qlq+/AiZNf1u1Otu7c26x5CycritbqPlaijpncyF6VbNqh28NFOssquj106mA7d+ka087XjNOApGH0qUXhAQBQDXTh4ZPthWYu/sorL52/YMoLk4ZP+8e4o19sfPqZAS1bNpFcffVvrUlqJ7qbaZk95/mTP5wZ11lUMM2seOedN+pX3d1Gje4tu+dsXU++6xbPbp6FB30IsmLduj83LZL+/bu59ydq4cFZV4ba+FHBSdeRXnTR+aab50Zlb+VrIY+ylvsQZIdr1aoly+GOVL/nnoegN+H5NXXiHKnnQXmOpjfqPxQeAABAMEWYInxrcWGr1m2at2jRa9CTk/KnvvrO9zd+kEdZlhZpl1cz6L4OQY6eFkyRCKdTbklRw0ndfzKikzzKsu4QNaX7KvaWV+p2JyWbdjRs3EQeTdp36LhpW6nu5k7UMZObJBYeQrFXTdLhNCA1MvrUovAAAKgGuvAgWV38xqOP3nPuuXUfeujPU6aOPuk1a+85SR25W+TCg/+YmXdnul9vQrd4dvMsPOhunkfqJGrhQe+JkwEDHjGfm6S7mRbPfct7Y5K0b9r8T/9H6nkIehOe3Zy4Cw/hNup/tKih8AAAAIIp8hTh4aPHlxSuzOo7sN31v7viyt/WrVtXHmVZWqRdXtWrkDSMnhZMkXCnU25J0fnj75q3ae2e0FF5lGXP2kPJph3//qMf1Tv/AjnB7rnvAVlYUrjKvDQ9J7d27bOceXZTYxg/YaL0keTMzDtUWWVN05tZfs+enmNKu7xqujk9PRtNf1lRfk+MPPXvXl32wdRFPMeMdedDPyw8eI5p7Uy1nwakpkafWhQeAADVwLPwYOKeUndPIt91VydrWvngoTUTnh0UtZueeY8vjz56T1bWg1XfbDVP9Sak5aKLzl/8z+lOi2e3qIUHfQjOkTqJtfBQuvu9l6aMcrdY3ZyNyiEMG/74/rLVnt305L7Pbu4vlrUJz25OohYeYhotaig8AACAYGKKMAjR04IpEu50ajipe/7HHzpPZVladDdn8t2ZUq93/gXOq+55dulZu/ZZzv0PnGn6+g2uWFCwzKRzl65bd+717BluTPfU/0PdepjVdT3ALM/JXyhP5dF5Vce9uuyD7InZTz1muMb4dt7qaVLtpwGpqdGnFoUHAEA18Fl4+PKrTX9/bvCVV14qmT3n+Ztvbuduadu26c5d73h2W7d+wU9/epZpufTSi2rX/vELk4brbcUUUypwnup5cGm56aa2vXv/Ndy+mcb//b9/JMs///lPL7rofGff9CHoFd07E7Xw4By+WddzNL1RWbFWrVpPPzPAOSgzmnWknqPp9/zZvw/27GZtwnM0J+7Cg3VQcYwWNRQeAABAMDFFGIToacEUCXc61R7R6bPQUeepLEuL7ubMnvspPOh5dkmdc+p27tLVpHjdx7qndXvnCGM6jb+++DfSx0SW9YR+hITbz0QanafWzkfdz2o/DUhNjT61KDwAAKpBhMJDUrJl69KBA7s7T5cVzkik8PDlV5uGDH3MzG5HiHuC3n/MbbR1e8Ylue95dYXCAwAACCamCIMQPS2YIuFOp1T8xYOekQ9XOdCNTiKM6TTWO/XRT05K91XoccLFz37G2ug8tXY+6n5W+2lAamr0qUXhAQBQDVJdeEhuSne/d/fdt5rPUIoQ98cZ+c+atfPfyJ+s20m1hMIDAAAIJqYIgxA9LZgi4U4n//d4SMPCg240KVj6bucuXeVRvxRudc/9jLXReRp1561U+2lAamr0qUXhAQBQDTKr8ECCEwoPAAAgmGYVly8qqcgpKiM1NQUbK/S0YIpEmHHOLSlqOKn7T0Z0kkfPqkMozQoPnvd4MI1meaKPm0u7V/d/jwd3z/ju8eDeTyfpcBrEEevTsVKRnJl5kQtIkZPg6qctqdtPfWpReAAAVAMKDyQ9Q+EBAAAEU3KnCEl6Rk8LpkiCp1O4wsOSwlWyULv2WWef/TNZ2LStNOrcvR7Tih7zUGVVzsw8WTaRZWnxbDQj7C2vlMHlUQ/uxL36+AkTGzZuIqt4junZUyIL8tTaus+dt3YmU04DK1a5JRVxl3AiZE7+Qs9uPldPJCuK1sr7YCLLTnu4XfJM6vZTn1oUHgAA1SDjCg+LCqbNnvO8LNx33x361ZqU4BypZyg8AACAYEruFCFJz+hpwRThdErnpMNp4OcPX6ychsJD6b6KyAUkk4mTX87qO1C3+1w97mzaVtq+Q0dTiJLIsrSYl8Ltkmdi3c9bbrvD2VDk6FOLwgMAoBpkXOGh6putw4Y/fuWVl+7dV6RfrUkJzpF6hsIDAAAIpghThKTGRE8LpginUzqn2k8Dn7f68PzjD88/6fDfGO5vRyTTc3Jr1z7L/aFVuqcZYdjIsQ916yELZRXHnL21Vo9167F+YFfoX/UAz12KsCGfh+l+590VjsjRpxaFBwBANci4wgMJSCg8AACAYAo3RUhqUvS0YIpwOqVzqv00aDipe/7HHzpPZVladDf3PLv/G2OEIt6WoySWu2XonjKCLPz64t/UO/8C68OO9Oqe+6nHNMtz8hfKU3l0D2hFtt65S9cFBcvc++y5SxE2FFL7qXu6d95s0Vk3cvSpReEBAFANPAsP69YvGDS4h+TpZwboV6N2W1QwzbS/PvNZz277y1a/kT9ZFqb9Y9xXX2/evGVJ3hsvmBZJ6Mh6s6Je11lRMmp0b6ebFelm1nLvhh7NxNpb3S3cRnU390YlhctneHY7/UcabrT4up2eUHgAAADBFG6KkNSk6GnBFOF0SudU+2lQe0Snz0JHnaeyLC26W7i5+19f/JuJk182kWVp2bG7/KFuPeSpuxJgre7ZaN2wOmrlwCyH+1yjqKt7NupxIqR43cedu3Q1G3LfNtzapQQPk8IDACCz6cLDzl3v9Op1/xv5kyWvvjZ+5Kgn9KRw5G6PPnrPsOGPT35xxM03t/Pstm79grvvvlUWWrZsEjqyXl568ME/mxbJrk/flRU9N+GsKDnrrJ+YbjrSrXXra8yKZjc8RzOd3Xvr2c1zo7rbkcoN5unll1/8Ws7TsrB5yxLdTUarV+8X8+a/JIN06nR9uNE8N6rj80g9R4vQrX//brNy//7+6jzPbno3UhEKDwAAIJjCTRGSmhQ9LZginE7pnGo/DeL4i4eQa0683vkXZPUd6KR0X4Xp7LSY2Xxrdc8xrUSdkTfL1Vh4MFlQsMx97CG1Swkepgzrfof976Q+tSg8AACqgS48uCepj5/YVn7gAz0pHLnbo4/eU7h8hqkfuLs5FYWqb7ZOfXnMS1NGNWvW8P3VeQ888KcV7+V27nxT6Mh6yYaShaabXtdpufPOGxcVTIswHa836tk4e87z47Kf/OrrzZ7dzHF5blR3c7ZuqilmWbpZxyUt//Zv/+up8f2k5dxz6+rRUnGknqPpQzB7O2z44/MXTPn25Hbzknyx9u4rsr40pyEUHgAAQDCFmyIkNSl6WjBFMu50ypmZV7D0Xd2eolj/Az1qpLPzYThWZLc7d+ka085X+2ng8x4PnnPikafUVxStnTj55Ye69ZB3zLOnZ6OTqDPyZjkVhQc/X0frNIiwS4kf5oKCZVdf01S6rd24VY8QLvrUovAAAKgGkQsPERKhW9TCg9OtVq1aF1xwrhmtbt2ft2zZRHL11b/VM+Pu0T7ZXiiPGz8qCDcJrlf0bDz6xcannxkwe87z4bq5R7M2qrs5sQoPznFJ+vfvZlY0xy7LerRUHKnnaPoQzN6OGt3b2X+JeZesL81pCIUHAAAQTLOKyxeVVOQUlZGamoKNFXpaMEXCzTifnphPvXdifRC/Z9xTsach7iljP4kwj2w+9z+mnU+H0yC3pKjhpO4/GdFJHj2rDqEfHnW4ezyYOzdIZMFp9Jzl97zxgxVrRl7f/MAsp6LwMDH2m0tH2KWYDtNzzAUFy+qcU7eZ7+8gE31qUXgAAFSDpBcePt60eODA7p9sL4xceDDdzj23bvfud82b/5JnN93ozNo7hQ29A54rejbqFqubezRro7qbE6vw4Dla3huTZMBNm/+pR0vdkUY9BGffRo3u/XXVlgibOA2h8AAAAIIpwhQhqTHR04IpEuF08jPjnGBKNu1o2LiJmeeVtO/QcdO2Ut3NndJ9FXvLK3V7iuKeMvYT//PIfpIOp4GfHKqsypmZV+/8CyTjJ0w0X1N3o0SWpcV/Y7h3cknhKulTu/ZZZ5/9M1mQE8acRbJd9+qms5wq8p5Lo6wVbnU/W3efBjKmLEc+CT3HdFZ371JMh6l3Sdrluyam7yATfWpReAAAVIPIhYeDh9ZMeHaQnhSO0G3aP8aZWxBHmNwv3f1eVtaDH29a3LJlk8/2rBqX/aSsorvpdaXloovOHzb88f1lqyNMgusVPRt1i9XNHJfnRnU3Z+vhCg/OaJE3mqIj1aNF2LdFBdPkC6Q3cdddncLtSdJD4QEAAARTglOEJCOipwVTJNzp5P8zdv79Rz+qd+qj/O+57wEzneo56+o5bRquMdw88vSc3Nq1z3Lm7j035Nlo+vv5v+ru1SPPoce686EfFh48x7R2ptpPg4xIuLn7IITCAwAgs+nCw5dfbfr7c4OvvPJSSdu2TXfuekdPCofrtmXr0kceuevAwQ9P/mvK27ObM5cd+ebSel1ZUS4l3YUNvWPu8aOO9tOfnmVaLr30otq1f/zCpOGe3fRGdTdn6+7Cg+7mf9/0RnUSGc2zmzPassIZjz12r9Vt9pznw+1J0kPhAQAABFNGTxESn9HTgikS7nSK9a7CzpR6vfMv8Pw4HfNBQ8XrPpYWeZRl83E69RtcsaBgmYnTGO6Tc9wbcm/dxPMjetyrz8lfKE/l0XlVx716uE8Nilw1iW/nrZ4m1X4aZESs8y1oWVG0tlksH1Zmok8tCg8AgGqgCw/ByZatSwcO7O48XVY444VJw3U3Ui2h8AAAAIIpo6cIic/oacEUCXc61R7R6bPQUeepLEuL7ubMnrsLD6FTc8Hy1OTXF//GTKkXr/v40Z59pEUeTQVC2uucU7dzl64mTqN7Rt66vXOEuXunUbaot+4znvWABBudp9bOR93Paj8NSE2NPrUoPAAAqkGQCw8knUPhAQAABBNThEGInhZMkXCnUyJ/8VC6r0KeOpEWZ0p94g8/7Chc5UA3OvFTeKh36qOfnMj+6HHCxbNykGCj89Ta+aj7We2nAamp0acWhQcAQDWg8EDSMxQeAABAMDFFGIToacEUCXc6+b/Hgy48hJt89/yLB8/KgW504qfwoBtNCpa+27lLV3nUL4VbPUI5wX+j8zTqzlup9tOA1NToU4vCAwCgGlB4IOkZCg8AACCYkjtFaH2OTc7MvMjTshHiZ1Y3ap59/kUzJR06NU8tT3Wf05lE3pBEoqcFUyTC6ZRbUtRwUvefjOgkj55Vh5CPwoNzm4Rw93jQk++ejU4izN173uPBNJpl6+8tPOO5857lhHA947vHg3s/naTDaRB35AeL8z5kRKrrmz1CUrdL+tSi8AAAqAYUHkh6hsIDAAAIpuROEUaYGI01ZmY57tVDp+aFR40d73zgjCzI07gHDHfP1Tn5C/2Pmcgbkkj0tGCKJHg6ObPn7sLDocqqnJl5siAZP2Fiw8ZN/Mzd6zGtLClcJQPWrn3W2Wf/TBY2bSt1b0giy9Li2WhG2FteKYPLox7ciefOe47p2VMiC/LU2rrPnbd2JlNOA8+E+zqGS0zfmPEl8m2ofX6z+9zPNP/5o08tCg8AgGpA4YGkZyg8AACAYIowRejnv6hbsQoPpfsqIk/LRk6C02R6dXkqjbpn1GzaVtq+Q0czESyRZWkxL8U0ZqxvyC233eFsKJHoacEUiXA6kWpPOpwGcfxUMYm18BDTN2Z8ibxLPr/ZI++n+QlQvT9/JLKgX3VHn1oUHgAA1SA7ewRJJOOyB+tJc4m0684kloyxT1YAAIAACDdFmFtSdG72n3stGj102Uh5lGXPWULP/6ZtXpqek1u79lnO1L/n/8gO9x+6TdyVg3Cr6//2bpbDzcd5ViNi+sCc0L/m48wODBs59qFuPWShrOKY6RnuiKw3xLOn9X66ZxgTiZ4WTJFwpxNJh1T7aeD/Vh/6W8Oz0fPHguc3ZrieutHsQxw/Ftzx89PPcz+dlO6ruOe+B5YUrtIbOv0/f2Q3ZGf07cqd6FOLwgMAAJln3LjhuurwfeFh3HC7KwAAABBNuCnC//tCtwfy+w5fNtxElqVFd3PPiDkfTO+8GvUz6Et8f4S99akmpqc1ZnyFhzn5C2VFedSdnZjPfVpQsMy9e9IoK/764t/UO/+CZv/6/BP/R+TZ031EZovOuolETwumSLjTiaRDqv00aDipe/7HHzpPZVladLdw3xqejfonQLhvTN3TanTfGMPPjwVrdStRf/p57qeJvCSrO1tPh58/sjOyur5xiIk+tSg8AACQebKzR+iqw8nvPylohN0VAAAAiCbcFOGPh980YMkQp/Agy9Kiu3lO5zlP3fNcO3aXP9Sthzx1z6/5Xz10aqJNnpr8+uLf6HlD9+r+Cw8+Y+5gbFZ3z75ZG7J2adAP77YdYS4y6sRfItHTgikS7nQi6ZBqPw1qj+j0Weio81SWpUV3i/qtEbnRLEf+xjQ9PX8o+Y81ppWoP/1M9E8q+fEiPzdyZua5G9Ph54/skgzoWXvQpxaFBwAAMk929khddThVeBhpdwUAAACiCTdFeNnf/3Lv3F5O4UGWpUV385y9cp5as/zykrSYmG7+Vy/dV+GsK6l3/gUxTTt6jhlHFhQsMzvgfOpI5Ik/K1En/qzDdL8biURPC6ZIuNOJpEOq/TTw/xcP+lvDf6NZjvyN6fQsUT+U/Mf/N7vp7Lkh/ZPK9PQsOlbvzx+zdc93SZ9aFB4AAMg82dmjdNXhVOFhlN0VAAAAiCbcFOGr65adPfrmv+Q9MXDJEHmUZWnR3Txnr5yn1tSbyYqitdL4ULceO3aX+1/ds+fe8spRY8c/+/yL0iKPdc6p66yup/P0mCYFS9/t3KWrPOrOTmRXnc8kCcUyv2kl6hGFTs3uXX1NU+m2duNWPUJ80dOCKRLudIopfr4iyUrOzLzTs6EEk5T9rPbTwP89HvS3hv9Gsxz5G9P6UeP+oWRa/JyE/r/ZnegNef6kku99aXS2ng4/f2RnZPVwP5T0qUXhAQCAzEPhAQAAAEkUbopQ8mLxwl893fl/D7tRHmVZdwj9cPYq8j0ewt2kQX/OuOfq4TZUuq9i1Njx8pI81m9whbO69SHpJp4fUz4x9rvIpnrir845deVpsx9+7Hsi0dOCKRLhdPIf84n2kb8isUa+9J4Des4OJzfyRTRfTesLGm6XPJOU/UyH0yC3pKjhpO4/GdFJHj2rDqFT3xr6x4Ln94tno1mO/I1penr+UHJWj/XHgpWoP/3MsrWfTqSDrBLhBhWeq/vfpXBjev78kQVzC2s9pok+tSg8AACQeSZMeKrqm61W1UFapN3uCgAAAEQTYYrQTw5VVuXMzKt3/gWS8RMmNmzcxExOLSlcJS21a5919tk/k4VN20rdPSWyLC3SWVaRFd2NUVd3b0iyt7yy5NRfP7jn40Jec7Wec3zO6la7O54776yedeqjn2SfQ2o6z4k+Is+JP2lv36FjyakZVYksS4seLdboacEUiXA6+ZlxdqK/dgnG80sfOlW4ivylTzARvqDhdskzse7nLbfdoc+cdDgN/MTzx4Ln94v/b0zPnp6NzupRfyxIh3//0Y+c1c33dcjrmz3yhtz76c6O3eXmhPG/eip+/phG970idPSpReEBAIDMM2XK5MOhdVbhQVqk3e4KAAAARJPgFGGCCTdN5j9lFcc8Z3VNuvfo6UznyYI81SOkVTwn/nS3WKOnBVMk3Onk8zN2nLgLD56zrjE1yjs5bORY81+25YRxtjI9J7d27bMib6jEaxLc9I/jP8WbeoDnLkXYkLWfnj3dOy8veZ451X4a+EziPxZIfIn7548+tSg8AACQeV5/PeezPauswoO0SLvdFQAAAIgmwSnCBGN9AkkcCfc5NpmbVByRnhZMkXCnk8+7CjuJ+pkwVqOcRXIueX6gjTTKwq8v/k298y/Qb6mfDemP/THLc/IXylPr47ysmI+NWlCwzFnLNOpdirChkNpP3dO982aLzrpOqv008JnEfyyQuBPfzx99alF4AAAg88ybl79l69tW4UFapN3uCgAAAEST4BQhyYjoacEUCXc61R7R6bPQUeepLEuL7ubETz3A3ehk6869sqLJry/+jTN3H+5zjWLdkFUP8JPidR937tLVbMh9fxFrl6wNDRo60v3hNjHtZ6YXHkjGRZ9aFB4AAMg8S5cuWbtugVV4kBZpt7sCAAAA0cxYzRRhzY+eFkyRcDPOqf6LB5PSfRWyopN651+QDoUHkwUFy8xeyU6alsiFBytR99M6ds+drPbTgNTU6FOLwgMAAJmnqKhoxXuzrcKDtEi73RUAAACIpnDL4WWbQ3oiKcg5fNRuyejsPVyVt+aA/YVPjXAzzonc48Fznt1zmt6zp1lOReGhYOm7nbt0lUc9rJMdu8udz0SyVk9u4SF0qrZx9TVNpdvajVv1CCGv2eEUCXcakJoafWpReAAAIPNs2LChYPGrVuFBWqTd7goAAAD4sL70aE5ReU5RWc3IkNc/0Y0xZcCrW3Vjhub11WWzPzhwrOpb+6ueGhFmnHNLihpO6v6TEZ3kMXLVIeRjnt1qNPd4cDcOGjqydu2zws3yO4l1Q1blINabS6e68FDnnLrNwn86v54dThHZ0KKSCn02khqZgo0V+tSi8AAAQObZvn173hsvWYUHaZF2uysAAAAQMKGj33TsW1R1PP559uMnTt7Ut0jGsV+ADxEKDz6zpHBVvfMvqF37rLPP/pksbNpWeqiyKmdmniybyLK0RG0cP2Fiw8ZNnFn+veWVWac+fEnGj2lD4Wb5zZiyLI/6KJx4jums7t6lcIUHvZ+euyTt7Tt0NJUSiSxLizWUnh1OkcRPA5JZ0acWhQcAADLP/v37X33tWavwIC3SbncFAAAAAmbqW5+2ffy9jTsr7Rd827X/mIwg49gvwAdmnKsrFB5INUafWhQeAADIPJWVlZNfHGcVHqRF2u2uAAAAQJAc++rErQNWD5i6Kbdwj/2ab8vXHez29HoZR0azX0M0zDhXY1YUrTWfs5QOH7Wkt05qcPSpReEBAIDMc/z48fFPD7UKD9Ii7XZXAAAAIEhmLtszKmfrsrUHB0/bbL/m2z8KSiUyjoxmv4ZomHFO5+jZ4RThNAha9KlF4QEAgIw0LnuwVXiQFrsTAAAAECRVx7+9Y3Dxrv3Hyg5/LQv2y74N/cfm5esOyjgySCL3iggmZpzTOXp2OEVmfXBAb53U4OhTi8IDAAAZicIDAAAAYJm/an//qZvM8h2Di8sOf/3D1/26d8yaXfuPyYKMJmPaLyMiCg/pHD07nCILNhzadeArvQOkRubw96fWAescoPAAAEBGGpc9RBUehtidAAAAgMD49tuTd4348KNdn5ung6dtXrb24A+7+HL8xMn2fVbJoyzLaDKmjGx3QnizissXlVTkFJWRdEvBxorTVnioOn7yxXf2UXsISJZvCX205wvrHKDwAABARhqXbd/jQVrsTgAAAEBgLFt78LHnSpynuYV7nn9jh+t1v3btP3bvmDXOUxkzvgJGYPEXD+mc01Z4EN+cODl/w0HZIqnZmfF++TtbQ/aXn8IDAAAZalz2MFV4GGZ3AgAAAALjr9nrVm8+7DzduLPykWfWu173a/m6g0P/8T83ppYxZWTX64hiFoWHNM6s01h4QMBReAAAICNlq8JDNoUHAAAABJUuD1Qd//bGrKI4bg39j4JSibvFKmkgMgoP6RwKDzhtKDwAAJCRxo0bbv/Fw7jhdicAAAAgGDw/EOmRZ9Zv3FlpNUY19B+bl6/7wVDWhzghMgoP6RwKDzhtKDwAAJCRsrNHqL94GGF3AgAAAAIg3C2gn39jR27hHqsxqnvHrNm1/5i7xbptNSKj8JDOofCA04bCAwAAGSk7e6QqPIy0OwEAAAAB0H/qpvmr9tutp/5SYfC0/7lbgx/HT5xs32eVPFrtMr5sxWqEpxmrKTykbyg84LSh8AAAQEbKzh6lCg+j7E4AAABATbdr/7E7Bhd73suh7PDX8pLdGpGMdu+YNXbrqTtGyFDWX0LA0/Kth5dtDukpb1Lt2Xu4Km/tAfsLBqQGhQcAADIShQcAAABAjMrZOnNZ2M9TumNwcdnhr+3W8JavOzj0H95/JCFbkW3ZrfCyYffRnPfLc4rKSPrk9dVlcz48cKzKo0QHpAKFBwAAMtJzzz3z5VebnKqDLEuL3QkAAACo0coqvr51wOpjX52wX/iXwdM265tOR/CPglKJ3XqKbEW2JVu0XwAAKBQeAADISNOmvXTw0Bqn8CDL0mJ3AgAAAGq0Z+fumPrWp3arS27hnuff2GG3hjf0H5uXrwtbqJBtyRbtVgCAQuEBAICMlJv7+qelK5zCgyxLi90JAAAAqLlCR79p32fV7YOK7xm9pufzG4e/suWZ2dtfWbx7/sr9y9YeXL/9yO7yL9/ZcOiRZ9bba4Z375g1H2wJ7dj3xbpPjiwuLp+5bM+L83eNfX1br4kb7x+3VrYlWzxy9Bt7NQDAD1F4AAAgIy1YMO/jTf90Cg+yLC12JwAAAKCmq/i8anf5l+u3H1m29uC89/Zd32vl07nbh7+ypefzG+8Zveb2QcW/f2Kl562nteMnTkrn2wcX3z9uba+JG8fM2Cajvf72Z4uLy9d9cmTHvi8OVVbZ6wAAvFB4AAAgIxUWLvvgwzedwoMsS4vdCQAAAAiSisqq2wcV260J+NOQ4oNHKDYAQMwoPAAAkJGKi4uXvzPLKTzIsrTYnQAAAIAg2fbZ0QefWme3JuBvz27YXHrUbgUAREPhAQCAjPTRRx8tXDTdKTzIsrTYnQAAAIAgWb3pcN+XPrZbEzDslS3vlRyyWwEA0VB4AAAgI+3cuXPO3BedwoMsS4vdCQAAAAiShe+XZc/8xG5NwAv5O/NX7LNbAQDRUHgAACAjlZeXT39lglN4kGVpsTsBAAAAQfLaP3e/vPBTuzUBs5btmbIgmQMCQEBQeAAAICN98cUXE18Y7RQeZFla7E4AAABAkPw9b0dy/0Bh6YcHxszYZrcCAKKh8AAAQEb69ttvs58a7BQeZFla7E4AAABAkIx6bevSNQfs1gSs2RrqPYlbqQFAzCg8AACQqcZl/0/hQZbtlwEAAICA6T9l0/ubDtutCfhkzxcPPrXObgUAREPhAQCATEXhAQAAAHB79O8lJTsq7dYElB3++s/DPrBbAQDRUHgAACBTjcse4io8DLFfBgAAAALm/nFrd+47Zrcm4NjXJ256sshuBQBEQ+EBAIBMNS57qKvwMNR+GQAAAAiYzsM+KD/8td2amN8/sfL4iZN2KwAgIgoPAABkqnHZw1yFh2H2ywAAAEDAdOr//ufHjtutifnjoNWHP//GbgUAREThAQCATJWdPdwpPMiy/TIAAAAQMB2eLPry6xN2a2LuHbOmtOxLuxUAEBGFBwAAMhWFBwAAAMDtht6rkv6xSN2eXr9l91G7FQAQEYUHAAAyVXb2CFfhYYT9MgAAABAw7Xq+dzLJdYfvHnuupGRHpd0KAIiIwgMAAJkqO3ukq/Aw0n4ZAAAACJIT3578/RMr7daE9Zn80YdbQnYrACAiCg8AAGSq7OxRrsLDKPtlAAAAIEiqjn/bvs8quzVhA6ZuWvVRhd0KAIiIwgMAAJnqqadGn/j2k5Pf7ZBHWbZfBgAAAILk+ImU/MXD8Fe2LF930G4FAERE4QEAgEz1wgt/P/rFRye/2yGPsmy/DAAAAATJyZPf3+PBbk3Y2Ne3LS4ut1sBABFReAAAIFO98sq0svLik9/tkEdZtl8GAAAAAub6XiuTfnPpcTMpPABAzCg8AACQqebOzd2x852T3+2QR1m2XwYAAAAC5obeq46fSHLlgb94AIA4UHgAACBTLVq0cONHBSe/2yGPsmy/DAAAAATMTU8Wffn1Cbs1MWNmbPvnBxQeACA2FB4AAMhU77yzfHVx/snvdsijLNsvAwAAAAFz++Diis+r7NbEjM7ZtvTDA3YrACAiCg8AAGSqDz/8cFnh6ye/2yGPsmy/DAAAAARM15Fr9hz80m5NzKicrUvXUHgAgNhQeAAAIFNt2rRp/oKXT363Qx5l2X4ZAAAACJgHn1r3yZ4v7NbEjHh167K1FB4AIDYUHgAAyFSlpaWzcl84+d0OeZRl+2UAAAAgYB57rqRkR6XdmphBL29+b+MhuxUAEBGFBwAAMtWhQ4denjb+5Hc75FGW7ZcBAACAgOk/ZVPRxxV2a2L6TP7ow60huxUAEBGFBwAAMtVXX3319+dGnPxuhzzKsv0yAAAAEDBjX9+2uLjcbk3Mo38v2bgzyX9FAQA1HoUHAAAy2LjsQSe/2yGP9gsAAABA8Ex6c+fs5Xvt1sQ8NH79ts+O2q0AgIgoPAAAkMHGZQ8+VXgYbL8AAAAABM+MpZ9NfetTuzUx94xes7v8S7sVABARhQcAADLYuOwhpwoPQ+wXAAAAgOCZv2r/07nb7dbE3Dmk+OCRKrsVABARhQcAADIYhQcAAADA8V7JoUHTNtutiWmfterrqm/tVgBARBQeAADIYOPGDf2+8DBuqP0CAAAAEDybPv28x7Mb7NYEfHP82xt6r7JbAQDRUHgAACCDjcseduovHobZLwAAAADBU1bx9X+P+NBuTUDF51W3Dyq2WwEA0VB4AAAgg2VnDz/53Q55tF8AAAAAgqfq+Lc3ZhXZrQkoLfvyntFr7FYAQDQUHgAAyGAUHgAAAAC3Tv3fP/b1Cbs1Xh/v+vxvSf3sJgAICAoPAABksOzsEacKDyPsFwAAAIBAum/s2s8OfGm3xqvoo4r+UzbZrQCAaCg8AACQwbKzR54qPIy0XwAAAAAC6YkXPlq//YjdGq9Fq8uyZ35itwIAoqHwAABABsvOHnWq8DDKfgEAAAAIpFE5W99ec8Bujdfrb3/20oJP7VYAQDQUHgAAyGBPPz3u66ot8mi/AAAAAATSi/N35RbusVvjNenNnbOTNxoABAeFBwAAMtiLL07c/dlKebRfAAAAAAJpzjt7J725026N1+icbUs+LLdbAQDRUHgAACCDvfba9DVr58uj/QIAAAAQSMvWHhjx6ha7NV5Zkz8q3nzYbgUAREPhAQCADPbGG3MKFk+XR/sFAAAAIJA2bD/y2HMldmu8Hnxq3bbPjtqtAIBoKDwAAJDBFi8uePW1p+XRfgEAAAAIpD0Hv7xr5Id2a7zuGFx8qLLKbgUAREPhAQCADPbeeyvGPz1QHu0XAAAAgED6qurEjVlFdmtcTp787vdPrDx+4qT9AgAgGgoPAABksHXr1j355CPyaL8AAAAABNVNfYu++OqE3Rq7I0e/uXXAarsVAOADhQcAADLY1q1b77uvszzaLwAAAABBdc/oNaVlX9qtsdu1/9h9Y9farQAAHyg8AACQwfbs2XPTTb+XR/sFAAAAIKh6Tdy47pMjdmvs1mwNPfHCR3YrAMAHCg8AAGSwUCh07bVN5NF+AQAAAAiqUa9tXbrmgN0aOxlk5Gv8bTEAxIPCAwAAGeybb7656KJfyaP9AgAAABBUk+btml2YhL8JlkEmvbnTbgUA+EDhAQCAzHbhhRfYTQAAAECA5RbueXH+Lrs1djLIzGVJKGAAQABReAAAILM1adLIbgIAAAACbOmaA6NzttmtsZNB/vlBud0KAPCBwgMAAJntxhv/YDcBAAAAAbZma6jP5CTcFFoG+WALd1MDgHhQeAAAILPdc09XuwkAAAAIsB37vvhr9jq7NXYyyI69X9itAAAfKDwAAJDZevfuZTcBAAAAAXb482/+OGi13Ro7GaTi8yq7FQDgA4UHAAAy24oV79pNAAAAQIB9++3J3z+xUh7tF2KRlEEAILAoPABAQtaXHs0pKs8pKiOEkGDm9dVlsz84cKzqW/vnIwAAiN3Rr7+dVXxgxvv2P7iEZGhmvF/+0R4+rgoIIgoPABC/FduOLNscCn1xghBCgpy9h6vy1hywf0QCAIDY5X5wQP5h1f/aEpK5eWfrkXe3cY9uIHAoPABA/GYVl+uLKkIICWDk56H9IxIAAMQup6hM/ztLSKYn9wOuFYHAofAAAPGj8EAIISYUHgAASAoKD6RGZi5/HQsED4UHAIgfhQdCCDGh8AAAQFJQeCA1MhQegACi8AAA8aPwkCk59HnV3IUL/vrYw9e0bHrJ5ZfUrVv3kssvbdqy2cM9/7ZgyduHjx7XqxBCYgqFBwAAkiKjCw9yXZ2/ePGDj3e/9n+uui+RZWmRdq66gxwKD0AAUXgAgPhReMiIvJY/p3GzJg2vbXRfnweeyp0w9e3pczfMk0dZlpaGTRtdc13TNxcu1isSQvyHwgMAAEmRuYWHOQveurr5NWGvuq9tJK9KH70iCUIoPAABROEBAOJH4SHNc+DIV/f1eLD+VQ0GTBwiv/aEi7za4KorHn2i16HKKj0IIcRPKDwAAJAUmVh4kKvohx//WwNfV90NpCdX3QEMhQcggCg8AED8KDykcw4e+foPt9zYpkPbnKJZ+tceK9KnTYd2t95xO78FERJfKDwAAJAUGVd4kOvnm27rFMtVd1vpz1V30ELhAQggCg8AED8KD+mc+3s8JL/VzF6Xr3/h8Yz0bNuh3eO9++ihCCFRQ+EBAICkyLjCwyM9H4v1qlv6y1p6KFKDQ+EBCCAKDwAQPwoPaZvZ8+fXv6rBa6vs/3XVuPXVTrr0uMt6Vfpf2fC3by0u1AMSQiKHwgMAAEmRWYWHeYuWNrjqCn3VLRk4aWifZ/o5yV37hvuqW9aSdfWApKaGwgMQQBQeACB+FB7SM4ePHr/6umusT5idtvzVxq2vrvVDf8n6q/ULkqzVolUrGUEPSwiJEAoPAAAkRQYVHuSauWnL5p73dRgxfYx14d3nmX4zP5jrvuqWdbnqDk4oPAABROEBAOJH4SE9s2DJ2w2bNrJ++ZlUMEV+4bmsYX1ZMJGnrTq20b8mXd382iWFK/WwTg6EvirZtMNk07ZS3SF12bXnYFnFMd3uzt7yytTt26riDX+5/yGr0f2GSD75dL9eMb58tGXXH+/orNtJGobCAwAASZFBhQe5Zm7UtIm+nJac+eMz5WL73t73m5jag1yBu/vIupGvukMJXNnKBeqO3f/vl7VDlVX+L1DdV7anuS7i51I/c0PhAQggCg8AED8KD+mZbj173N/nAeuXH11pCFd4eODJbn36DtDDOllRtPbc8+q179BRcvudf166vEj3SVEe6tZjQcEy3e5k9/7Dw0aOTd2+ybF37tJVNzpviGTQkBF6xfgiv+/JgLqdpGEoPAAAkBQZVHh4vE+Wvuo2OfPHZ174f37pPJWrbl14kHVlBD2sk0SubN1XrTFdUrqvbGfNmac7pC5RL/UzOhQegACi8AAA8aPwkJ5p1qr5U7MmWL/86MLD3998Yerb061uElm3Tdt2elgn+teYrTv35szMm5O/MKvvwFFjx7t7SovTmGC30A9/GzHdzHLpvoqp02eYofSvWNb4MW3U6mbGt7qFq0ZE3ahni7uxeN3HEQ6BpFUoPAAAkBQZVHho0bqVvuo2sQoPj43udWOXm6avmGFddcsIelgnnle2pj3qJaW01G9wxZLCVbL8aM8+4S4p9TWwe6ODho4019ie6+oW3ajH9+xmogsPPkfLiFB4AAKIwgMAxI/CQ3rm0ssvnbrsFeuXH114CBdZt36DBnpYJ/pXoBWn/mPUwMHD5TeBF6e+Yv7L/4aPt3fv0VNanMYEu8mGLrzwV1df0/Tue+/33A2rcf/Bo0uXF+nxY9qon27ujZroFT0bdYvV7Xc3tJfj8uxG0i0UHgAASIoMKjxcVv9yfdVtYhUePCPrygh6WCf6yjbk+5JS1pWLfzM7X7v2WeEuKfXFrec1tl5Xt3h20+N7dtOX+p7dPEfLlFB4AAKIwgMAxI/CQ3rm3PPOzV3zhvWLjf/Cg6x7Xr16elgncsX/n//50/oNrpC0btPuk0/3S0vHm2/9rCwUct2WQP/S4u7mLhXcdvufSvdVSFauXm91c0Yznzbb5a57pk6fYT7iVo9vuj33whTZsQUFy8wIenzTbcv2z6Ju1L0J89m44Q7BeUPa/e4Gz/E9R4va7Z9vv2f2TR8CSbdQeAAAICkyqPBw3nnn6atuEz+Fh++vus87Tw/rxLks3FteKdeB+w58bhr1xbO+KjZXrd179Kx3/gVz8hdKY7grT+viNtxoETbq3ENCr+t5ja33RF/q+x8tU0LhAQggCg8AED8KD+mZS+tfpv/vlf/Cg6zboMEVelgn7t8BwrVYjZF/jalzTt1mzVuY9OrTz3M0E/ffX3uO5u4pLUUflOjxQ6d+eRs1drxpadi4ibVvTnSj50Z1Nz1+fN2c900fAkm3UHgAACApMqjwcHmD+vqq28RP4UHWlRH0sE6cy0K5snVfK0a4eLYuUMeNf1b6yCWxNPq/8vQcLcJG9Q57jubEc09C6qOWfI6WKaHwAAQQhQcAiB+Fh/TMda1b6k+b1YWH/+/Cc2/5y236V6AJs59v2+56PawTfcWvW6xG/atChFl73eLE/dvI5k92y+88765aI8sDBg0zo20vLcubV2A66I060XsStZtu8XkIiXSLsG8k3ULhAQCApMigwkOrtm31VbeJVXjo2LVTnV/UeWnJNHcfWVdG0MM60ZeFVqPPbvqSMpFuJrol6mgRupllCg8AahgKDwAQPwoP6ZleWU/e3+cB65cfXXgI9wcQjw/sndV3oB7Wib7i1y1Wo/Orwi9/eZEpDHj+GrNjd/mY7Gc8RzOxfhtZu3Frrz79pPOgoSP1aPr3EzO+1e3Ozv8d7tcYva4e3+qmVzTjRx3Ns5veN+cQSLqFwgMAAEmRQYUHuWZ+qG93fTk9VxUe5Kpbrr3lgtzdR9b1f9Xtea2oLyk9L1D1VbF7NOv63N2tW/fH5i1cGnWjntfYejQnnnsSUpf6PkfLlFB4AAKIwgMAxI/CQ3pmSeHKJs2utn75eWnJtDq/qCO/8MivQCay3LFrJ6ubpHmLFjKCHtaJvuLXLZKyQ1+MG/+sufNBy1ZtNny8Xbrd0L5Dj8eecFrCddOjmWz+ZPctt91h7qPgtEj/dRu3md9Y9Gi6xeo2PSc33K8xel39+0/I6/D1+J6jRe1mGvWK1n6SdAiFBwAAkiKDCg9yzXztdc305bTk5//1/YX3ZQ3rm8jyGWecMXnxy+4+sm7kq259WWg16ktK51pRX7V6jqavz1e47l5WuKJY70mEjepGfZ0c7rhC6lLf52iZEgoPQABReACA+FF4SM8cPnq8RatWAyYO0b8C1XJp3NouTkjGTh3fuk1bGUEPm3iS/qvCrj0HZUxJ/oJ/PvzIo7oDIactFB4AAEiKDCo8yDVzq9Zth0waoS+qJeY//TheXTnT/aqsJeum6Krbf5J+fU7ChcIDEEAUHgAgfhQe0jZvLS78bcOrXls1S/8KFCEz35/bqEkTWVcPmJR8tGXXs8+/qNvjTsHSd+U3JUn3Hj31q4SczlB4AAAgKTKo8BA6ddXdsHGjWK+6pb+slbqrbv9J+vU5CRcKD0AAUXgAgPhReEjn9M7q9/uOf5i9Ll//quOd9fNuvu3W3ln99VCEkKih8AAAQFJkVuEh9P1Vd/8bb+no/6pbekp/rrqDFgoPQABReACA+FF4SOccqqy6809d/tDpxpyi6P8DK3d1fqc/3nZn5y6ylh6KEBI1FB4AAEiKjCs8fH/V3bnLTbfenFOUqy+zrUgf6clVdwBD4QEIIAoPABA/Cg9pHvl9pndW/6saNxo+ebT+tcckr2T+09Oea9ykifTk9x9C4g6FBwAAkiLjCg+hf111N2rcZMyU8fp624m8Kn246g5mKDwAAUThAQDiR+EhI/LW4sJWrds0a3HdYwN7T8ybMn3563kl8197N3fKm9N7D+53XctW8mo6fMIsIRkdCg8AACRFJhYeTMxVd/MWLXoNenJS/tRX3/n+z47lUZalRdq56g5yKDwAAUThAQDiR+EhU3L46PElhSuz+g5sd/3vrrjyt3Xr1pVHWZYWaZdX9SqEkJhC4QEAgKTI3MJDiKtuEj4UHoAAovAAAPGj8EAIISYUHgAASIqMLjwQEi4UHoAAovAAAPGj8EAIISYUHgAASAoKD6RGhsIDEEAUHgAgfhQeCCHEhMIDAABJQeGB1MhQeAACiMIDAMSPwgMhhJhQeAAAICkoPJAaGQoPQABReACA+M0qLl9UUiG/GxBCSJBTsLGCwgMAAEkh/7DyKwapYZFrRQoPQABReACA+PEXD4QQYkLhAQCApMjhLx5ITQyFByCAKDwAQPwoPBBCiAmFBwAAkoLCA6mRofAABBCFBwCIH4UHQggxofAAAEBSUHggNTIUHoAAovAAAPGj8EAIISYUHgAASAoKD6RGhsIDEEAUHgAgfhQeCCHEhMIDAABJQeGB1MhQeAACiMIDAMSPwgMhhJhQeAAAICkoPJAaGQoPQABReACA+FF4IIQQEwoPAAAkBYWH05acmXkFS9/V7TUsiRymrNi5S9e4V3eHwgMQQBQeACB+s4rLF5VUyO8GhBAS5BRsrKDwAABAUuQEpvAwJ3/hxMkv6/ao2bpzb7PmLZysKFqr+/hJVt+BkXcgWRtKJH7eJfd+Sn/r1aiHGSEycucuXeNe3R0KD0AAUXgAgPjxFw+EEGJC4QEAgKQIV3h4/5IrdXS3DMrEyS9n9R2o26OmZNOOho2byKNJ+w4dN20r1d2ipnRfxd7ySt3uJFkbSiR+3iX3ft5z3wNLCle5X416mJGTSN3CHQoPQABReACA+FF4IIQQEwoPAAAkRYTCQ9SWQ5VVOTPz6p1/gYksS4tnY8mmHf/+ox/J06y+A++57wFZWFK4ysxfj58w0c/qCfaU9mEjxz7UrYcslFUccw5h4uSXa9WqFXmmW1Zp1ryF81SWpcVz656NZq3pObm1a5/lbMizp+eGwh2R5+oJ9tTvUrhd0o0xHabeujOau/AQbvVwW3eHwgMQQBQeACB+FB4IIcSEwgMAAEmRSOHBmgJ+qFuPrTv3es4LO43OtHK98y+Qxtq1zxo0dKRnT6sxkZ7mo4F+ffFvZKPNfvgRRnPyFzbz+rwgd2SE+g2uWFCwzKRzl64yoESO1+njuUvmDXGeuqfUPXt6bsjziPwfu/+enu9SuNV1o/PUz2HqrXuu7udNtlZ3QuEBCCAKDwAQPwoPhBBiQuEBAICkSGLhwbPRmiy2Cg8Revpp/PXFv5HRTGQ5XE+z7OdDhDwjI9Q5p27nLl1NRo0dbz5KaOvOvdbWd+wuf6hbD3nqeXuGCDPynhsqXvex7jlo6EjZiudhhmuM+i6ZMc2y9S6FG1M3Ok/dh+n5hvhfPeT1Jkde3QmFByCAKDwAQPwoPBBCiAmFBwAAkiKjCw/1Tn12k5PSfRWePc2yNaXuP55jyrbcmzaHYzo7jc6mTdxT6taYCTYm+C65k9zCgxnBekP8r+75Jkde3QmFByCAKDwAQPwoPBBCiAmFBwAAkiKjCw8+t26WPQsPBUvf7dylqzxa7e54junZ6DxdUbRWNvdQtx7OXxKEqq/wEHV1d6x3aW955aix4599/kVZlsc659TVY1rHbhUeTNxviP/VPXt67pJ7WyYUHoAAovAAAPHLlMKDXE06H9l5epIzMy/ybwtxJKYx5ZLX/Cl0HIlpQz6TijFTnWSdNqk4dj9jyglgfv9JevxsPYCh8AAAQFJEKDzoWH2seeGU3uMhamOErZtlz8LDxHhvLu1ulEOQAyk5dZsEfU8C52mEKXXPnffs6dno7FLU9zPChkz0u1S6r2LU2PHSXx7rN7hCH7us4r5ft/swPd8Qz/30XN3akHmTQ1675KzuhMIDEEAUHgAgfplSePC8kDU3K3Pi+bGnTuRVnz1N9H+rmZO/MPLvD1GjxwwX6SaXvHL5q1/yE72h07nzfhLrlyO+eJ42odi3ro/99Lyf5vefqN08Y/1KZsXP1kP+DjOmb8MUxc9++gmFBwAAkiJc4cFPDlVW5czMq3f+BSayLC2ejc6VnlV4aNi4yfgJE/2vbtLs1FS1/55meW95Zdapj+tZUrjK6SCNJaf+E73ToiMd/v1HP4pwmHIIciDhdklGkC3K09q1zzr77J/JwqZtpZ49Pa+HPRvDrR7f++lO5HfJvJ/uN0Q251Qd/B+m3s+oqztvsucu6QOh8AAEEIUHAIhfhMJDbklRw0ndfzKikzzKsu5wOuN5IWuuL811qqR9h45yKanXlUi7vOqnp5PSfRXWbwsT1X/ViTV6zHDxOS8cLnpDp3PnoyaOL0d88Txt4ti6PvbT9n7GvSHPY3eSlK3fctsd8tb5/zZMXSLvp4nsleywbneHwgMAAEmRSOEhwUS+BCKxJkXvZ1nFseRePSa+n352icIDEEAUHgAgfuEKD7klRedm/7nXotFDl42UR1n+/9l7E7AqrjT/3+eZ5zfTM/OfNtM93e3Mk6170pvdmqRjYtLRmMWkOx2NGs1mjMa0STRqmxijqAhugBHELe5bXFDcjbtxwZ1FBQFFQQFR2RQERBRErv9XznR15bynirpbwb33+3m+z32Kt96zVN06t95zXm5dZe5B+f8m1o1iydLif9BwTym+1P5ZpkGjfsGU/18MaWnMmubN79OW/kVbE8InDxg4hDbEP+BY76dRnby42CWtoio9nWrI5s47+9Vy8XYo61Qalf207qlsXekpHPix23k+y1RZKBdOsl5WWlcepqa8gtK+/T4R/7MmNaSNOH7syobc9+T9VHaprP5f3qjbJl8kQuIBAAAA8AiNmHgw/9In5Ky8dD6d/f5xg3K/n1a6hMQDAAEIEg8AAOA6RomHP8wZ+MmmURP3TRSibbJwN2mBT/l8T7HqZ/1ZnEZ1Kj1btX506859Qj179TFqXTIKKevU9upXe8XDZH75q988+NDDWiRq1JD1OvkJEdtS4sH6CdF8GrHz6zZtpz/pVdvLRcXpzaK3TF+/skvKhpT9tH6WJE8hpae2txHPp+QpZOUkKw9Tk75O5alTHqYQ7aLiWutpBsOQH7v1s2TdU9lPZXGxTd2mzlMpba9eSDwAAAAAHqEREw8Q5D0h8QBAAILEAwAAuI5R4uE/Jr4+Zvc4LfFA22ThbtkXiwcMHDJ73mL9umRaRvYvf/UbMgrRtlj1y8zJl4zS+mDo+HCqUDJqdfKVRNJPf9aiZ68+QhGTo8VzOZWeDdYpWtf+5Ku9PB/AD9OpOvkJMWrIhzpvUUkpp+ktE3WKVWBll8pUDSn7aeUs+eLFwD0tSnmYmvR1KkexkHSYZfX9pAOJid2gWdK+PwzFL6Irj93K26EZnTqf/O3gdWp/UueprDL3gMQDAAAA4BGQeID8Ukg8ABCAIPEAAACuY5R4+N3Mv364fpiWeKBtsnC3svo1vqBRIUJidY9eH3zoYc1IyisoJektD9b/8ptybdSK0XzJskGjsk5JfLWXL27yw7Rep/KEGDXE61QaNTVi553S1p379K3zLikbUvbTitEXLwbJ07qsty6ctdb1TUuHqXnSG6e38IasGJVvh2Z06nzyt4PXqf0prjq9RRMSDwAAAIBHQOIB8ksh8QBAAILEAwAAuI5R4mF5yr4fT+r61w1fhuweR6+0TRbupulQfPLseYsHDBzC/69ZSLkUaMVTaVQWF8b84oqIydEzZs0nC73+9GctuKfy/68l8dVe88VNE6MmfZ3KzottzzYk5Nk6TTq/c8/Bnr360CuvQROd/NC/PzBHK65sXdmQFU+lUVm8iV8MkqeQlZNsvXVN+lEsLDzxQEpOzySj1rqyIStG5duhNCqL6yX1U/khIHZRt8mTDoFXUobEAwAAAOAhYuKLdqSV0isE+Y12ppci8QBAAILEAwAAuI5R4oE0P2n7/07t+a8TOtErbXOHMoNn00vrg/yHH0LHhzdvfh/3FGqwuFFDwlhW///jEZOj6U96bdX6USNPZeua+Mqs+Vqzsp+SjNaatRMi/uTP0HenISHbOj/b+d89Vr4dvEtevWyUdWpqxPOp/E0CF06yJH3rylEstpWJh7L6yqmI8gcVNIcGjdqZ57/c4Oz55P3kHwJl9ZmVAfW/Qc1rEELiAQAAAPAIMfjGA+SPQuIBgAAEiQcAAHAdk8SDFZVU1MTEbnjwoYeFaJssDRqjp89u81RbvrxoUqfRkuW//OAHkqdwED/2QK/C00qdmnbHHSWf5s3v+/GP/4s2MrLytDqD6h+DQw4W+2lSp/KEaP76dWE3GxJ22zqvnXlejyZl6w0aPXXZWPHUxI9d2G07n3xJXbTe4ElO+/7o0Dpv3rrWea0h/WHqlX2x+LXOXai48jCVRmVD5EnHS0etNxp58jqFlP2UPgSoq9Rh/c9scCHxAAAAAHgEJB4gvxQSDwAEIEg8AACA67iZeGiaKiqtEsvTJLE2yn2avgYP+YKv9kIBJboA6DLgdn+SSTrBHbn2IYDEAwAAAOARkHiA/FJIPAAQgCDxAAAAruOXiYdD8cnt2ncQEk+DgSCoaUp60JOn5NqHABIPAAAAgEdA4gHySyHxAEAAgsQDAAC4jl8mHiAIglwQEg8AAACAR0DiAfJLIfEAQACCxAMAALgOEg8QBEFCSDwAAAAAHgGJB8gvhcQDAAEIEg8AAOA6SDxAEAQJIfEAAAAAeAQkHiC/FBIPAAQgSDwAAIDrIPHQ6IqJ3bBzz0G9hf7s2auPZDTRjFnzk1JO6y28Tk2h48OzLzbCm27SJXPRodEBcjtkUfzMO3uBBY6QeAAAAAA8ggcTD1LsygMb6/JICKQPvJtCmOrOCYGcFRIPAAQgSDwAAIDr2Jx4WLdp++x5i7U/M3PytR+Adeo3YD0oqUtK6ftJ/txBkpU6NQWNCpGcqTmaFFmsgdwiJkfnFZTqjbxOTXQIaRnZ3G4io9/pdfMwLYoOjQ7QtbK4wMpUZ96pCyyghMQDAAAA4BE8mHiQYlce2FiX+yGQFHi7E6aWNXaMDbkgJB4ACECQeAAAANcxSTysSYtvM3fwD8O60SttcweuN3q8nZGVx+2aKCym4Fj7k2YRbZ5qS69Cr3XuYl7cG5K6pJS+n337fbI77ij30ctKnZpoxpJfXCEZrU8hlJ7KOoWcTTzQO0Lvi/I9cv8wTaS/lpxqSC9cYGUGZ1552UBIPAAAAAAewSTx4OwUQ4pdlYGNdbkZAvHiTkVlejWFGBtyVkg8ABCAIPEAAACuY5R4oGnA/VHvDdsRMXbPBHqlbeXEoKSiJiZ2w4MPPUyKnj5bRMx6I4m2yUKikHpC+OQBA4fQRlFpVVn9eivNJbTaxLxCLMJSbVJxXqf7nta7xI3KhpR1Kj1FVUtj1jRvfh+f/+hnNSbFldMSqU59cToDYoFbK96sWTPeul7SsYu5ivIwlSdZlJK6pPSU+iklCZTTPGc7jwtMk8ULLNCExAMAAADgEYwSD7GpR1pMfmvAt8FhcV+F71/00JT3+RRDign1satJlGselWmVNxgCKaMysa0MvKU6NU9nw9TGirEhp4TEAwABCBIPAADgOkaJh8dnD/x408iJ+yYK0TZZuJs+Yu7Zq8/WnfskY9nf43XxMJlf/uo3FPK2+/u3icneqvWjVEqIaiA3MlIAHTo+XF9cWaebnkZdUha3aFTWSUaaPEie2p98riIZpYaoKqpQbFuZ/+iL0xmg86C1vm7T9nYNPdtHfCed3h19n5WHqTzJWhGpS9xT30/tWlIWF7LS+TRcYKpTJxmlhvQXWKAJiQcAAADAIxglHn49/YMP1w/TphhhcQvazB0s+egjEyl2LbMQwyijMmVxZQSlDMDEtpXAW8hKmNpEYmzIKSHxAEAAgsQDAAC4jlHi4T8mvj5m9zhtVkDbZOFuykCWjBQuUwQsRNtG8TrZf/qzFlRQSPxQmxTuh9b/oJxyDmBk5K0r6xTbvEvKOpVG3pCyzrL6WYTSs0w1V5GM1FWaFNGf/CcKeEO8uLLzvIiJ6H2hd0fUqV+SNj91+pNcZqFLeiOfFCnPUoNKwwVmcOosXmCBJiQeAAAAAI9glHj4twmv6acYEfunNA/rJvko4yLtzwZjGOvFy1QRlElxHoAp67SuphBjQ04JiQcAAhAkHgAAwHWMEg+/m9lP/+9ItE0W7pZXUErBriYRl9Prgw89rLdrv8BmHkZbN/IwWm/krSvrFDLvkrMNKeuUzhKVEidKKEg1V5GM5K8V15e1Mv9Rdp4XaVA0SzE/TJOTXGahS8prSVncupRdsmJ09n1X1ilkfpacbUhZp/cusEATEg8AAACARzBKPDwc/bZ+ivHp5jHm33goY7FrgzGM9eLKCMqkuJXA2wU1bowNOSUkHgAIQJB4AAAA1zFKPCxPifvxpG5/3fBlyO5x9ErbZOFuZfWx8tPPPEvxbnJ6prCYBMdWwmgrRvPl2gaL6yV1Kb+4ImJy9IxZ82mbXn/6sxa8TpOGlHUqi2t/KucqSuOh+GQyDhg4xOi/6ZXFTVrfuedgz1596JXXoIna0r6vLRU3P0xJVrrEryVlcSErnVd2yYpR+RYrjcrievn0BRZoQuIBAAAA8AhGiYfx+xb8OKKrNsX478lv8d94cCGw0ccw1osrPZWhmnCwEngLWQlTm0iMDTklJB4ACECQeAAAANcxSjyQFhzb8b9T3/u3CZ3olba5gxAFshSRU1zbzuAp9ia/SaAMo60YRRid1tBjTMt0D3vldQrxKUReQSnNN8ifXlu1flSqk5qjIkWlVcqGlHVKxU2eVKs0Kp8/q+0iT/4AWaMZiNT6bOd/+E7fuslhchl1qez7kyLpWhKiA6Ti0g8PuNB560bRpbSAv8ACTUg8AAAAAB7BKPFQWnl7QtzCh6PfoSnGb2b0jU07wn2sBzbKGEYZvymLGzXEQzWtOR54eypM1ffTJNLjMjqiMgsxNuSskHgAIABB4gEAAFzHJPFgRRlZea917iJCfBJtk6WkoiYmdsODDz0sRNtkEf75xRVB9V9k3h13tIwFx0JKo7JO8mzzVNvo6bP1RiNPXqeQ1CXNmFb/H0/aBOZffvADUSE1V1RaZdQlZZ16TypOfRZzANpLFprk/PjH/0UbdOqURpOGytiysnlxfev6w9SKc5m0buXdLFN1STkpUl5LwoGv3ZdZ67yyS0qj8jDTcIEFmJB4AAAAADyCUeLBiqwHNsoYRhm/NVjcKEjW1u6F+P9zuBymKjuvFbcnxoacFRIPAAQgSDwAAIDreCPxwN28JKMo3E2JfzZvlCNyTYOHfKFf1PZRGV1LdGh0gNzfBuECCzQh8QAAAAB4BHcSD27K/fjNPFTTB96NGKZal1GMDbkgJB4ACECQeAAAANdxM/FQVv9M1Xb139ttZ/tXd6WvV3tKjXhEAa6mduZxgQWakHgAAAAAPEIjJh7cj9/8L1TzvyNqLCHxAEAAgsQDAAC4jvuJBwiCIP8QEg8AAACAR2jExAMEeU9IPAAQgCDxAAAArrMyEYkHCIKge0LiAQAAAPAISDxAfikkHgAIQJB4AAAA14nLvLbvTBkPqiAIggJK+ddqNiRjMgkAAAB4gDXHrtCNld9tIch3dTCz/Oj5CvlaBwD4O0g8AACAW6RerIyJL46JL4KalJYdKeRGCPIDLW961/aqxKJ1x69U1dTJn48AAAAAcJ7K6rrVSVdWJsg3XAjyUa1KKD51+YZ8oQMAAgAkHgAAAPgVxdeqv96Q/fbYpJraQFkG7Tj0sGwCfkrtHUfX0QmDpqXO/TbncHpJWeVt2QMAAAAAAFjj0KGDsgkAAIDnQOIBAACAn3Dpys3I2Kw3xiQs2HohoBZkkXgIKKpv16VlV6zccyl4YUbX0Ql9wk9MXpW1Lb7oQlGV7AoAAAAAAIwZPnyYbAIAAOA5kHgAAADg82Tn35iw7GyPkMQV312svFkr7/Z3kHgIZHILq7bGF361Mqt32PGuoxOCF2XE7r2Ull0RON/4AQAAAABwjb59+8gmAAAAngOJBwAAAD7Mqdzroxecfnts0roD+bdq7si7AwMkHoDg2vXbh9JK5mzKGTTtZKeg+L/NSJ27Ofdwekn5jQD6AhAAAAAAgEU6dfqLbAIAAOA5kHgAAADgkxzPLPtiVnrvsONbjhbW3nHIuwMJJB4Ap7qm7uT58pV7Lo1acLrLqPgPIk5ExmZtTyjKK7opuwIAAAAABCRt2z4pmwAAAHgOJB4AAAD4Eg7H3cPpJZ9OPdlvcvKeE1fq6gI65SBA4gE0SE5B1ZYjhZNist6vfyJTyOKM2H2X03PwRCYAAAAABC4///nDsgkAAIDnQOIBAACAb3CnzrHnxJV+k5MHTj15OL3EgYzD30HiAThF6fWag6klszfl0FAST2Satzn3SHopnsgEAAAAgMDh9u3bjzzyv/Qq7wAAAOAhkHgAAADQ1LldW7flSOH7Yce/mJV+PLNM3h3wIPEAXEY8kSlm9/89kanvJDyRCQAAAAABQVlZ2R//2JZe5R0AAAA8BBIPAAAAmi43q++sibv81tik4EUZp3Ovy7tBPUg8AE+RXXBDeyJTt+D/eyLTKTyRCQAAAAB+x+XLl19//c/0Ku8AAADgIZB4AAAA0BSpuFH7zc687iGJYcszcwqq5N1ABxIPwBvgiUwAAAAA8GMyMzP79etJr/IOAAAAHgKJBwAAAE2LkoqaOZtyugUnTF1zPr/klrwbMJB4AN5GeiLTBxF4IhMAAAAAfJuUlJSRIwfRq7wDAACAh0DiAQAAQFMh/+qt6DXnugUnzP02p7SiRt4NDEDiAdhMTkGVeCJT77DjXUcnjFmUEbv3UjqeyAQAAAAA3+Hw4UPRU0PoVd4BAADAQyDxAAAAoPHJLrgRtvxs95DEpTvzKm7UyruBKUg8gEak9HrNobSSOX9/ItPg6alzN+ceTi8pr8QTmQAAAADQdNm1a+fyFVPpVd4BAADAQyDxAAAAoDE5nXs9eFHGW2OT1sZdvll9R94NLIDEA2giVNfUpZ4vX7nn0ugFp7uOTvgg4sTkVVnb4osuFOFnWgAAAADQtNi4cd3OXUvpVd4BAADAQyDxAAAAoHE4drZs6Kz098OObzlaeBtPaHEDJB5A0yS3sIpG91crs3qH33siU/CijFV7L6VlV1TfxngHAAAAQCOzYsXSE8lb6FXeAQAAwEMg8QAAAMBWHI67B1JL+k9J+SgyeV/ylbo6h+wBnASJB9D0uXb99uH6JzINmpbaKSieXmmbLGV4IhMAAAAAGoP582dfvHSEXuUdAAAAPAQSDwAAAGyi9o5jR2JR30knhsxIjT9VKu8GroLEA/Atqm/XpWVXrNp7KXhRRtfRCb3Dj3+1MmtrfGFuIZ7IBAAAAACbmDp1cnXNWXqVdwAAAPAQSDwAAADwOtU1dRsO5r87Lmnk/NNp2RXybuAeSDwAnya3sGpbfNHkVVl9wk90HZ0wesHplXsupZ4vp88N2RUAAAAAwENERUU47mbTq7wDAACAh0DiAQAAgBepvFm7/LuLb4Ymjl969vzlG/Ju4AmQeAB+Q3nl7cPpJXM35/5txr0nMg2cenL2ppyDqSWl12tkVwAAAAAAN4iKCq9PPITLOwAAAHgIJB4AAAB4hdLrNfM2574xJmHK6nOXrtyUdwPPgcQD8EtqauvScypi910OWZzRLTjh/bDjETGZm48UZhcghQkAAAAAd4mKCqtPPITJOwAAAHgIJB4AAAB4mIKSW9PWne8WnDBnU87VcvyfstdB4gEEAnlFN7cnFEXFnus76USXUfGj5p9e8d3FlHPlt2ruyK4AAAAAAA0RFTWxPvEwUd4BAADAQyDxAAAAwGPkFFSFLc/sEZK4dGdexY1aeTfwDkg8gEDjelXtkfTS+Vtyh8xM6xQUPyD65KyNOQdOXkWmEwAAAAAWQeIBAAC8DRIPAAAAPMCpnIrghRlvj01auz//ZjX+AdlWkHgAgczt2rrTudfXxl0OXXym+5jE9yYcC1ue+e3hgvOXbzgcsjMAAAAAgCAyaoLjbja9yjsAAAB4CCQeAAAAuEXimWuff53WO/z4tvii2jtY52sEkHgAQOPSlZu7koqj15zrNzn59ZHxI+adWrbr4vHMMiREAQAAAKAnMnL8vcRD5Hh5BwAAAA+BxAMAAABXqKtz7E+5+smUlI+jUuJSrtKfsgewCyQeAFBSebM2/lTpwq0XPv/63hOZ+k9J+XpD9r7kq8XXqmVXAAAAAAQYkVHj6r/xME7eAQAAwEMg8QAAAMA5au84tsUX9Qk/8fnXaYkZ1+TdwHaQeACgQeiD60xe5boD+aFLzrwZmvjuuKSJy85uOFhw7vIN5E0BAACAACQyamx94mGsvAMAAICHQOIBAACAVW5W31m7P//tsUmjF5xOz6mQd4NGAokHAJwlv+TW7uPF09ad/ygyufPI+C/nnPpmR17SmWtVt/BEJgAAACAgQOIBAAC8DRIPAAAAGqbiRu3SnXk9QhLDlp/Nzr8h7waNChIPALjDjVt3EjOuLd5+Ydjs9E5B8R9HpcxYn73nxJXC0luyKwAAAAD8hcio0PrEQ6i8AwAAgIdA4gEAAIAZV8tr5mzK6RacMHXN+fyrWIZriiDxAICnuFPnyLxYueFg/vhvzrw9NumtsUm0sf5APhnv4IlMAAAAgL9w69atmV+HOe5m0ytty7sBAAB4AiQeAAAAqLl05eaU1ee6BSfM3ZxbWlEj7wZNBiQeAPASRaXVe09cmbE++5MpKZ2C4r+Ylb5o24WEjGs38EQmAAAAwJcpKSlZvCTacTebXmlb3g0AAMATIPEAAABA5vzlG+OXnu0Rkrh818XrVbXybtDEQOIBABuoqr5z7GzZNzvzhs891XlkfL/JyVPXnP/uWDG+CgYAAAD4HHl5eavXzHHczaZX2pZ3AwAA8ARIPAAAAPgHadkVI+effndc0voD+dU1dfJu0CRB4gEAm3E47p67fGPjoYKw5Wd7TjjWIyQxdMmZtfvzMy5cr72DJzIBAAAATZ2MjIwtWxc77mbTK23LuwEAAHgCJB4AAADcI/5U6ZAZqR9EnNieUISFM98CiQcAGpcrZdVxKVdnbczuX/9Eps+/Tluw9cLRU6WVN/GNMQAAAKApcvz48X1xqxx3s+mVtuXdAAAAPAESDwAAENDU1Tn2JV/5KDK5/5SUA6klDmQcfBAkHgBoOtysvpOcVbb8u4tB8069Pir+w69OTFl9bkdi0cXim7IrAAAAABqJAwf2JyZtctzNplfalncDAADwBEg8AABAgHK7tm7LkcL3w44PnZWedOaavBv4Dkg8ANBkyc6/8e3hgogVmb0mHn9jTELI4ozV+y6fyqmoqcWz7AAAAIBGY8eObemndjruZtMrbcu7AQAAeAIkHgAAIOCoqr6zet/lt0KTghdlnM69Lu8GvgYSDwD4BKUVNQdTS2Zvyhk49WSnoPi/zUiduzn3cHpJeeVt2RUAAAAA3mT9+jXZOQccd7Pplbbl3QAAADwBEg8AABBAlN+4vWRHXveQxPAVmTkFVfJu4Jsg8QCAz1FdU3fyfPnKPZdGLzjddXRCn/ATk1dlbYsvyi3EJzMAAADgdZYtW1xUnOS4m02vtC3vBgAA4AmQeAAAgIDgSln1rI05XUcnTF93vqDklrwb+DJIPADg6+QWVm2NL5y8Kqt3+HH6oA5emLFyz6XU8+XVt/FEJgAAAMDzzJkzs/LGKcfdbHqlbXk3AAAAT4DEAwAA+DkXi29Gxma9MSZh/pbc0us18m7g+yDxAIA/UVZ5+3B6ydxvcwZPT+0UFD9o2snZm3IOpZXgAxwAAADwFFOmTLpTd85xN5teaVveDQAAwBMg8QAAAH5L1qXKcd+ceTM0MWb3pcqbtfJu4C8g8QCAv1JTW5eeUxG77/KYRRndghPeDzseEZO5+UhhdsEN2RUAAAAAlomKinDczRaibXk3AAAAT4DEAwAA+CEp58pHzDv17vhjGw4W4Ekdfg8SDwAECHlFN7cnFEXFnus76USXUfEj559e8d1F+sC/VXNHdgUAAACAMVFR4brEQ7i8GwAAgCdA4gEAAPyKI+mlg6al9p10YldSce0dh7wb+CNIPAAQgFyvqqUP/AVbcj+bmdYpKH5A9MlZG3P2p1y9Uo4nMgEAAAANEBUVpks8hMm7AQAAeAIkHgAAwB+4U+fYc+JKv8nJA6JPHkorcSDjEEgg8QBAgFN7x3E69/rauMuhi890D0nsOeFY2PLMTYcKzl++gdsBAAAAwImKmqhLPEyUdwMAAPAESDwAAIBvc7u2bsuRwvfDjn8xK/14Zpm8GwQASDwAAPRcvnpzV1Jx9Jpz/SYnvz4yfsTcU0t35h0/W1ZVjScyAQAAAPeIipqgSzxMkHcDAADwBEg8AACAr3Kz+s7auMtvjU0KXpRxOve6vBsEDEg8AACMqLxZG3+6dNG2C0NnpXcKiv9kSsqM9dn7kq8UXauWXQEAAICAIVKXeIhE4gEAALwDEg8AAOB7XK+qXbbrYo+QxLDlZ7MLbsi7QYCBxAMAwAq1dxxnL1auP5A/7pszb4UmvTMuafzSsxsO5mddqqyrwyOZAAAABBCRUeN1iYfx8m4AAACeAIkHAADwJUqv18zbnPvGmIQpq8/lX70l7wYBCRIPAAAXKCi5tef4lenrzn8cldIpKH7Y7PQlO/ISz1y7cQtPZAIAAODnREaN0yUexsm7AQAAeAIkHgAAwDcoLL01fd35rqMTZm/KuVpeI+8GAQwSDwAAN6m6dSfpzLVvduQNm33viUwfR6ZMW3d+9/HighJkuAEAAPghkVFjdYmHsfJuAAAAngCJBwAAaOpcKKqaFJPVfUzi4u0Xym/clneDwONi8U39n1LiQdoLAABOUVfnyLpUueFgwYRlZ98dl/RWaNLYJWfWH8g/k1dZewdPZAIAAOAPIPEAAAA2gMQDAAA0XTIvVoYuufck7ti9l6rw7Avwd9buz089X679qU88kJ32an8CAICbFF2r3pd8ZeaG7E+m3Hsi0+dfpy3adiH+dGnlzVrZFQAAAPAF6urqoqb8I/FA22SRnQAAALgNEg8AANAIHDtbJpu+z8nz5SPmnnpvwrGNhwpqahEHg+9RXnm7+5hELfegJR7IQnba+w9XAADwHFXVd45nli3bdZHuUK+PjO83OTl6zbldScWXr+KLVgAAAHyGGzduzJ4zSUs80DZZZCcAAABug8QDAADYzZH00o2HCmTr34k/Vfq3Gal9J53YlVSMh1oAIyYsO/OXEUdF7kEkHmibLGSXXQEAwAs4HHfPX76x6VBB2PLM9yYc6x6SGLr4zNq4y6dzr+PmBQAAoClTXFy8dNl0LfFA22SRnQAAALgNEg8AAGArWZcquwUnXK+Sn1BRV+fYl3z148iU/lNSDqSWOLBoA0zJK7rZ8YvDnYPu5R46Dj1Mr7RNFrLLrgAA4H2ultfsT7k6a2POgOiTnYLiP5uZtmBL7pH0Un6/AwAAABqXnJycdevnaYkH2iaL7AQAAMBtkHgAAAD7uFJW3SMk8bOZaXpj7R3H9oSiPuEnPv86LfHMNf0uAEwYMOXkn7880nV0Qsehh+mVtskiOwEAgO3cqrmTcq58xXcXR84//fqo+L6TTkTFntuRWHSxGJlRAAAAjc+pU6e271iqJR5omyyyEwAAALdB4gEAAGyiqvrOX79K7jj0cPzp/8suVNfUrT+Q/+64pFHzT6fnVHzfHYAGOH627NXhR14LOtp5ZDy90vbxhn47BAAA7Cc7/8bmI4URMZm9Jh7vFpwQsjgjdt/lUzkV+AUjAAAAjUJSUtL+A7Fa4oG2ySI7AQAAcBskHgAAwA7q6hwj5p3qNCK+88h4+rPyZm3M7ktvhiaO/+bMucv4KTPgIm+PTeo49LAQbcu7AQCgiVFaUXMwtWT2ppyBU+89kelvM1Lnbs49nF5SXnlbdgUAAAC8Q1zcvmPHv9USD7RNFtkJAACA2yDxAAAAdjBjffZb9WvEE5aeWbD1whtjEiJjs/DQCeAmW44U/nnYEbqu6JW25d0AANCEqa6pO3m+fOWeS6MXnO46OuGDiBOTV2Vtiy+6UFQluwIAAACeY+vWzaczvtMSD7RNFtkJAACA2yDxAAAAXmfdgfw3Q+5lHV4eevjVL4+MmJeOVRXgEW7X1nUaGU+XFr3exkNLAAC+TG5h1ZajhV+tzOodfrzr6ITgRRmr9l5Ky66ovo0PNwAAAJ5kzZpVF/IOaYkH2iaL7AQAAMBtkHgAAADvciS9tFv9z/8KvTr8yLvjjnUKOhq8MGP38eKq6jtyAQCcYe7mXLqu6FXeAQAAPsu167cPp5XM2ZQzaFpqp6B4eqVtspThiUwAAADcZsmSBVdLTmiJB9omi+wEAADAbZB4AAAAL5J1qfIvI45qWQeuvww/OmYRMhDAdcorb3ceGY/HowMA/JXq23Vp2RWr9l4KXpTRdXRC7/DjX63M2hpfmFuI7w4CAABwha+/nnbzVoaWeKBtsshOAAAA3AaJB+AnVFbXrU66sjKhKCYeggJLKxOKT9n489QYa01Q0VtyuRFqRNk8KgEIKHILq7bFF01eldUn/ETX0QmjF5xeuedS6vny6ho8kQkAAIAloqIitKyDEFlkJwAAAG6DxAPwE9Ycu5J/rabsxh0ICkAdyCw/mFUmjwrvgLEGQVZk56gEIGApr7x9OL1k7ubcwdPvPZFp4NSTczblHEorKb1eI7sCAAAAfycqKpwlHsJlJwAAAG6DxAPwE2Lii/i6DwQFjtYcK5ZHhXfAWIMgi7JtVAIAiJrauvSciti9l8aIJzKFHZ8Uk7XlSGFOAZ7IBAAA4Hsg8QAAAPaAxAPwE7AYCgW41p+4Io8K74CxBkEWZduoBABw8opubk8oiozN+iDiRJdR8aMWnI7ZfekknsgEAADgXuIhjCUewmQnAAAAboPEA/ATsBgKBbhsW+LEWIMgi7JtVAIAzCm/cftIeum8zbl/m/F/T2SavSnnYGpJaQWeyAQAAIFIZOREKfFAFtkJAACA2yDxAPwE/1sMvVZZu2nXrv5DB//x+Wd/+/vftmjRgl5pmyxkp728CBTIsm2J02/GGg2irbv3fvrF3559vt1vf99SDLFnnn/2488/Xb99a8l1/I4F5K5sG5UAAOvU1NadyqmI3Xc5ZHFGt+CE98OOR8RkbjlSmF2AH4QHAIBAISpqAvvGwwTZCQAAgNsg8QD8BL9ZDBVat3Xb0+2fafPHJ/uN+GTKmumL9i5dn7qZXmmbLGSnveTDC0IBK9uWOP1jrH27fdczzz3b5lnDIfZUu7YrNq3jBSHIumwblQAAl9GeyNR3Ep7IBAAAgUIkSzxEIvEAAABeAIkH4Cf4x2IoqaSi5tOhf2v9ROsxs8etT91sJNpLPuRJ/rwSKABl2xKnr481GjKffTms9ROPNjjEWj3Rut+Q/lfKb/FKIMiKbBuVAACPoD2RaYj0RKbrrjyRqar6jmwCAADQNIiMGs8SD+NlJwAAAG6DxAPwE3x9MVSopKLm9R7dXurcMSZ+NV8JlUQ+5En+yD1AZTYucfr0WKPB0v3tt17q/LL1IfaXNzpdLa/mVUFQg7JtVAIAPA5/ItOkmKwtRwpzCqpkVwOqa+rmbs4tLL0l7wAAANDYREaNY4mHcbITAAAAt0HiAfgJPr0YqmnQF5+/1Lnj2pRNfA1UKfIkfyrFq4ICTbYtcfr0WBs6fETHzi87O8Q+GjKAVwVBDcq2UQkA8Db8iUwr9zT8RKYLRVXdQxIjV5+7U+eQ9wEAAGg8IqPGssTDWNkJAACA2yDxAPwEn14MFdq8Y0/rJx5dcVTxj9ghc8ePmDZa05rkjdou8qdSVJZXCAWUbFvi9N2xtm1X3GNtHndhiLV6ovXaLVt4hRBkLttGJQDATspv3D6cXjJ3c+7f6p/INGjayTmbcg6llVy7flt2vXt3V1Jxx6GHu41OTD1fLu8DAADQSERGhbLEQ6jsBAAAwG2QeAB+gu8uhgpdq6x99vn2yofOhy39qtn3GTFtdOyx9ZoDlaKyVAOvFgoc2bbE6aNjjQZIhxdecHmIPf3cMxhikLOybVQCABqLmtq69JyK2L2XxizK6Do6oXfY8a9WZm2NL8wt/McTmSavyvrzl0dIYcvP3riFH34AAIBGpra2Nnqq/BsPZCG77AoAAMA9kHgAfoKPLoZq2h135Mln2/IlUdK//8e/N2vW7MPhHwmJhdG5Oxfqfags1cCr1XSl7FZaRrZQRlYed/Ceci9fLSqt4na98osrGuzb0aTUv35k9sSbZ/7YjhvNZaVvviLbljh9dKzRAHm6/R/5+LI4xNo8++TW3Xt5tZr0Q6zBFEWDF16DV7uzsjLEvCGjI/3Tq69dLLzG7X4m20YlAKCJcKGoalt80eRVWX3CT3QdnRC8MGPlnksnzpb3Dj/+p/rcQ7fghP0pV+ViAAAAbKSiomLe/MlS4oEsZJddAQAAuAcSD8BP8NHFUE1DRwR9NOITviQqVkV//utfaH++0OUlvipKZakGXq2mQ/HJ9z/w4Gudu5Deeue9PfvjuY+XNGDgkK0793G7pouF1yaET26wb3QIPXv14XZNnw76jBvN1WDffEi2LXH66FgbMWrMJyMH8vFlfYgN/GIIr1aTfoitXreZO+jV4IXX4NXulCwOMW/I6EiHjRhdcOU6t/uZbBuVAIAmSHll/ROZvs0ZOC311S+PvhZ0tOPQw6Q3ghOD5p3Cj04DAEBjUVhYuHzFDCnxQBayy64AAADcA4kH4Cf46GKopg4vvjBl9XS+JMpXRT+fNKxTr9eXHlqp96GyVAOvVpN+HTMtI/u1zl1oIzMnPyZ2w7pN24NGhURMjtY86U+9xR23MrbyKNzEdl5B6aKlK036xt14/UKz5y026ZuR0WhV1Bdl2xKnj461lzq+7OYQa/dCe16tJv1lHDo+nK5YzW7lwpPcjK52Xhu3cKNyiHE35RBWGq00KsSPlCRq074JwQsqG/VF2TYqAQBNlqQz1/qEn/hkSsrro+JF4kGo88h42iV7AwAA8D7nz5/fsHGBlHggC9llVwAAAO6BxAPwE3x0MVTT71r9ftG+ZXxJlK+KKkVlqQZerSblyuOh+v/RDhk7MSZ2w/xFy0LHhaWePj94yBf0p2Zx040a+vnP//fpZ5794MOPjHqitxRerRT/jq10k+oXe4V27jn4m9+2pA1l37hR2Teflm1LnD461lq1bu3mEGv5+3sXmJH4FVtm+cLjbsqrnbtxi9JNOcSUbrxRbuQFlbXMTGsPAACAAElEQVQpj1ToaFLqb1v+Lq+gVFlQ2ai+uA/JtlEJgL9SWV23OunKyoQiuvX4nObtvfzhlJMdhx7+05dH6PXloYf/PPzIm+OS+s9Inbjm3NLDBbwIBEF+qZUJxacu35A/4EDjkZqaunPXcinxQBayy64AAADcA4kH4CfE+OZiqKYHHnhgzYmNfLlzvbVVUSpLNfBqNR2KT/7P//xRq9aPkl586eVzFwqFsUvX7peKymj71NncN9/uqVw81btpOYAeb72bV1BKOpJ4kruJ2sRT73v17rto6UrtyfK8CXL7es5C6tjWnftEcaUb74bYq4lqEAWVfdNqK6moocNX9s2nZdsSp4+OtQcefNDNIXb/A/fzajXxK7as/ocfzp6/pL8alRced1Ne7dztaFJq7w/+Sn/SVS0ubNETaQjo+2bSYWWj3Mjrl2qzMsTate8gEg+8G8pGpeK+IttGJQD+yppjV/Kv1fDB1cR1taJ20ba8ziPje4Ud7xeZHBGTtfNY8ZXy29wTgqAA0YHM8oNZZfJnHGgk4uPjDx1eKyUeyEJ22RUAAIB7IPEA/AQfXQzV9PvWrdz8d2yqgVerqcGVR27RLwLyBcqf/qxFu/YdhIaNGK2sTUh61gqvTe9Jf8YfS1O6cYtWUEhLPLjcN5+WbUucPjrWWrd+1M0h1rLV73i1mpTXZ35xRcTkaHEptnmqrXbRShced7Ne27pN2+nP2fMW7447qvVEGgLK6583wS1Gbu4PsXYNJR640Rdl26gEwF/xxTvOtco7+0+WnsiqQKYBgiC91hwrlj/jQCOxZ8/u5JStUuKBLGSXXQEAALgHEg/AT/DFqaleL3TsaPEB9F36dPvp//x0we4leh8qSzXwajUplwW5Ubnex428oLI2IWnl8cy5i8NGjD549ARtjwmdQLWdzyvasHmn2GuxUeVapJZ44N1QGstY33xati1x+uhY6/jyK9PXzuLjy/oQe+7F53m1mpTXp9JYxi487sYtSjethsjoGYOHfBG79lvJjdd/qaiMuznVKK9fctPLaIgh8QAAsIKP3nEgCIK4EBU0HTZv3nQ2c6+UeCAL2WVXAAAA7oHEA/ATfH1qGjQqZMCowXxJlK+KvtDlpWbNms3duVDvQ2WpBl6tJuWyIDcq1/vI+ItfPCJyA3zlMfti8VdR05S1CfGVx+T0zGEjRpNz6PhwK8ud7/R8X7hJ3ZAa4okHZd80Y5mqb74r2yYzPjrWaIAMDRnOx5fFIfbRiE+GBY3k1WrSX2MDB3++efseySguY7Ftkngwudq526mzuTNmzRcWpZu42hscYnxcW3RzeYgh8QAAsIKP3nEgCIK4EBU0HVatWnHp8lEp8UAWssuuAAAA3AOJB+An+PrUdHfckT8+144viZJ+8t8/bdas2e/atBKi7X/6p3+at2ux3ofKUg28Wk36hTwTY1HJjcjoGeKnIJ5/4aXU0+eF26uvdR7y+Zea0ciNN1FW/xWHN3q8/fKfXpWM5J+SnvVa5y7K2vTGpTFrxHKn1A2pIZF4aLA2fVll33xUtk1mfHSs0QBp36EDH18Wh1jbdk83OMS0n1GJO5QkjPwyFnbpwuNuyquduykvbG7kFqWbcrmfG3lBZW3KIyWtWrOJfP793/+/lr/7/aeDPlMW5I1qxX1Lto1KAPwVH73jQJquVdZu23Fw0Kcj2/2xY8vftG7RosVvf9P6j8+81P+jERvWx5VW4GlUUAAJUUHTYeHCedfKUqTEA1nILrsCAABwDyQegJ/g61NTmpi98GLHcXPD+Koo6af/c29hVGP5kVj9XipFZakGXq1HZJRRcFm5l69SnaRNW7/7dNBn3MG6jp3M+OiTgVTVGz3evlxczh0CR7ZNZnx0rNEAefGljpMXRfPx1eAQGzN7XIcXXvDeEIP8VbaNSgD8FR+940BCm7fs/eMzLzz5xHP9+46b+dV3y+embF2VT6+0TZYn//Bc2yefX7VyFy8IQX4pRAVNh+nTp9TczpQSD2Qhu+wKAADAPZB4AH6CH0xNt+2Ka/PUkyuOruaroiYifypFZXmFnpL+cS4e0c49B3v26kMaPOQLvtdZidqSUk7zXQEl2yYzvjvWaJg82bZtbMJ6Po5MREPs8TZPeHWIQf4q20YlAP6K795xAlwlFTWffTbq0dZPjR+5fOuqfCPR3tatnvz4r8OvlFXzSiDIz4SooOkQFRUhZR2EyC67AgAAcA8kHoCf4B9T0+FBwZ3e6LI2ZRNf/VSKPMmfSvGqoECTbZMZnx5rNFi69ui+/qQ8lIxEQ+zPXf4yPGg0rwqCGpRtoxIAf8Wn7zgBq5KKmu7de778Qve1SzJ5skES+ZDna6++fbW8hlcFQf4kRAVNh6iocJ51qE88hMuuAAAA3AOJB+An+MfUlKZq7/Ts9Xr3rjHxa/gaqCTyIU/yp1K8KijQZNtkxqfHmhhi3d7ssSax4fReTPzqv3Tr9M67GGKQi7JtVALgr/j0HSdgNfSLUa+82H1zzEWeZlCKPF9+ofsnHw3nVUGQPwlRQdMBiQcAALANJB6An+A3U9OSiprhQcFPPtX2q4Xqh9EL0V7yIU8siUJCtk1mfH2siSH2VNu2U5d8vSFtCx9cQhPnTXriqScxxCB3ZNuoBMBf8fU7TgBq2664xx97as1i+bsOE0atCv5isV4blmZre8m/dasn163bzSuEIL8RooKmQ1RUGM861CcewmRXAAAA7oHEA/AT/GxqStO2F158qX2HDsNCR87dtGj5gXs//ECvtE0WstNePHQe0su2yYx/jDUxxJ57/oXhY0cv/HbpioNrNqRtWbp/1ewNCz8PGd6uw3MYYpD7sm1UAuCv+McdJ3B0rbK2Q4eXlL/r8LOfPNDs+yyemah3oFLPtH2BauDVQpB/CFFB0yEyciLPOpDILrsCAABwD0XiISpqAgRZVPfur1++fFm+hhoD/5ua0tRrd9yRoFEhL7/yp0cfe7xFixb0SttkITsmZpAk2yYzfjPWMMQgb8u2UcnvzhDkpppIgOc3d5wAEd09n3n6eZ51IH32SfTHvcf9d4uHmzVrRhuktexbEU8+8dy2HQd5tVzn84rSMrJJOZeu8L3ua/6iZVNnzJGMRo2ePX+J12BFLheEfFSICpqOIqNCedbhXuIhKpQ7B6C6d+/aFGIAAIB/oEg8REaN5h/BEKTUqNGDevXq3hRuS5iaQgEu2yYzGGsQZFG2jUpEbpDH1UQCPNxxfEsjRoUM/GgCzzpoatXymWbNmnG7UP8Pxw8eOJJXK2nvgYQBA4e81rkLacjnX+YVlHIfN/Vhv/67447qLUaNllTUPPb4H3gNDcrZggeOHPfGkUJ2ClEB5CsaM+Zvf/pTx0aPAQAA/gESD5BboqulvCIVU1MIanTZNpnBWIMgi7JtVCJygzyuJhLg4Y7jW3rppVdmTNrFMwqazBMPVLZ9u468WklPtHmy+NpNsd2ufYcL+SW0QZagUSFCmdmXlRZS9PTZ6WdyGnRr81TbYycz9EZlo6TDCSnvvtdbbCvrN2pCKqh00ywHj57QGo2eNksrMm3m3NLrt/WVQE1ZiAogXxFdQtfKTiL3AADwCEg8QG5JXC2YmkJQo8u2yQzGGgRZlG2jEpEb5HE1kQAPdxzfUqtWj66Ye5JnFDSZJx6obMvftubV6lVw5fpTbZ/R/tyyY68wDhg4JCZ2A2nZyrX9Pv6UW4TbD3/YfFTwWHO3opIbzZvfJ7kpG32tc5c/PNHmV7/+befXu5VU1PD6jfomFTRy0yxvvfPexi27pMMvvX7bqe9MQI0uRAWQr0hcQsg9AAA8AhIPkFvSrhZMTSGocWXbZAZjDYIsyrZRicgN8riaSICHO45v6YEHHvx2RR7PKGgyTzxQ2fvvf4BXq9fV8upJkVNbtX50z/74/OIKYdyx+0DvD/6aV1BK2r3vyNvv9iK3U2dz9Rbh1qt3X/HAoqTkU3369iPLR58MFJWUXr+dmZNPG7v2HtLcjialitp4o2RMy8ju0rX72g1bqS1l/cJN6gkvqDwEsnzcfxDtulJ26w9PtNHchFHrm9iGfEKICiBfkXYJIfcAAHAfJB4gt6S/Whp9arojrZReISgAtTO91LbJTAzGGgRZkJ2jEpEb5HE1kQAvBokHn1Lr1u5+4+F3LRv4xoNQ6fXbL7zYse9fP87KLaA/J4RPbvm737dr30Fo8bJVJ0+d++yLEeLPh3/+i8lTppPbxIjIuQu+0ddDBSULKWxSlGacOXuBKMsbFfrDE22ulN0S27x+krInUsEy1SGsWLU+dFzY1p37YmI3jAmdoDUxb+FSsa3vG+QTQlQA+Yr0lxByDwAAN0HiAXJL0tWCqSkENZZsm8xgrEGQRdk2KhG5QR5XEwnwcMfxLXV8+ZXZU77jGQVN5omHGZN2dXiugd94WLFqfcGV62K7718/3rM/nja6vfHmsZMZerc3ur+lWUzcyJKUclpvuVe2x9tSWWWjpPziiqefeVZfm1T/vdpUPZEKGpVt/ehjAwYOmb9omWZZ9E1M6Phw2th3MLFd+w5aTyCfEKICyFckXULIPQAA3AGJB8gt8asFU1MIahTZNpnBWIMgi7JtVPJ7MQS5KX5RNUqAhzuObyloVMiwz8N5RkGTeeKh/4fjhw0P5tXq1frRx65V1ortNk8+VVRaRRutWj+qGYePHKN3mzLt6/sfeJC78dpEQWUT3CK2t+2K6//p37TaeP362vQ9kQpKZUVPLuSX/Od//qhnrz4k7SepSWNCJ5AlMnqGVhvkK0JUAPmK+CWE3AMAwGW8lXgoLEoMDh7I7ZCfSXm1YGoKQfbLtskMxhoEWZRto1J5L4Ygd6S8qOwP8HDH8S3tjjvSvv0LPKNAeu6PXVq1fObf/+2HzZo1ow0SfyjT0091oBp4tXrNnL2gVetHSU+2fTop+ZSRUbPErv32iTZPkuXchcIXXpS/TsEL6t0Kr1aSXekmlHv5as9efch4rbJWWb++rNYTqaDkJpqg2t7v8+Gh+GTSd3sP63/LgcqSkRz0v3cN+YQQFTRNYeWKS3kJIfcAAHANS4mHmtuZV0tOiO3aO1nFV47xjyGhyhvpY8YMeuyxln/+83M3qk5xB8jPxK8WIUxNIchm2TaZwViDIIuybVQq78UUkuVeOEi6dPko3wtB5lJeVA7bAzzccXxL1yprX3ypY/SkVTzx8LOfPNDs+yyemah3GD9yeYcOL/FvDASmvtt7ePCQL0TiIXbtt6PHjBP2jKw8boR8RY0bFQgVFiVSYGCynhM4wsqViYwuIeQeAAAuYCnxkHJy6wcfdBfbdKPq2vVl/hnkqJ+KREaN3LxlAd8F+avoajHSqNGDunZ9zeFwyFeYd8DUFApw2TaZwViDIIuybVTyyE2EZBSwkXr16pqQuIHfwSHIRDyua5QAD3ccn9O2XXFPPvX0huVZPPdgojWLM//weFsqyysMWEVPmyWeszR73mJzI+QrasSoQCgtfUf//j1feaW90XpO4AgrV+bit/5/xACjBr/66qv2xAAAAP/ArcQD2UPHDiFNnTZG/PnYYy31Fk07di4R9lWxMwqLEjdumkfGJd9Emrjx+h31KXph0RS3fyV347VpjXpE+trKyk+K3ur7pvXESt+UbsomeEF9WfPaNB8hOm/6/nhJUVET5MvLa2BqCgW4bJvMYKxBkEXZNiqtR24O4+goYtJwLZ7hEYgytJDclLUpy7osKZ4x75s4UpOQTHkI+vpD6+MlflzK+nltRo3yJsQuH5JtAR7uOL6o4UHB3bq9vXXVJZ5gUGpzzMVX/9SDSvGqIMif1IhRgdBnn/WlO47Jeg6/35m4STdBpZvyfsfdlLW5I5M1E9FEisHKFe+b1nmpb0brOSaNGp0Qn1NUVJR8zQEAgDGuJx5ycg8MG/YR3SRIy1dEh0d8SW4vvviM3qLVQDe5CROHzpsfRmVFbQsXTZozd6KJG6/fUZ+aFpbf//5XK2Km0saevSu4G69NfwjuS3lC+OErD0GowSOl2h588H9EEr5bt1e04EBf0PH9d8GkNn7ezpzdrT8iL8m2eeldL0xNsy8Wh44P53Z/VUzshp17DnJ7oMl333fbJjMeH2uekpvXsJvF/Vu+Oy5ck6cuBttGpcXITcgoOrrvvh9q8YxUVhlacDfNEhw8cPWameJrFsqyLksfa5GoCWX9IogKCx+mGY3cpENQxkv8LPH6lbUpG1U2wY+0icu2AK/J3nEgE5VU1LzTs1e3N97ZFHOOpxkkrV2S+dqrb77zbi8qxauCIH9SI0YFQlLigd+kLN7HlTdB7qa833E3ZW1uymTNRGuUr1xZdONN8DUZZW3KE8I73/SFxAMAwCmsJh5+9KP7HnusJally0fEJ2nN7cz8gviy8pOk1LTt0vSVz3K1mxy59ez5+oAB70n59rXrZkVGjbxVfUYYef36Lj3/fFuyi75RbUo33qhwq7iepq9KErXboBv5zJk7cdHir2j7lVfai4ck6ptIP7Xzvfe6GPVNOlLleSPjP//z/5sSPZrK3n9/C62sFC7wskaNCmnnzR7ZNi+964WpaVpGdrv2Hbjdd5WZkz9g4BBuFwoaFWLlW9vrNm1v0I0aolOn6VB8Mvfxtqz0k0R9k/rpu++7bZMZj481IYtvmYmnxWvYSO4UN+pSo0g/AKlj3EGSlc57aVzwAWizjI7dnYtBL9tGpTJy46GFwzgCeeedTjt2LtFCCymQUNbGjaIgzcO3bF1Y5zgvdpmHc3pZCcD0jWqleP3k1qPHq6Iek6iSH6lWrT5e4meJ1y96IgWHJvVLTficbAvwvHTHgbytkoqa4UHBTz319Izo1dti5WSDpkljV7Zp05Y8kXWAAkGNGBU4WADgUN0Elfdx5e1eeRPk91kh5S3VvDalrMQJDoMj5Y3ywIYfgv4UiRUerRVprYnXxk+vVtanAwAHEg8AACexmnjgn6SVN9KnThtDH5qkp59+3OgDV0j6XG7R4if3399Cv4AuaqObhFaW16/vkj7xQLUJN1Jw8ECTRoUP/Um3DX1tetGUUrjR9JLv1btFTBpO9WuHzJtQ9o0fqfK8CSMdQrNmzWhbO3wp8XDufJywkFbFzpCOVDohDttvcrbNS+8aT00TfvsYF3fj8tJCWyPK/IjyCkrziyu4XdLseYuDRoVwu9AbPd7OyMqjhto81ZZehV7r3IWM3NmrMu+nEPWK+ib10/wsNYqoV3RiuV2SbZMZj481IStvmbmnxWvYSO4UN+pSo0g/APv2+2R33FHuo5eVzntjXCgHIHfzqoyO3Z2LQS/bRqVTkRuPQCiWoFeKW7QIRAskTAI8vZHq1CIQio70kYZ5OKeXlQBM36iQsn7eYSM36Ui1avXxEj9LvH6xLQWHTSok86xsC/CM7jiQT2jbrrgXXnzpuQ4vBo2IWDJ33+qladti82MXpS74eu8Xn4W1b/8C7cXvOkCBo0aMChy6x1zr7+PSTUp5H+e3PG5xGNyOhfgttcHalLISJ/BQx2G5UX4I+lPU9fuLSPplGb4mIxo1igF8OgBwIPEAAHAS1xMP3MgtYvt0xq6QkMH0cax3s/Kf+8rahLQPa72bXspGjWpzTSIrYPEmqsncTTohGzbOpVYyznwnjNJBiSKJSRsff7xljx6vfvjhm0aNarL5JhcZFRoZGRYZGbFs2ZI9e3afPn26vLxcvuA8hNHUlC99cktJRU1M7IYHH3pYiLbJIhbvoqfP1huVnkqjsri0eEfbZLFeXOkpqpo9bzFdjeb/omuydLg0Zk3z5vdpxZUNiV5NCJ88YOAQ2igqrdLXkFdQqi1xKg/T+hG578n7adQlpVFZJ29daVQWVzZkvTgVoRNLp5dOslYJl22TGY+PNeVbZt1TyMo1LHVGL6m48o1Q1qnsktLTqTq5UXTMhZFucr3Z1nmlUeqnSFsaefLWlUZlcSMjP3YhK9eSsnX9uyDkpVFJd1K6n+7Z892yZYsjI8MjIye6Gbm5FpJdzj9Ks2iaopP69Xtbc6PQJWLS8OqasyY9cVk8yFHWz43conTTquWrJA3+b6OQPjjkvdXL5pDMs0LiAbKoa5W1u+OOBI0KefmVPz362OMtWrSgV9omC9lpLy8CQf4qL0UFHB4VXLl6fMLEofsPrHIY3ASFLN7HuUXpplXLb6kN1uaylLVxI7dYd3OolmWkNRmpNkk+HQA4kHgAADiJZxIPvXt3M/lclrLrws2pWa6oX2wLKRMPV0tOTJ8RatKovn59ba6JDiEoqH/N7UzxJ29C2TdzN5MT4mAHJfYeOryGwojCokRem/6ECDXWTY66dyJ5y9ZtS+bNnxwZGRoZOS4yckJkZFhUVMTq1SsPHTqYnZ1969Yt+Vp0BqOpKV/65BblOh2pefP7tMeaK5eqBwwckpmT73Jxc2ODxUXrYnvdpu3tGnqsilRckv7RIsqGxPNbfvmr3zz40MPtvv9cFNpFxbXWqXir1o9u3blPqGevPuIsNXhE1o/dxFPZT6PiSiOvU/K0+X0X23R66SRr7ziXbZMZD441k0tLejKYOBVKT00NXsN6Zy6pOH8jlHUqu6TsvPU6ldeG2HZhpGunjnfJzc4beVo8IskoZOTJWzcyKovzLimPXZPJtWTSur4GIXdGJd0T6c5I98fVq2PoXnkvuxA5PjJyLN1D583/auu2xXRXpXsrv+EKKaMIbiTLI488pI8ijNx4bY76r11SZELKzNqrd9uxcwkFSLwnPJxzVvrauEWrXxzXru+WOlSHoHdTHpeDrZJIZ4nXrxXUB4dNMyTziJB4gCAIclbuRAVO4cJ6jrhJNXgfN7kJKu+zQg0mHnhtLovXrzRyi+Tm1AKXg63JSLVJMYBPBwAOJB4AAE7ieuLh5q2MmV+PFT/8IL5ir7d07PhsTu4BcjubuWfQoN5Xrh7XyoraLucffeedTppbyvd/RqJ58/+YMXOsVL++S9qHtfVGtfo1Nzclcifan7wJZd/Mj1TvJp1zflAO1ZEqG9XU1G5ydY7zeRcPH41fv279vBkzw+qXVMaLnMTMmVPXr18THx9/8eJFh8MhX6YMo6kpX/rkFqN1JW7Mvlg8YOCQ2fMW61epyP7LX/2GjEK0zYuHjg+nsqK4+M1SeqVtsjhbXGrduqQ6JekX2kwams2eTJKZk0/di4ndoFmooZ/+rEXPXn2EklJOCyM/IuVJNjJaPEtiW+qnUZ0WjcoTYr1Lbr7v2p90kslitIBu22TGnbGmPJNCyktLOj9GnkImi8VWZFLc5DIQ4l3inVfWqeyn8tqQfEykbKhM1SXh4HLnlZ7Ks6Q8IqNj5w05ZbTYkBA/dqEGLwalkdfT4Kikuxvd4+Ljj9L9bubM6PrvCE6oz82Hzpg5cd36uXR/pLuk9pxl61IGAzwCGR08qFmzZvzZC1IEoqxNLz6N3xe38vPPP5R6wsM5Z6VvQkhZP7m9/nrH4cM/1jps5MbjWyFplUQ6S7x+raA+ODQ/b00tJHNKSDxAEAQ5qwajAk/B13N+/etfSAHAnLkT+U2qwfu45sZvgsr7rJD+fmexNpfFQx3lkXKLQ3UIfIXHoVqB4RapNum4fDoAcCDxAABwEkuJBxtEH9YhIYO1P+k+R3cI7tZERHeRceM/F1NQZ+VbR9qIopN8Pnv/wUNrYlfPrn9kk8hJTIyMDJ8/f/a2bZuTk5OLioq069ZoasqXPrlFuYSkNArnoFEhQprlwYce1oykvIJSo6Uu8Q0A2qBX2na2OG/duozqFNIvtAlnZUN8nU54imPRLLwhK0aTM+/UWSpj/TSq06JR1CCdEKe65Ob7rlWitc5l22TGnbFWpjqTQtJbRmdDf3LoXGnO/CIUCjJeLLYik+Iml4GQlc4r61T2U3ltSD4mUjak7JJwcLnzSk/RAc2oWfgRGR07b8gpo8WGhFy4lkxa5/Voo5LuVnTPojvX/PmzdNmFsZFRIXSPozsd3e/orsdvhZ5V4EQgPD/hWSnrdyc49Dkh8QBBEOSsbIvV+XrOY4+11P+5cdO80LFD+Ge7RSlvgi7Ls7UFTqjTiELiAQDgFE0l8eBbyrt4mO6O4vuAkP3KvXBo3fo5QUGfvvTScw899GCPHt2ioiLHzvu28Golj/D40ie3KJeQlEbtz0PxybPnLdb+dZ2vaimNZQYL0NxTadSkb11Ydu45SBWK/6k3knmd+oU2Tbwh5TpdcnomGbXWlQ1ZMZqceSvF9ZL6mV9cETE5esas+bRNrz/9WQtep7IhYdT+bMT3nU4vHRGdar5LyLbJjNEyEB9Z3KKpwUvL5I1QXoRlpovFVmRS3OQyEBYrnbdiVBbXy4WRrmzI5HwqPa0btT+dHSwufAuqQaOQ0ijkwrWkbEg6dhLdj7Z/t//jL8fRHYruU3S3onsW3bno/sVvapDHRXHagoUR3O4pKesPqOAQiQcIgiBnZVusztdz9GvxpBPJWzZumsc/2y1KeRN0WZ6tDbJBSDwAAJwCiQeoicqD33jgknyUS0hpqkd4u/xMc015BaURk6NpF72K/2K2XlzZutie7fxPzkrSL7SZN6RcpyMHKiIerqJsyIrR5MxbP0tCvJ/6M9+q9aO8TpPWlSfEqS65876X1a/hDqj/CVy+S5Ntkxl3xpryTIptk+VvejvoTTHy1GSyWCxOLy9isbjJZSC2rXReWaeyn0qj1pBTI51aJ+ei0ipll7Q6rXSejwulp/IsKY/Iyglx06hsSDqfzl5LyoaEkdfT1L7xAEGekp2Jhx1ppfQKQRDk09qZXmpbrI71HMirQuIBAOAUSDxAjSkbfuPBikoqamJiNzz40MNCtE2WtIzsNk+1jZ4+W29UeiqN0rKUXtLSofXiSk+xK7+4gorQK29OEzn8yw9+oBUnZWTlkX133FHabt78vh//+L+E0byhoPpnqlApqf7si8Wvde5CxZWdVxqVDVk/88o6hZT91M6SWCU0qtNi60qjSZdcft/plNKJ1f/Yg1K2TWY8PtbELukt03vS20Fvirawy99cp65hLl5ceiNMLhhll5Sdt16n0qg1JK5h6RD0StONdGq9qLTKqEtanVY6bz4uNE9l5900Kk+d0qgsrjQqj71MdTEoiytb1/7U1OCo9N5vPECQV2Vn4oGPLAiCIF9Ug1GBp8B6DuRVIfEAAHAKJB58UoVFicHBA7m9yYo6fCJ5y9ZtS+bNnxwZGVq/qnIvuxAVFbF69cpDhw5mZ2ffunVLvhadAVNTv5G0oucpiX/6FhIJEu7j07JtMoOxBkEW5c6opHsi3Rnp/rh6dQzdK+u/8De+Pj0fOm/+V1u3Laa7Kt1b+Q0XgmwQEg8QBEHOyp2owCl8dz3H51Y5XJZPHykSDwAAp0DiwZdUeSN9zJhBjz3W8s9/fu5G1Snu0NRU/4iksMjIiGXLluzZs/v06dPl5eXyBechMDX1G0mPavGUDsUnt2vfQUg8EsrPZNtkBmMNgizKS6OS7qR0P92z57tlyxZHRobfy0kgcoNMVXM7M/fCQaFLl4/qdxUWJZKx+MoxXspESDxAEAQ5Ky9FBRyfiwp8bpXDZfnHkSLxAABwCiQefEblFamRUSM3b1nAdzVZ2TYvvYupKRTwsm0yg7EGQRZl26hE5AaZK+Xk1gcf/J+uXV8mffzxO5o9LX1H//49X3mlPdl5KRPZFuDhjgNBkN8IUYFSvrjK4Zr85kiReAAAOIXVxAPNWELHDiFNnTaG7xUqLErcuGme2C4rP7kqdoayLLmJP/W18bLcIjWnFdRqIxk1KrRj5xK9m7IJZUFeVnPTLHPmThRuuRcO8kOImDTcpFGlpJ7Qn4891lLqm3b41KhRQeEm9UQ6b6S4/St5Weu9Vcq2eeldTE2hgJdtkxmMNQiyKNtGpVORmz6e4eGBw+DWz2vjgcSGjXO0bX2jVkILpZE3amSUpAwOjQo2eEJM3JZ8E6mMtUwOgbsZNcrLchmVlURVffBBd27/7LO+FP5RDInEAwRBkLfViFGB0c1CeYMW9zvz2z2/33EZNSpJucoh7JKRW7hR31tzN34ISqNSvDatUSHl0orySJXnnB+pPvC4VX3mzNnd1ISJm8M0xtDXZhJjGAmJBwCAU1hKPOTkHhg27CP6bCItXxEdHvEl//RxfH9Wo81heFlye/HFZ6TaeFlu4S2Kglpt8+aHGTUqnGl+NWHiUM2NN2FUUCqrd9Nqo7uIcNOmcPr677vvh0aNak3oxXuiPG/lFan0Z+fOL4l7m7KgvtHg4IGr18xMSNwgCpJ+//tfrYiZSht09+JlLfbWSLbNS+9iagoFvGybzGCsQZBF2TYqnYrc9PGMxUBFWRsPJEg8UOFlef3WG1UauXhwaFJQeUK0eMnEbeGiSXPmTuSxlsP0ELib8l1QluUy6bDSTRISDxAEQbapEaMC5c2C32hS6r8eFxY+TH/rUd7u+X2cS9kol/6WbXK75xalm8XaxJGKLx906/aKUSjCe6usjZ8io6UV3jd+znlBfd+ef75tWflJ2jXks74mbtohKGMMYZTCGOtC4gEA4BSWEg/884t/+gi3nj1fp89BUmradqOPb71b+qmd773XRV+29k6WcKu5nblo8VcLFkaQ8Y03/mT08Flev5Fx7bpZkVEjb1Wf0Sy8CWVBXlbpZpJ4eOedTjt2LjFqVNQjiTfBLZozNbpl60Kq8EbVKaN3gYw0YSa3Osd5fUPi1iW2qW/5BfH6shZ7ayTb5qV366emO9JK6RWCAlA700ttm8zEYKxBkAXZOSqVkRsPBhzG8Yw+UOFl9REIxWlSMKAFEuYBnr423jduVIY93E3fE028LLeIbX5CjOIlKcAjtwED3tOv2vMmlL3lRovvgr4zmkw6LLn96Ef3UaSqf640D4yty7YALwaJBwiC/EWNHhVINws+9ye3Hj1erbie5mALDg7d7Z4Kzpk7cdHir2j7lVfaGy0RKBvl4ndPh6pveos+xjC585q7/fM//78p0aPJ7f77W2iNWjwu3mEh/dIKd+MW4Sadc37sDt0iUrt2bRISN3zyybuHDq/hcQIPHrRGeYwhhTHWhcQDAMApPJx4aNHiJ/RpS3r66ce1DzX+gau50Z90P9CXXfJN5LnzcVoTNM1r1qyZ9vHNxetXGitvpE+dNoamWHo3IX0TvKCj/ieApLLUQzH/JK2KnSHcjBIP5EyvdJhGjSrFe8It+tqodTp7/fv33L5jsXZ6ScHBA0VtZIyYNJy3qL87iiOV3kFRv3lvjWTbvPQupqZQwMu2yQzGGgRZlG2jUhm58WCAxzPKQIWHc/oIhEsLJMwDPK0nvP4GG9UHePy4uHhZbnEYnBCjeEkK8Mjt/vtbGCUeqE7NTeqt0ZGavAvmR2rUYcmNH772gAUpqrQi2wK8GKS6IQjyCzX6vyPwmwWf+ytvFpqe160b7Ni5hGqjm6BJeKBslEvZKO+bo75RYXnkkYeMyurvnl11oQh3I4tY5aBt7UgtHhfvsJD+FHE3blG6KY9dSHT44YfvFwV5nKA3NhhjSGGMdSHxAABwCg8nHrgbN3KL3o0+IrWP/tMZu0JCBtPH64KFEbw5IfPaNCO3iG2pCaWb0piYtPHxx1v26PHqhx++KSxGiQe9RdmoUrxRbtGcRRO0sXHTvP7939PcpNo2bJxL99HqmrP6XeZ3R4e13hrJtnnpXSyGQgEv2yYzGGsQZFG2jUrzyE1pNAlUjNyk2jRpgQQvKBmFGnTjjSrdTMTLcouJG4+XRCxE83aT83Y5/yhN+6dOG0Pq1+9to/Nm1KjJu2Aiow4r3cS2aOLK1eMTJg7df2CVZuGlTGRbgIc7DgRBfqNGjwqkmwW/NXCLvhL9uoHDwv8mKhvlUjaqNGoaM2aQeEoSd+MWEzfqGx1Fxpnv9PVbPC6pCSHzpRVuse7m+Hsocv/9LQYP7k2Hr3fTxMsKizLG4OtUFoXEAwDAKZpu4iHv4uGgoP708UrGRYu/mj4jVGpOyLw2zcgttMGbULopjYcOr6EJW2FRomZRJh4eeeQhyY03KmqWxBvlFs3ZKPFwteSEqF8ru2PnEmpd35DR3bF3727W3wUj2TYvvYupKRTwsm0yg7EGQRZl26g0j9x4MODQhRY8UFG68do0WU88iLINuvFGlW68J5p4WW4xd5PiJenLAcKNz9jPnY8jT1Jm1l6j86Zs1PxdsHKkPMBTujnYkWoWXspEtgV4uONAEOQ3agpRgf5mob8RiLm/uB/t+m6pQ3Vr4IkHqqrmdqbeRy9lo1zK+xHvW97Fw9r/QSrdTO5u3MgtYtvhzHHxskZLKyaN8nPOj92hW0SiJi5dPhoZNZLCEs3NtRiDhzEWhcQDAMApLCUebt7KmPn1WPFk2I4dn83JPcA/fRyqjzll2RTdc2a12jTjqtgZ57P3G30ucyndzBtt2fKR5s3/Y87cibwsL6jvm1Z27LjPBg3qfeXqcX2j//qvPyCHn/zkR/TJLtxGBw9q1qyZ9DV23qj+cDTxnnCL5kz3DGqU7B9++OaFvEPcTd/ovriVn3/+oVZWf3fUN6E9JcBKb41k27z0LqamUMDLtskMxhoEWZRto9Ji5MbjGYuBirI2TfrEAw/weFlev/VGlUYui7UpTwiPl85m7pGiPlH/5fyj77zTSdkN80b5ogB/F5RluUwCPMlNemt+/etf8MCYFzSSbQEe7jgQBPmNGjEqUN4slHP/11/vOHz4x8pbD088iP99NJKyUS7l/Y73rUE3LcZwORQRavC4eG3aLqOlFeHGLY76sySdc37swk10WDSxcdM8iliUtVmJMRoMY8yFxAMAwCksJR78QDRpDAkZrP1Jdz7r8yvXytLNIHTsEG4PKNk2L72LqSkU8LJtMoOxBkEWZduotBi5uRbP+LEC+YQ8Vv89XU3ORq22BXi440AQ5DdqalEBl37Z2kQ3b2WMG/+5WMv2JzXKcVk8501KSDwAAJwiUBIP9utE8haaxXF7QMm2eeldTE2hgJdtkxmMNQiyKNtGJSI3yFnpMy4O56NW2wI83HEgCPIbNf2oQP84IxOR2wcfdBdPB/InNcpxWTznTUpIPAAAnAKJB8iLsm1eehdTUyjgZdtkBmMNgizKtlGJyA2yWbYFeLjjQBDkN0JUAPmHkHgAADgFEg+QF2XbvPSu96emoePDsy8WWzEKkZ32cnsT0YxZ85NSTnN7QKlpvkf0vtC7w+0NyrbJjLfHmp9JP9ZcfnO9pKY5BLynmNgNO/cc5HbvybZRicgNslm2BXi447imBj/e3YkDvfFZ6o06va0GT7JFeePYrdTpvZjESuuBKUQFkH8IiQcAgFMg8QB5UbbNS+96f2rarn2HtIxsI+Oh+GTaFqJtspCdtnk9TUGz5y2OmBydV1DKdzmrzJx87cC1Y7dZ6zZtpyPidkm+8h7R+0LvjpUjkmTbZMbbY00v/ubq30cSXYG8lLl4nd6TNNZcfnPLvj/W6BC4gyQrh+mlIcDHms0yOvagUSFKu/dk26hE5AbZLNsCPDvvOG7K6JNHkj2fkOYf727Ggfyz1OKxm4jX6Y4a9yQ72zo/dnvOp5sxyYCBQ7hdyErrZdYO04cmGlaEqADyDyHxAABwCiQeIC/KtnnpXdOp6Zq0+DZzB/8wrBu90jZ3sKJ2xomHjKy81zp3oQ0h2iaL0WykKcjifMCK6DDbPNVWOnbu5lXRsdARcbtevvUeWTkiLtsmMx4ca2/0eNv8guGnoqi0it44mu5OCJ9MGyUVNbyUuXid3hMfay63rh9rfft9sjvuKPfRy0pD3hgCyrHG3bwqo2PPKyjNL67gdu/JtlGJyA2yWbYFeB6843hbRp88etn2CWn+8c7vTU6Jf5ZaOXZz8TpdVuOeZBda58du2/l0uSHlsWvySOsiREzznYkGdZjbJSEqgPxDSDwAAJxCkXiIigqDIA/pK/ny8hpGU9PY1CMtJr814NvgsLivwvcvemjK+3x2WlJRExO74cGHHhaibbLojdHTZ4uoV2mUgm+RjRCBMvkY1WluVBZXNmS9uCglRc/K4ppns2bNzKemyi4pW1c25L4n2SeETx4wcAhtFJVWmXRJaVTWyVtXGpXFlQ1ZL64VdGFRwLbJjKfGGh27mEAqz4/yzdWkPz/KM2m9TqWnU3Vyo+iY0UyVv7kujzVl67YdptIo9VMsHBh58taVRmVxIyM/dqGlMWuaN79PO8nK4srW9e+Cs7JtVLKbLwR5WzYFeOZ3nE83j4nYHzlp/+IG7zj6YW79s5QbjYrzTx4rxU0+IZVG5WeUdU/RqJU40KQ4/yy1fuzW6+TFtc47e7u0+SQrW1d6Cgd+7HaezzIPxSR6WWldeZia8gpKtX+wkBpyNoB335P3U9kl2qAOU7fNv0iEqADyFyHxAABwAkXiAQBfxGhq+uvpH3y4ftjEfROFwuIWtJk7WPKRvi+sBbVaWBk6PpxiaCtGfXHaqz37lddJokapaZeLmxt5cbEtTTiVxcX2uk3b2zX0UBdybtX60a079wn17NVHHBFvXdmQm57i+9e//NVvaIbQzuABSs7WKXk2yntUppoHNijbJjPujDX9qaCrha4ZyVhm+uZqkhIP/Ewq30dlnUbD32Kdys6LbWmsaeJvrsWxxhtSdt7NwzTytHjsklHIyJO3bmRUFuddUh67JumyUdbJW9fX8P+zdy/QVVRpwvdZq9c73/tNfyNOO20zsxToebt71FbUlpuiooLd44uINHhDxlu3FxppvCAgl3AHJRgFG+QiKGq4REAaUaIgUVBCALkECAQIECSQAMkhhFsIid8je6yp7L3PyUlyTp3KOf/felZWZdeu2rsqqZ2q/eScU9vw7KoE4lWwvzhXTKr2F2fslzND/8UJuIY4+eujPt5Avjr3LWZN6yBjrWkdeYLVVH/73GNLsJrWodgco4L106yplkPfB9a4eaD6WBr+sddqn+axq+Vw/lzG9iRrNVVYazprY3g+tZoqwjnJ1sN0IsRf2xr/WMsq2dxpPbuBPGioZem2dD43+LuAclcAAEhAJB4QJ4I9mv7jqE5Dl49wHk3Hffla4zFdzWpyjyi3yCrk/jLEXWl9CvMOFMkNtzThvsOWcmkxdOvDLnyKtdpcfVybfJVlKQl/c7U8JeQDp/vuOZyQypf+ook8BqhQT/LW1q0NBSuM+BGFX+iHn1HA9hxYY3j2MFOfa8191O7Eg3l+VB3th+tEiGfaED/HYPus2+Wvop6dDz+sXQrYOq8qmK2bNcPfp/V8Wo892FkyG6pVYZgNqTCPXUWNvzbWQnM/4YdnVyUQr8L8i/PKVynWvzjm0BG4kG947sUBUiJfnfsWs6Z1kAkxSmgjj3WfqnX586eGIzVBGaymORRrrVvvr5zWw+9njZvXeIti7tM8olrt0zx2d3M1RgxPcjg1Qx97wNvzabYeTlgP0wn3Pq33Dyq0wwxc6KccSOq8RU5JdgN50HC+lc7LtsFyD9wVAAASEIkHxIlgj6bNUx5w/0/cX5YMNf8nLv9QsdxQOtG0WXPzBjT0/WuYhYELd6tOQ06JtOjugPRH29wJ9c8+geqTtuFvHqjl3XONYW0onMIQZykaRxR+odqD07RTEn6X6v8zCtTpOdCzh5kIXmshTq+qbz6UqnCfn/B/jtZ91vnyV1HPzocf1i5ZO68q1PkwrTVVB5xCp8Q89mBnyWyoVoVhNqQinDMfrCGz0NxP+OHZVQnEq/r8xbEOHWrVlOpvJmOtaR1kQowS5t2IuU9nrdweuBsya1qH4nC6ZC0M3c8aN9dioPFXzNyneUTh79N67OYmNUZMTnI4NbVwH7sKL8+n2Xo4EX7rqrLTurtp84+1qqlunp0Ss6FwCq0/DqewVufT/HGY+3S+Vb917hJ3cFcAAEhAJB4QJ4I9mo5cOeOScff+adFLSctHyNd/HX+/+S7A1jvIaBQ6367O3Ch3sc6/w5t3utbCQJBJbbOmtVBF+HfP6StWSSvqn/eDhbWhcApDnKVwNneHdkQFRaXjxqdMmjxdluXrpb9oYu7T2pD72AMx/RkFjGe2cMKzh5n6XGuBC+en7Y3t5Og2bs1VJSFOhflQqsJ9fsL/OVr3ad08nELr5u4Ip/Mq6nCtWbvkPvZIHWaI82k9dq2wDv+HWGOhCmuhinDOfDgNacdeh/DsqgTiVbC/OCNWTnf/xWli+4sTbJSwvuLBrBlOoXuUCD3qqpDxcNiP7+XibG6taW0onJrWwtr201rohPlXLLL7DNH5cP5cxvYka4XWP4JaxPB8ajVVhHOSw2/diRrvx1TIzaEUOq1bGwqn0PrjsBZaN3eH1k/rg4ZaJd2Wms79rRncFQAAEhCJB8SJYI+mxWXnRmW83TzlwX8cdfcVkx6fl/2NWcd9rznM9skN4RcGXDe11rcKNd9lVdtcvflpsNvf/EPFcrMrq+Sr+te5Wm0esL13qtl5tTylrh8uF05hiLNU2yMyn1vcZ+maFtea+wzRuh9+RjW+Raw1PHuYqc+1FriQeJCHNDn2m4O8W646P2rZ/OGqqPGJ2vpztO7TvXmNF7XZT2uhWtauNRXWH25trzXpp1QuLD5l7byzz3AO07wErDWt59N67OGcunoWWhuKyK+NtdDcT/jh2VUJxKsQf3FGrpzRPOWBC39xHrP+xbGOErlhfMZDiEHGXRj+qGvdPBBk5DFrBvvbVNuG1LL2tymczbVwj6Uq6nDsWgQbn82TXKs/lwHPT3I4hVrE8HxG5J7EDHfrubb7B7Uc7I+1VJBNrLeIToUaC50zH/o+JxDG+TT7aT5oBC5kVnpd+Axqcw9OcFcAAEhAJB4QJ4I9moYTx0rLU+ctatqsuUTKxCktW7eRu8a6FUrIspRIuayVOu5Ca01rYejbX/fzQG03D1R/HrBurlYVFJXKfuSruQcnrA1ZC60NhX+WrPtUIT0ceOGV48sz1rgLVefVM0awfYbZurUwRJfq+TMyn3DCCc8eZupzreXsyu/UuUv2hac+CVmWEuv5UfXNH64syLfyGHnJJf8iC7K5diZD/MSt+3TXdC7q8PdpLXQ2rHE2wemS+nXVyt0hFf6f//2/nX4WFp8KBOm8s89wDjP0JRB6lKtnofUkWwutm1sLrccesP3aWDe3tu58W4fw7KoE4lV9/uKEf5lba9ZYGP6oa908/MJgf5tqe5jOtzXeB1obCtjGUlUezrGHv0/rsTsNZdf059Laeo2FkTrJ4dR0wjx2Ve7Z+YzIPYkK1fnQrTuddxoyb+BV5B0oUreI1sO0Flobyq7pPsdd09ynCms/nbOkfu7q/tb9MRvW4K4AAJCASDwgTtTn0TQBo0/fF827fO8jxF1+fUL9J7gK9dxi1vFtyM9FfjpmeY3h2cNMfa41a+LBrBZP4b7W6vzDJRpoeHZVAvGqPn9xiBDhk/tAIoaRCPckfnvQ4K4AAJCASDwgTvBo2hBDe/11pGJ15sabL7yTz80/vplPIoRnDzP1vNYS86dDJGZ4dlUC8aqef3EIgkjk8NuDBncFAIAEROIBcYJHUyLBw7OHGa41gggzPLsqgXjFXxyCIOImuCsAACQgEg+IEzyaEgkenj3McK0RRJjh2VUJxCv+4hAEETfBXQEAIAGReECc4NGUSPDw7GGGa40gwgzPrkogXqWtP1JQ8t8fRUsQBNFw46vc42v2lOpjHAAA8Y7EA+KEHyZDU+ctSl+xyizs0fPRdZu2m/VDRN6BomEjx5rlfo5Jk6c7hykL8q1Zh4heeDbF6YdrrQEF10Uih2dXJRCvys5Wzl93ZM7aQvnTQ8RlzF59aMrnB8zyRAs5CXIqzHIiPmLO2qJtB0/qAxwAAAmAxAPiRKqHk6ELFn86Zdoss3zgoCStXGpK4dL0lfmHis36TpifUZadkyfLZk3fhhz4uPEpzmHKgnxrPUtElMKzKU4vr7XwI9hVWZ+o/z65LhI8PLsqAaBhySs4Oe+L7/pN2Xrv4LX5haf11YlHToKcCjkhclrk5OirAQAAGiYSD4gTISZD07IzW07tc9GYrvJVls0KtY0p02YNHJRklucfKi4oKg2npjtyduV36twlOydPhSxLSYNLPJhJl3COnYhgeDbFGexaW3vldWaY1aIU0fh9q/8+uS4SPDy7KgHA/46fPPfFt0fGz911//B1j4799rX5uzsNXLMsq1Cvl6jkVMgJkdMiJ0dOkZwoOV1y0vR6AAAADQeJB8SJYJOh87Z83WT8/c8sHjx65StjMmY0e+2/zNxDdk5ey9ZtUiZOadqsuUTqvEXHSsslZEGVuAul8qix43v17isLhcWnnJ3MTk1r3PhiZ5LRWlNLJ8iySjZYC8Pvkllo3dzaUPibW2uqXQWbSzVnXYnohWdTnMGutbVXXneic093mIkH62+RtTD8X0JV2bzWzM3DvwSs+7TWtDak9s91QXh2VQKAP52vrMrOK5316f7er2++5+XMYe/s+HjN4cPFZ2TVpIV5Y97P1TdIbHJC5LTIgpwiOVFyuuSkyamTEyinUU6mvgEAAIC/kXhAnAg2GfofEx97YmG/0StHqxiTMaPl1D5aneycvMaNL3Y+UyFEPiB3b4Es/Po3VzRt1tx5WyQn3POJ1prWfQYrrLFLvXr3lVbqvHnowho3V62rZSZY/RCeTXEGu9bCSTxYf4vq+UsY7FqrcXNrYeh9Wjc3G1LLXBeEZ1clAPhKjfPmX2cfe2TMhlNnzrs2wvdyQuS0yMlxSkJkbgAAAPyPxAPiRLDJ0H8c1Wno8hFO4mHcl681HtNVqxNsPtEsVMvhzydqNa37DL8w70BRr959ZZ/uhIeU//o3V0ihClk2Nx82cqxsqzZXH38tX2VZSmq7uda6ivBPCBG98GyKM9i1VofEg7WwtpeAitDXmvodtu7T2qVw9mndXDVk3dwJrovECc+uSgCIuTPl57NySt5clFfjOwUVlZy9b1jWzgNl+gp8/72cFjk5cor0FcZ7VcmplhMup12vBwAA4BskHhAngk2GNk95wP2Kh95LkqyveKhxPlEVquXw5xPrMHEZolDtQXaowilp2qy5UyiRf6hY29yJpekre/R8VBbkqyzXdnOzdRXhnxAieuHZFGewa82DxIOqHM4vYZ0bckfofdZ2cye4LhInPLsqASC2AmXn7h28tlfK5ho/G/l8ZVXfN7M/zDior8CP5OTIKQr9xkrq07nlhMtpl5OvrwYAAPAHEg+IE8EmQ0dlvH3JuHv/tOilpOUj5Ou/Jt9v/YyHGucTnXnPQG3mE7WaBUWl48anTJo8XZbl66W/aBKsIWuh8+3qzI2yZ+clC+a8p7UwECTxYNa0Fjrhbl2VhH9CiOiFZ1Ocwa41bxIPKmr8JaxzQ+4Ivc/abu4E10XihGdXJQDE3MffHO79+ubQ0+Vi1qf7B03fXlVDrYQmJ0dOkZwofUV1cqrlhMtp11cAAAD4BokHxIlgk6HFZedGZ8z8ZcqD/zjq7isnPT4v+xuzTjjzie55z/DnE82a+YeKx41Pkb3J12taXBusoWzbG8fn7i3o1buvWdO9ufVN851wty7LAePYQ2xubd1ZJYe5YPGn7vryrRQ6nwNBRDs8m+IMdq2tvfI6M7Q64fy+WX+xQ1wCajl0ksAslItLLjGzIdWlcPZp7ac7uC4Iz65KAPCDwTO2v7ssXy912bgr8NCIdcf5D/2ayCmSEyWnS1/hIqdaTrheCgAA4CckHhAngk2GhhPW+cRjpeWp8xY1bdZchSxLiapQUFQ6cFCSFC7PWKNKZEG+bdz44ksu+RdZyNmVr8rNxIPaXPYvX0M0JOUtW7dJmTjFXWitaS0MMRkqXWrUqJGTIAl/c2tNZ204SRciquHZFGd9rjXrb5G1sJ5XZY2/w3JxySVWq31aa1obcoLrIsHDs6sSAPyg5MS5+4ev277vhL7ignAm0+EInaSRkyynWk64vgIAAMBPSDwgTtRnMtTLKCw+pf5LWqJT5y5OiiIOok/fF92ZGPnWrENELzyb4mwo15pPgusikcOzqxIAfOKbrcWPjNlw+qz+icdhvn0Q3IK9LZWcXjnJcqr1FQAAAD5D4gFxoqFMhq7O3HjzLe1VyLJZgSDqFp5NcTaUa40gYh6eXZUA4B99J2X3fmOzVhjOByZDE+yDuF+bv1vO8OLVh8ycBAAAgK+QeECcYDKUSPDwbIqTa40gwgzPrkoA8IPiE+WDZmzv9dqmHiPXu/8ff+eBsvuGZRWVnHXVRVjkpMmpkxPolKjXlOQVnPzrpC0vvbWNswoAAPyMxAPiBJOhRCLHcQ+nOLnWCCKc8PKqBICY+3rrsfuHrXs3Pf98ZZX7EwhOnfnhfYG+zj6mb4DwyKmTEyin8fvqn6JRWVk1b+XBbklZy7IK9W0AAAD8gcQD4kTa+iMFJf/zWccEkVCxKvf4mj2l+lURHVxrBBFOeHlVAkAMnTp7fsK83Y+M3ZCz/38+VvrdZfmDZ2yXhTHv505amPc/tVF7cgLlNMqCnFI5se5V+w6f6pWyecjbOcUnyt3lAAAAfkDiAXGi7Gzl/HVH5mQVpmYSMYgZKw+ahYQXsbZw7tqibQdP6pdE1HCtEUQN4flVCQAxlJ1X+nranjPl1T5Q+nxlVe/XNw+esf2p5E3lFZXuVagtOYFyGuVkyik1Pyej4nzVu+n5m/cc18oBAABijsQDgPoqOHqmW1KWfNVXAPBExxe+1osAAIip746clvvD/MLT+grUnpxGOZlySvUVAAAAPkbiAUC9VFV9//zfslVU6f+DBcALJB4AAD6kPuYBEcHJBAAADQ6JBwD1smhVwfN/y66srJKvsqyvBhB9JB4AAAAAAICvkHgAUHfuN1niDZeAWCHxAADwwNHj5WPe38m/3vvfmfLzvVI2f5sb0FcAAAB4iMQDgDpSb7LkfpWDevUDb7gEeIzEAwAg2r7afLR7UtYHnx+oND7fGD70bW6gx6j1kxbmaZ/7DQAA4BkSDwDqyEwzmKkIAB4g8QAAiJ6TZ86PS819/JVvcw+U6evgY/KDGz931yNjNmzbW6qvAwAAiD4SDwDqorKyqltSlvkKbimRcv4VDvASiQcAQJRs3nP84VHr31yUd/Zcpb4ODcGabcUPDF83bcm+89yfAwAAb5F4AFBHvOIB8AkSDwCAKBk/d9f6nfo/mqBhKT1ZMWfFd7wbKgAA8BiJBwB1ZKYZzFQEAA+QeAAAAAAAAL5C4gFA3RUcPdMtKUu+assAvETiAQAAAAAA+AqJBwD1ol7lUFlZxZssAbFC4gEAANTK+coqPpUNAABEFYkHAPWi3nBJBW+yBMQEiQcAQP19vr5ozorv9FLEqU/XFv510hZerAwAAKKHxAOA+pInlo4vfM1zCxArJB4AAPVx4lTFyHd3PJW8Ke/QSX0d4lRV1feLVx/qlpQlX/nnIQAAEA0kHgBEAPOeQAxxAQIA6mzdjpKHRqybtmRfxXmmnxNOwdEzfSdt6Tdla1HJWX0dAABA/ZB4ABABzHsCMcQFCACog7PllZMW5j08av2WPcf1dUgYlZVV81Ye7JaU9dWWY/o6AACAeiDxACACmPcEYogLEABQBzn7T4yfu+vUmfP6CiSefYdP5R4o00sBAADqgcQDgAhg3hOIIS5AAAAAAADgKyQeAEQA855ADHEBAgAAAAAAXyHxACACmPcEYogLEAAARFzxiXK9CAAAIGwkHgBEAPOeQAxxAQIAQis+UT7m/dziUuaRUQvPvrF5/NxdJ/kUEAAAUCckHgBEAPOeQAxxAQIAQlidfez+YeveTc8/X1mlrwOCO1N+ftLCvB6j1m/IDejrAAAAakLiAUAEMO8JxBAXIADA6tSZ8+Pn7np07Lc78k/o64DwbNwVeHjU+kkL886U89IHAABQCyQeAEQA855ADHEBAgBM2XmlD49mvhgRcOrM+eR5u/5rzAY+9QEAAISPxAOACGDeE4ghLkAAgOm1+buzdpTopUBdbdvH62YAAEAtkHgAEAHMewIxxAUIAAAAAAB8hcQDgAhg3hOIIS5AAAAAAADgKyQeAEQA855ADHEBAgAA752rqNxfeEovBQAAuIDEA4AIYN4TiCEuQABIcJ+vL3r/8wN6KRBlOw+UdUvKmvvFd5WVVfo6AACQ8Eg8AIgA5j2BGOICBICEVXqyYvg7O55K3pR36KS+Doi+I4GzA6Zu6zNxy3dHTuvrAABAYiPxACACmPcEYogLEAASU9aOkgdHrJv+8b6K8/y/OWLp718f6paUtWhVQRW/iQAA4EckHgBEAPOeQAxxAQJAojlTfn7igj0Pj16fnVeqrwNi4dCxM33fzH5t/m59BQAASFQkHgBEAPOeQAxxAQJAotl5oCx53q5TZ87rK4DYqar6/ujxcr0UAAAkKhIPACKAeU8ghrgAAQAAAACAr5B4ABABzHsCMcQFCAAAAAAAfIXEA4AIYN4TiCEuQAAA4E+b9xw/XnZOLwUAAAmAxAOACGDeE4ghLkAAiGPHSstHzt7JW+ejgUpd/t39w9d9nX1MXwEAAOIdiQcAEcC8JxBDXIAAEK++3HS0e1LWB58fqKys0tcBDUTO/hOPjft2XGpu2ekKfR0AAIhfJB4ARADznkAMcQECQPw5eeb8uA9yH3/l29wDZfo6oKE5W145+aO8h0auX7ejRF8HAADiFIkHABHAvCcQQ1yAABBnNu0+3mPU+r8tyjt7rlJfBzRYm/ccf3j0+u37TugrAABAPCLxACACmPcEYogLEADizMQFezbkBvRSoOE7W04uDQCAREHiAUAEMO8JxBAXIAAAAAAA8BUSDwAigHlPIIa4AAEAAAAAgK+QeAAQAcx7AjHEBQgAABqo8orKtIyDFeer9BUAAKCBI/EAIAKY9wRiiAsQABquT9cWvpuer5cCCaPsdMWwd3Y8lbxpz8GT+joAANCQkXgAEAHMewIxxAUIAA1RoOzckJk5vVI27y88pa8DEsyKDUe6J2WlLv/ufCUvfQAAIE6QeAAQAcx7AjHEBQgADc43W4vvH75u1qf7eYcZQDl6vPzl6dt7v775QNFpfR0AAGiASDwAiADmPYEY4gIEgAbk1Nnzr83f/ciYDdv3ndDXAQnv4zWHX5i8VS8FAAANEIkHABHAvCcQQ1yAANCA7Pqu7I0Fe06fPa+vAAAAAOIIiQcAEcC8J+Al7S0ItAuQNygAAAAAAACxReIBQASQeAC89OGXBVv2HHe+dV+AUi5rnW8BAAAAAAC8R+IBQASQeAC8dLzsXLehWU7uwbkApUTKZe3/VAUAAGjgVnx75PP1RXopAADwNxIPACKAxAPgsVGzd3QakKlyD+oClGUpkXK9KgAgRo4EzibNypGv+goAtZF36ORTEzbJ1VRygv+uAACgwSDxACACSDwAHssvPN3xxa87v7xmy57jcgHKV1mWEinXqwIAYmHFhiPdkrLmrTxYVaWvAlBbFeerZn26//5h677ackxfBwAAfInEA4AIIPEAeO/p5E2dBq7pOmStXIDyVZalRK8EAPDciVMVI2fvfDJ5456DJ/V1AOphR37Z4698O+b9nWWnK/R1AADAZ0g8AIgAEg+A99btKPnPl77pOnRtl0GZ8lWWpUSvBADw1vqdgYdGrJv6973nKir1dQDqrbyi8q3Fe7/cdFRfAQAAfIbEA4AIIPEAxMR9w7Lk6lMhy/pqAIDnJn+0d/OFD+ABAAAAEhmJBwARQOIBiInFqw//4cVv5AKUr7KsrwYAAAAAAIgFEg8AIoDEAxAT5yoqOw3MlAtQvvKeHgAAAAAAwCdIPACIABIPQKxMXpwnF6B81VcAAAAkhorzVYOmb9++74S+AgAAxA6JBwARQOIBiJXjZefuHrhGvuorAABRtuSbwzM/2a+XAoiFb7YWPzB83YyP9/EaUAAAfILEA4AIIPGAhqvsbOX8dUfmrC1MzWyokfLxPrOwAcWctUXbDp7UfzAA4GPFJ8oHzdje+/XNB4pO6+sAxMjxk+dGvrvjz+M37vquTF8HAAA8R+IBQASQeEDDlbb+SEFJeeDkeSKG8VXu8VW7AvrPBgB8aXX2sfuHrZudnn++skpfByDWVm480j0p673PDnCFAgAQWyQeAEQAiQc0XKmZheY8OOF9pK0v0n82AOAzp86cHz9312Pjvt2Rz/9TA/51rLR88kd5FedJPAAAEEskHgBEAIkHNFwkHnwSC789ov9sAMBn8g6dnLQw72w57yAPAAAA1IDEA4AIIPGAhovEg0+CxAMAAAAAAHGDxAOACCDxgIYrqomHYyfK0z5d8uRzvW5sf9MVV1/ZpEmTK6++qt3ttzzb77lPV2SUlFWYmyRskHgAAADRU1X1QwAAAM+QeAAQASQe0HBFKfFQcrLivY/SWt3cpuVNrf484OnX0ibO/GL2wi1L5KssS0nLdq1uuvXmJcuWm9smZpB4AAAA0fPV5qMvvbWtqOSsvgIAAEQHiQcAEUDiAQ1XNBIPRcdPPfHXJ6+5ocXQKSMWblkSLGTttTdc93z//sdKy82dJFqQeADgK0UlZ4e8nVPIHCUQLyorq+Z98V23pKz0rCJ9HQAAiAISDwAigMQDGq6IJx6KAqf/s+v/7dC5Y2rmfDPZoIXU6dD5zu4PPkjugcQDAP9YseFIt6Ss+SsP8sYsQJzZd/jUM69tGjIzp/hEub4OAABEFIkHABFA4gENV8QTD3/661MdOnf8cNNiM81gDal55z1/eHHAy+auEipIPADwgxOnKkbO3vlk8sa8gpP6OgBxoeJ81bvp+fcNy/p66zF9HQAAiBwSDwAigMQDGq7IJh7m/H3hNTe0+GCN/lqHpKkjB7wx2Im0jR+510r961v+7pPPMswdJk6QeAAQc+t3Bh4asW7q3/eeq6jU1wGIL7kHytbtKNFLAQBA5JB4ABABJB7QcEUw8VBcdq7NLW3Nz3UYM/vVRtUNeGPwvPULq2Umpoy47Y47SsoqzN0mSJB4ABBzU5fs27znuF4KAAAAoPZIPACIABIPaLgimHhY/Fl6y3attKyDxE//6aeNGjV6ov+TKlTuYWr621q1m25ttzzjG3O3EkcCZ7Jz8lTk7Mo3K0Qv9h08Wlh8yiyPeJB4AAAAAAAgbpB4ABABJB7QcEUw8fDMC88+OeBpa+Lhl//x7863t3fpYE089B7014GDkszdSqzO3HjZ5U07de4icf+DD6/4MtOsE6Xo1bvv0vSVZnnEg8QDAACIrdNnz+tFAACgrkg8AIgAEg9ouCKYeLjptptfmz+xxsTD86/0u7vnPbNXz9GqvZY2seOdvzd3G7iQeOjR81G1nJ2T16lzl9y9BanzFi1Y/OnAQUnjxqe4a0qJU1jPaoHqiQdVTS3nHyqeOXuOu2Y9g8QDAACIrRcmb520MO9MOekHAAAigMQDoNucX5aaWZSaWUgQ0Yu5WYUfrj9yqpzProy91MglHq68+qqZK9+rMfEQLGTbFi2uNXcbsCUe1GsgkoaPTp23aPrM94aNGCOrtmzf06fvi1LiFNazmjT0y1/+n7Y3tnvsiSet3TC7Wucg8QDAS59kFk7/eJ9eCiCxnTxzfvzcXY+M2bBtb6m+DgAA1BKJB6Ca1buOr9wRMGfECCLiUVBSvoiZVh+IYOLhsssvS/v2IzOjEGbiQba9vGlTc7eBCzP+//zPP7umxbUSd3S4c/f+w1LS5d5u3xX+MF5t27nvvgd6qGpmfsKp5qQKpLD7/Q/lHyqW+CZrs1bN2Zv6YImejzw+c/Yc9cES5v61ftYnSDwA8Eag7NzQmTm9UjbnF57W1wHA99+v2Vb8wPB105bsO1fBPwkBAFB3JB6AauavKzKnwwgiSiG/b/qvIDwXwcTDVfV7xcOsjPdbXHududtA9Rn/YCVaoZN4MFMFUnjpL5rcfEt7Ff0GDLbuTYX7rZase4tUkHgA4IHMC/OJMz/ZX3G+Sl8HAD8qPVkxcvbOP726sajkrL4OAACEh8QDUA2JB8LLIPHgBxFMPNxy+63hfMZDl0e7Xvpvl85Y/o5WbfKiGeF8xkOwEq0wdOIhnL2pcCceduw+0G/A4FVrvpXlocNGkXgA0ICcKT//etqenqN5BxUA4crcXkySEgCAOiPxAFRD4oHwMkg8+EEEEw/PD+j/5ICna0w83N6lQ6NGjaamv61Ve2n4oIGDkszdBmyJAbNEK3QSD//+779atCTdKdGq5R0oenXCG9a9qXAnHiQ2bs3tN2CwVB42ciyJBwANyP7CU6+n7Tl1ls+MBQAAALxA4gGoJuaJh+LSc4sWZjzz5ICbbuxw5RUtmjRpctUVLW6+qeOzf3n5k2WrSsoqzE2IhhskHvwggomHzzO+bt2ujZl4+Pm/XtqoUaPftrxGhSz/5Cc/mfbZLHedRdkf33rbbcszvjF3G7ClGcwSicJjJ5NTJqmPgrjt9g5btu+Rand16tz3+ZeckmDVzL2p2LH7wB+7P3DnH+5yl0j9TVt3kXgAAAAAAABWJB6AamKbeJg757M2rW5r9btbn3l8xJuvfv7+1E1L5xbIV1mWklY33HrTjbcv+fgLc0OigQaJBz+IYOKhpKzi1ttvGzplhJl7uPTffsg9ON7/Zp5WIeWdv93RoWPEk4shMgp1i30Hj8o+JRYv/fwvzz5nVqhzkHgAAAA+V1X1fSGf+gAAQHhIPADVxCrxcCRw9qk/9W9xTauRL7+/dG5BsJC117Zo/dxzg46Vlps7IRpckHjwgwgmHiQ++Szj+pa/+2DNfDP3ECLSsv7euk1b2dbcYT1j2859kyZPN8vrHOkrVvXo+ahEn74vmmvrEyQekGgydpakri2SPwREwsbSLUcrKnn7eKDWYjh+vrX8wKDZO81yog6Rtr7o693H9Z8uACCOkHgAqpkfi8TD0ePlne564M7bu334Tq6ZbNBC6kjNbt16kHuIg5hP4sEHIpt4kHhpwKDfd/nPDzctNhMM1li0eekf77uv/8Ah5q4SKkg8IKFszi9buSNgXghEQsW+I2dmrj58jo+uBWqD8TOe4ssdgW0HT+o/YwBAvCDxAFQTk8TD00/2v/P2bktSD5hpBmtIzd/f0e2FFweZuyIaVpB48IOIJx6OlZY/8NDD/3nv/03NrPl1DwvWf/zH++57sEdPUokkHpBQUjOLSoyrgEjAyD96ZtnWYv33A0BwjJ/xFCU/PBBxBwgAcYvEA1CN94mHBQuWt7imVdos/bUOowbNHfLiLHcsmp3nrJX611/XOhpvzEJ4GSQe/CDiiYfAhdxD/4GDb2jVcsS0sWayQcVH2UsnzX6rdZu2/QcOIesQIPGABBONkYdooMHoB9QK42ecBQ9EABDHSDwA1XiceCgpq7ixze3Wz3X4xc8vd38UrZj1Zpa7gmzVvn2HiH8ULeFlcJ/tB9F7fP3ks4zb7+hwc/tbnxv60uRFM2ZnzPkoe+kHq9LeXvL+wBFD2992u6wlfegEU29IKNEbeYgGF4x+QK0wfsZZ8EAEAHGMxANQjceJh0+WrWp1w61m1kHiuadTnnpkxL82ad6oUSNZkPjQeFXEjW1vW57xjblbLQ4cLsnOyVOx97sjZoXoxc4935mFWuzJL3T3bfrM916f9JZZLS6D+2w/iOrja0lZhVykAwcl3fn7P1x73fVNmjSRr7IsJVJO4tAdTL0hoYQeedTQ8eKAgbd1uOPqFtfI0HFNixZ3dLyToSMuw7PRb8KEUQRRn+jW7d6DBw/qv1ieY/yMs+CBCADiGIkHoBqPEw99er/8zBMjzayDE9dcdWOjRo3MchW9nxw1YFCSuVstnvjzM7fd3qFT5y4Sz73Qf3/BMbNONOJYafl11//OLHfHii8z//Lsc6pvfZ9/Kf9QsfR2ecYas2ZcBvfZfhD68ZXwLDybegP8IMTIs2TZinbtb27VrvWfBzz9WtrEmV/MXrhliXyV5WdefvamW9vdxoul4is8G/2SJwyu+j6PIOocQ4f+9Q9/6Bjz3APjZ5wFD0QAEMdIPADVeJx4uOXmjpNe+czMKDgROvEg23bo8Htzt1q0atO2qOS0Wr75lvb7Dh5NmThl6469AwclSeTmHVSrpI4qcQrrU03i67WbHnr4EefblDcmO8tvvDm1+MQ5WbihZSt33/YXHGvZus36zTk1NmqW/NCE0RNro+a25obeBPfZfhDi8ZXwMjybegP8wDryHCstf/bF51vccO3QKSPMD4ZxYsTUMS1bt+LjYeImPBv9SDwQ9Qz5FSoJbI557oHxM86CByIAiGMkHoBqPE48XHVliw+mbjYzCk6ETjzIttdcc625W3ccPlrWpu1Narn4xLnrrv/doSMnLrqo8aAhw1PnLXpvzod/fuovskoKe/XuKyVOYT2rderc5Xc3tPzNf1zZ+Z6ucmcvJa3b3OjuhqqmFRYeO9m48cXm3sxGtRJVTeuJuf9gezMPwZvgPtsPrI+vhPfh2dQb4AfmyCN/K+/p3rVD546pmfPNyTItpM7df+zyYI+ezJ3FQXg2+pF4IOoZ6lco5rkHxs84Cx6IACCOkXgAqvE48XDZZZf//YN8M6PgROjEg2x7+eVNzd2647MvVv/sZ5dc0+Jaic73dM3dW7Bs+Vc9H3k8/1CxrF23cdujj/9ZFqTwyad7q03WrNty/4MPu6upElXtkcf+JIUSy1d+88BDPa17O3r8bHZOXpd7u324aOm2nfvUhk8986yzf9nQ2qj01mx0ecaaPz/1FyksKasoPnFOHYLWDbU3rSdqQ+mMbJixep1zpOEcgjfBfbYfmI+vREzCs6k3wA/MkecvL/y1Q+eOH25abE6TWUNq3tPt3v4Dh5hXE9GwwrPRj8QDUc9wfoVim3tg/Iyz4IEIAOIYiQegGo8TD7+9qr6veGjRooZXPIx5ZcK0t2e7S0aPS546412t2qix453CSZOnvzrhDXc1VaKqXfXbq2++pb2KWe/Nte5Nxe9uaHkkcEYtSzWnG29OmTH+tYmq0NlWCqUJ6a3ZqMTIMa+2vbHdoiXpm7buCti6oe3NiQce6rlm3ZYvv17/X48+oUrMba0behPcZ/uBPL4uyy6Wr0QMI31rsWdTb4AfpFafOFuw9JMWN7T4YE3N/6vrjtTM+a1at+H9yht6eDb6kXgg6hnuX6EY5h4YP+MseCACgDhG4gGoxuPEQ/tb6/UZD1Ne+7zjnTV8xsMfuz+wfnOOu6TrH+/TSlThuk3b1fJjTzy5PGONWWLd1ixRUVBU2vbGds63M99NHTZyrCysXJV18y3tV3yZqW0rTUih9NZsVMXOPd/16t33r8/123fwqLVRa+G1111/rLQ85Y3Jr096K1g1s8Sz4D7bD7THVyJW4dnUG+AH7pGnpKyi7a03Wd+XPGnqyAFvDHYibeNHWoVX3065o0NH2YN5TRENJTwb/Ug8EPUM7VcoVrkHxs84Cx6IACCOkXgAqvE48dCv/5BnnhhpZhScCJ146Pf82IGDkszduqPFtddp99PXtLjWvMN2V2vZqnVh8ammzZqPGjveXaJt2//locH2JvHJZxnP/OWv7pKhw0b16Plocsqkyy5vau7thpatpLD5L//dbFQ15C40u6HtzYkhSSNVo85HRpvbWjf0JrjP9gMSDz4Jz6beAD9wjzyLP/usZbtW5qzZmNmvNqpuwBuD561fqFW7pX375RnfmNcU0VDCs9GPxANRzzB/hWKSe2D8jLPggQgA4hiJB6AajxMPcqfbtnV7M6MgcetNXa656saf/uNFcqMsCxLmmzLdcsvtoe+V9+QX3n5HR3fJ7v2HtRIVb06ZoT4HolWbtus2bpNqbW9s1//loU5JsGrWvUnsO3i0R89HpZozpy8lqzM3yibOBz6bewunUWtJsJ6MGP2KnMC1G7KdErNR64beBPfZfkDiwSfh2dQb4AfukeeZF559csDT5sTZT//pp/In7In+T6pQc2dT09/Wqr00/GXnvxCOBM7kHYjwnYz8+Vb/B6DFH+7qdOBwiVkeIgqKSrNz8iRyduWba+sfa9Zt+dOTvbTCYI0GO64ao84bBgvPRj9z1pggahXWXyHvcw/RGz/VWGEOF9aowxgYCD4iRSSsY2AgSKP1Gcrqs60ZPBABQBwj8QBU43HioaSson37DiNfft9MPPzi55erW2THrDez3BVSXpkbvVcHz1+wpN+AwWZ5nUNuc1dnbpSY9+HfBw8dYVZIzOA+2w9IPPgkPJt6A/zAPfLc2P6m1+ZPtE6c/fI//t359vYuHawTZ1M/ett530X5O9uj56Pm9VWf6NW779L0lWa53CccOnLCLA8WBw6XjBo7vlPnLhL3P/iwetPFyIZ5+CEaDXZcNUatNjx8tKzGI/Vs9LPOGped3Lpv/yqJ7w6uMdcShDusv0JVnuceojd+XnZ5U+twYY3ajoGBkCNSRMIcAwPBG63VUKZFrbatcRjkgQgA4hiJB6AajxMPgQtvSfS769ukzco1cw8hYtH7u1q1bhu9z0NLW/ix+/MV6h8pb0yW+2CJKdNmmWsTNrjP9gMSDz4Jz6beAD9wjzxXXH3lzJXv1Thx9vwr/e7uec/s1XO0au9/Nb/FtdepXVlnnVT5wEFJEuPGpwQrCVZonWBasPhTqeb8x6u5Ye7egtR5i1Q1VejuW3ZOXqfOXYJta5aYe7NWU02E02ig+nFZ929tQtswWDWnZN2m7apR1YRam3+oeObsOc7mno1+5qzx8dItyRNevvfeOyV69rx3bdYic06ZIJyQX6FgMWhQn7vuuquqqkr/tYsCD8ZPZ7gINjhoY6DaPNg4oI1RWhNmNbMwWDe0auYYGKzRgDGUWZuw9s3c1lpNGwZDjIE8EAFAHCPxAFTjfeJBov/AIXf9ofuS1ANmgiFIfNe16wOylbkromEF99l+QOLBJ+HZ1BvgB+6R57LLL0v7Vv/UU3PiLFgs2Pj3pk2bql25J5ic2LJ9T5++L6bOWyQxfeZ7w0aMMUuCVevUucsvf/l/2t7Y7rEnnnTvc826LVde9dv8Q8XWDVVPLru8adLw0U6hu2/OP8Ca25ol1r2FWS1Yo9pxmRsG65t5QqzVnJKejzyuGg029xfwcPQzEw+bNi997LFuannf/lX33nunLBwuzBo2vK87Fn301keLpy1Lf0eWX39jqHtzVUEVmhtmfDmnxmpz501ShdKE2u24V/qrQmdDp1qdw9poldE3a4l72xDVVKiz5DRhPYTQJ2TYj+dNC/cpChzfHGJvoaupnlgbdW9bh5gwYYL+OxcdHoyf7qyAOTgEqo+BgZrGAfcYpY1I1mpmobUbYVazNmoOZea25v5Vo9q2wappw6D19KrggQgA4hiJB6CamCQejpWWP/hQz0533ffhOzW/7mFx6u6uf3zwwR49ZStzV0TDCu6z/SAiiQd5rEpfscoslxg2cmzE33I9nAjRJX+GZ1NvgB/U4T92g0Ww/9h1wpzucZfI7cTu/YcDF97ffOee7/IPFUt8k7VZqql3PO/5yOMzZ88x34785lvaq0k3c/+qsMu93b4rDDiFsre/vfX2NS2uXZq+UpWrat3vf0hrVOuGtrdtO/fd90AP6yGE2ah5XOb+VbVwToh5CO6+SdNONfMsqfBs9AudeDh1ert6xcPx0i0fLZ4mcfXVv/kg9XW13LTpv40Z208W3v8gZey4l6Ta3n1f9ev3pFqrCs0Nd+xcblaTRu+440ZVIqEadffk4osvuvfeO90bTps+RiVF6hzuRp29mX0zS7RtQ1RT8dxzj48a/YJqwnoI5rbW82Y9BPkpLPl4hix37fr7YHtzn0knmWT2xNqoe9s6REwSD5EdP//5n3+mPgrujg53mqOKMziocMZAVU0bkcyRIXBhVNFGpGDVtMHH2g1ro9oYaG002FCmNWF2w7qt9RDMYTDEGMgDEQDEMRIPQDUxSTwELtws9h84pGXLNq8Mn2MmG1R8Mq9gUsr81q3bSk2yDvER3Gf7QUQSDwMHJQV7GzF5LpXnK7M8RMizmWylQpad8gWLPw3WihkhuuTP8GzqDfCDOrxHebCo8TMezOkea7WCotJx41PUyNOydRtnVsh8ZyEVNSYezEJnh/Jt5vpsVe3SXzRxRrx+AwZbu2F22CwJv1GnxDku696sPdE2VNtqh7Bxa66qI+HsNkTfPBv9QicezLjttjaB45tVte7d7yo9kV3lmssuP5dbcChTKkhsyf7UnRhwNlTb9uhxj7uatVGn8MEH716W/o5WzWnUGtITtX/VQ2tY92YWug9q67b0hx/uoqo5h6AKzQ2dhp577vGML+eoQms184Q427rPmxmy4T/8w/96LWWw1LnssibB9maWqGpmT8xG3duGOJnBIiaJBy/HTy2cMdBazRwZ3GudEclazRx8zP0HazTYOONu1PlWG8q0vZndcO/KPX6ah2AOgyH6xgMRAMQxEg9ANbFKPKj45LOM2+/ocMstt7/43JgZf/ti3swtn8wrmD87+52pKwcOGHdr+ztkbfQ+14HwPrjP9oMQiYe07MyWU/tcNKarfJVls4IT8uQpj2dmeaD2iYecXfnyMCabqJBl55/RpkybNXBQkrmJNUJ0yRp/7P6A+R/NXoZnU2+AH7hHnmdeePbJAU+bM2LaxFmXR7te+m+Xzlj+jlbtpeEvOyODOXOkFYZIPJjV1HKkEg978gsXLUkPUU2FuWGN1ayFIRpVUWPiwdybuWGwbWW4bnfzrVKz8NhJVbJj94F+AwavWvOtLA8dNsrdE89Gv/okHsxp67KTW19/Y6jUkWjb9voQc9lNmvxcVZMYMqS3tVFVuHtPhnzdui1d9ibLahJfYu68SSESD8vS31E7f/DBu8217v2r5RCJB/fefvWrZs62ziFIHemedUMV7sSD9RDME+Js6z5vZqhGZYeNGjWS5WB7c5c4PxdrT8xGzSM1uxEiYpJ48HL81KLGxIO5oTkiWauZg0+N1cwSZ9QyG1XLNQ5l1r2Z25obqtCGwRBjIA9EABDHSDwA1cQ28SBRUlaxPOMbuQO+8/d/uPa665s0aSJfZVlKpFzWmpsQDTe4z/aDYImHtOzMZimPLMnZeDBQJl9lOVjuYXZqWuPGFzsvLzhWWp46b1HTZs0lUiZOadm6TfaPiQep06hRo9AvRJDK8ijrfKvyAbJPKR81drw8v8mC+jBDWZCdSxOqLWnUeS2U1iVrTa2fnVwZjpiEZ1NvgB+4R57Fn33Wsl2rGifObu/SQQaQqelva9Vuad9e7hDUrqwTQObkkbsk70DRqxPe0Ko92OO/gk1OOVHbxINZolVTPbF2wzwuc0OtMESjKmqcOLP2RNtQq+b0RIbfG1q2kvI+fV90am7cmttvwGApHDZyrLsnURr9jh8/vn379hUrPn/vvVnJyWOTk0eHTjyUnshWb+PjhDMlbZ1ntxZqG2rVgpU4he5ZeynMWvfR9ddf1b37XU88cV+IxEM4Ye2ttdCJoUOfVSfErGaWqOXtOZ8lJfXZvScjxCFYD19FOImHRR9NlbOUs+PzYHsL1jezJyqC/bDME1JjxCTx4OX4qUWwxIM5lIU5RlmrqcHH2g1zW3P/WrU6Jx7cY6C2rdkNtWwOg8HGQB6IACCOkXgAqol54oFIqOA+2w+CJR5aTu2zePsG51tZlhKzmgr3+xq5MwfyZNW48cVO4mHB4k9llXw19+BE7t4CeSSTxzlnK1UoG/76N1c0bdb85h/ff0kqyM6lCVVHe2mF1iWzprufqkVn25hElKbeAH9yjzwlZRVtb71p6JQR2ozYz//10kaNGv225TUqZPknP/nJtM9mueu8+nbKHR06Ov+XsNr1HuUSf3n2OSksPHYyOWWSKrnt9g5btu8xS7Rqs1PTnFmhHbsP/LH7A3f+4S6nw3PTFkudn/70/7vqt1dLE9a9mVNd1mpmobUb5oyYuWH4japwH5e5f62JECfEbGL95pwnn+4t+5RYvPRz9VNwtpXCTVt3RSrxcObMmby8vNWrV82fnzphwrgfsgvJI5OThycnD5s2/dWln8z6duPHhwuzzDliFaEnmt2Jh1/9qtlnn892V3Nv+8gjXcOZyz567NuJk4aZc+VOE6NGvyC9dZpY/XWaVlLnsB6pWZh/4OsZb4+rsZpZopbfeTdZfcJziEMwT4hargov8aCWQ+zNWq3K1hMVwX5YdTjnMUk8RHb8NMcBa6E2BgZs44BZUrdqavCxdsPc1hwDrdVUBW0oM5swu+Gscm9r3X+wYdA6BvJABABxjMQDUA2JB8LL4D7bD4IlHhqP6fpdoMz5VpalxKymIljiIWDkA8KJdZu2y7Of2mfu3gKnXHurJa0h7VOsa+wSiQcghrSRZ8HST1rc0OKDNfO1ubNL/+2HuTPH+9/Mc69NzZzfqnUb3oPRbxFsxm3fwaNmYSCM0a+qqurAgQOZmWsWLkx7882U5OQxycmjkpNHJCcPm/Tm6AULp67JXJh/4OvKqj3mXHDoOH0m582/Db/uuqskOnZst3ffV+617sTDPfd07N//KXc197YfLpgcbC7bbCJY4kF+w92z9jtzVzz77CNHjm5wSrRNahXWKXWzb2aJ2vZnP7u4xmpmh80Sa6NOJ+uQeDD3Zq1m7YkKLfGgHam7AzVGTBIPAcZPX4Z1GAw2BvJABABxjMQDUA2JB8LL4D7bD4IlHiLyiodAnRIPKpamr5TdSjgv5A+deNCixi7JbtX+VdStkxGMGqfegHhijjx/eeGvHTp3/HDTYm3uLFhIzXu63dt/4BDzaiJiHukrVvXo+aj7PUaCFQZco19hYeHGjRs/+WTJ9OmT3dmF5AlJ8+ZPWbU6bU/el6fP5JgTvtEOa6qAILSIVeIhwPjpyzBHPLNEBQ9EABDHSDwA1ZB4ILwM7rP9wHx8VRH+ZzwEwpjlV8vqiUu+mntwIu9AkfOeSNrmkU08BC7kNtre2E6qbdyaa+7B4yDxgIRijjzHSsvv6d61Q+eOqZn6/+2aIXXu/mOXB3v0dD7ZhWiIcfho2aeff/l0/+Hdu3dt1qxphw63Dhz4lwUL39q3f7U5qxvDcL8BEUEEixgmHhg/G3TwQAQAcYzEA1CN3Pcsyy6W21mCiHakby3mPtsPUo3HVyfSsjNbTu1z0Ziu8jVE1iEQfJZf+4yHKbX/cOloJx4u/UUT+fbmHz83IoZB4gEJxTryHCstf/bF51vccK35fuXuGDF1TMvWrfoPHMKsWXyE/1/xQBDhRAwTDwHGz4YcPBABQBwj8QBUwyseCC+D+2w/sD6+hh/LM9Y0bda8ceOLL7nkX2QhZ1e+PMqmzlskyxIpE6e0bN3GyRwUFJXKsnw19+OEe3MJWXaejWXDgYOSpFAaDRjpBCfMLlkTD1LeqXOX7Asf9pB94RMIpcTcm2dB4gEJJcTIs2TZinbtb27VrvWfBzz9WtrEmV/MXrhliXyV5WdefvamW9vddkcH3pc8nqLG0S96n/FAEBGM2CYeVDB+NsTggQgA4hiJB6AaEg+El8F9th+EeHyN7yDxAMRQ6JGnpKxiecY3Lw4YeFuHO65ucU2TJk2uadHijo53DhyUJOWy1tyEaLhRn9HvzJkzeXl5q1evmj8/dcKEccnJo5OTRyYnD09OHjZt+qtLP5n17caPDxdmmXPEBBHx8EPiIcD42QCDByIAiGMkHoBqSDwQXgb32X4Q+vE1vmN15kb1Pku81RLgsUQeeQgtojT6HT9+fPv27StWfP7ee7OSk8f+kJOYMNicLCaISIVPEg9EgwseiAAgjpF4AKoh8UB4Gdxn+wGPrz6JKE29Af7EyEM44dnoR+KBiGqQeCDqFjwQAUAcI/EAVEPigfAyuM/2Ax5ffRKeTb0BfsDIQzjh2ehnTTxs2rx02PC+Eq+/MdRdviz9HVU+d96kw4VZatkpsW4r1T5aPE1t6OxNFarlca/0N/cmkfHlHHe1wPHNqppW4u6eE7Xqm7sb9akWIrTzZu7Nelzm/s1q9dmbWVjj3tyHH2aQeCDqFjwQAUAcI/EAVEPigfAyuM/2Ax5ffRKeTb0BfsDIQzjh2ehnJh727vuqX78nP1o8TeL9D1LGjnvJWfXcc4+PGv3CtOlj7r33zk2bl95xx42qmsTarEXWbaVa06b/NmZsP/fepPCxx7qpfV588UWyt+OlW9RWV1/9mw9SX5eFHTuXq22XfDxDqnXt+nvVqLPhvv2rpETrvAp331Rvg/VN60boakOG9J6f9mawIzW74YR23sxGzeOy7j/0Cant3sxC65Famwg/SDwQdQseiAAgjpF4AKoh8UB4Gdxn+4HHj6+p8xalr1hllkcpho0cm3egFsOaVJZNzHIJ6XaPno9Gr/OeTb0BfiAjz7LsYvlKJHikby32bPQzEw/l53ILDmUGjm+W2JL9qXui+bnnHs/4co6ay3bPRzthTnlLSffud5WeyHZK3NUefPDuZenvuJu47bY20q6zt3/4h//1WspgKbnssiZqbz163CPfVpzfFTrxYOYnzEJrN9zVpJWiI+tVo6NGv/Dx0rcrq/aoVSHOkhYfLpicPOHlM2d3hG5UHZezN+v+rSfEujfzSLX9a9VCHKm1ifDDy8QD42fchIyBPBABQBwj8QBUI/c93MgS3gT32T6R6m3iYeCgpCnTZpnlUYqbb2mfnZNnlgcLqSybmOUSuXsLevR8NHqd92zqDfADj0cews/h2ehnJh7KTm59/Y2ht93WRqJt2+vdE811SzwEywHs3pMhX7duS3c3oSUepII02qhRI1lWe2vS5OdS5513k2XzYJPgIRp1F1q7YR6XanTcK/2djlWFPEvuUNU+XDC5xkbVcTl7s+7fekKse3MOQZp2nzcVQ4b01qqpsB6ptYnww8vEg3kdEQ03eCACgDhG4gGohlc8EF4G99l+EOLxNS07s+XUPheN6SpfZdmsUIfIP1RcUFRqlkcpIph4CEQ5a+LZ1BvgByFGHiLRwrPRz0w8mBP0anl7zmdJSX1278kwMwohtjVLnGruNIazBzPxsOijqVIzZ8fn7r1JNTXzrnXAvaG1UXehtRvmcTndGPdK/7PlO0M0YYZZrcZGazxv5gnR9nawYM2QIb1ff2OoxJ///EA4Pyx3ifVIrT+scILEA1G34IEIAOIYiQegGhIPhJfBfbYfBHt8TcvObJbyyJKcjQcDZfJVls3cQ3ZOXsvWbVImTmnarLlE6rxFx0rLrYWq/uzUtMaNL3bm7qVc1qpqTk1roaovGzZq1Cj01L97c+mD9ET6Y92nlmNQKYoQnQ9UTzxY92n2J/zwbOoN8INgIw+RgOHZ6Bc68fDII12dieZ33k1WH0Fszoxbt3Wq/epXzT77fLZToqpJ4ajRLxwuzKox8aDtTZVEKvFgdsNd7eixbydOGuaULEt/Z+DAZ8wm3GdJizo0ap5eZ//WaubeJHbvyZCfl0Turi+0vamD0vYW+kitTYQZJB6IugUPRAAQx0g8ANWQeCC8DO6z/SDY42vLqX0Wb9/gfCvLUqLVyc7Ja9z4YudDEZy5e7PQ2cQ9d69N/ffq3Td3b4E1H6CWFyz+VL6Vr85aM9ybSx+kJ6pL5j6DFdat81rNOoRnU2+AHwQbeYgEDM9GPzPxcPpMzpt/G37ddVdJqDfqkcKduSueffaRI0c3VNlmxq3bduzYbu++r6TaPfd07N//Kaek6sJcdqNGjdxpDGcPNSYefvazi2VXc+dN2pP3ZbBJcHPDqiB9M7threbsbWXGnOeff0Kr5pwlM5wOS1x11a8aN/6nwUOeNRs1O2zdv1nNegjuMPfm/BTMQuuR1thE6CDxQNQteCACgDhG4gGohsQD4WVwn+0HwR5fG4/p+l2gzPlWlqVEq2OdfNcKtY93DjF37xT++jdXSB0VslyrCf1wulTbQudbrfP16acZnk29AX4QbOQhEjA8G/3MxENkw5qfSJzYmbsiKamP8+3KjDlvTR1tVovjIPFA1C14IAKAOEbiAaiGxAPhZXCf7QfBHl/DfMWDOU1vTSc4EU7ioWmz5lLNifxDxeZ+gkU4XaptofOt1vn69NMMz6beAD8INvIQCRiejX7RTjzkH/h6xtvjzHIiQYLEA1G34IEIAOIYiQegGhIPhJfBfbYfBHt8DfMzHsxpems6wYlwEg9moYr0Fat69HxUvpqrgm1u7VJtC51va+x8fcKzqTfAD4KNPEQChmejX7QTD0SCB4kHom7BAxEAxDESD0A1sUo8aG/GUv+YNHn6uk3bzXLCy5AfgfwgzHInuM/2gxCPr2nZmS2n9rloTFf5amYdAhcm381PRAg9Ix9i7t76GQ+qUC1PCePDpd2bh/8ZD+6a5hE5G9bYeefbOoRnU2+AH8jIsyy7WL4SCR7pW4s9G/1IPBBRDS8TD4yfcRMyBvJABABxjMQDUE2sEg/a7J4ZCxZ/Gnq20R1Sc9z4lHq+7UkEo1adrzFy9xbI6XJideZGs060I8wjkh+B/CBC1OQ+2w9Sgyceagy5bFu2bpMycUrTZs0lUuctOlZaHizxsDxjjdRp3PjiSy75F1nI2ZUvlWUTta2zubVQ7aGgqFR2Ll/NnTvh3lw6Jt2TTaz7tNa0HlH4nTf7E354NvUG+EF9Rh4izsKz0Y/EAxHV8DLxYF5HRMMNHogAII6ReACqCZF4qPF/n+sTNSYepkybNXBQklluDfd/JfshatX5GkNNjKoZUolOnbvk7Mo3q0U1wj+i0DW5z/aD+jy+BssxEHUIz6beAD+oz8hDxFl4NvqReCCiGiQeiLoFD0QAEMdIPADVBEs8pGVnXjbh4X7LXhm5cqx8lWVr7kGbhXTez8T8D2Lr/xpb/4NY/QP1qLHje/XuKwuFxacC1f+pWftfY22m29q6tdC6z/rXNDtvPUtO52v1TjLO5sFaD7+f4des1REFQuaBuM/2g/o8vubuLZDfBLOcqEN4NvUG+EF9Rh4izsKz0W/ChDEEEc0g8UDUJXggAoA4RuIBqCZY4uF3b/V+evGg0StHq5BlKTGrWSegs23vme6u6by7ujaJqWqqdxb69W+uaNqs+c0/vrOQtSG1bCYerK1bC8191rNmbTu/YPGn8q18ddaaIZWvaXHt0vSVKnr0fFS9Lb7ZurWhetas7REFSDz4Ho+vPgnPpt4AP2DkIZxg9ANqhfEzzoIHIgCIYyQegGqCJR7+afQ9Q5ePcBIPsiwlZjXrBHT4hYEL/0A9ZdosFb/+zRXO/LWZTpC1YdY0G9IK1Udbh1PTKTRbt+5TLYfTJefbGkMqX/qLJj16PqpCfYa2tXVrQ8EKo3dEJB58jsdXnwRTb0gojDyEE4x+QK0wfsZZ8EAEAHGMxANQTbDEw2/f/NMTC/s5iQdZlhKzmnUCOvzC/EPFAwclOdG0WXNn/tqc6Za17srOR0mbNc2GtMLwazqFZuvWfaoIp0vmVsHC2lA4hbE6ooEkHvyNx1efBFNvSChz1jLyED9E6SlGP6B2GD/jLNLW80AEAHGLxANQTbDEw/ubVl7yyr1/WvRS0vIR8lWWpcSsZp2ArmehWg490+2O0DWtDYVf01po3dwdWpcKikrHjU+ZNHm6LMvXS3/RxDnM9BWrevR8VL6aO3HC2lA4hdbOWwutm7sj/CMKkHjwvWgnHtyvlQld2EAjdd6i0NdsmMHUGxLKgg1HCkr++8OZiESOr3cfX7OnVP/9ABAc42c8xeFA+Ucbj+o/YwBAvCDxAFQTLPEgMX3dp//n9R7/76i75assmxUC1aeqnU9uyLZ9VECwmmah+jZ0OqFX7765ewvUsixITedjEmpsPdg+nZo1bq5at+5ThdZ5ifxDxePGp0h9+XpNi2vdh1nbD5cOvzAmRyQ/CKnp/HS0IPHgB9FOPKjfsXAKvY/VmRulJyrUB5aokN/b0JehO0Kk1moVJB6QUE6VVy7ccCRtfZH8ISASNtLWH9lecFL/5QAQEuNn3MSHG4oWfXtUfqD6zxgAEC9IPADVzA+eeAgnjpWWp85b1LRZc4mUiVNatm6jJrVlQb5V5VJBqllrWgvVnguKSgdeePOl5RlrtIacfTrdcM8DWlu3Tqlb92ndPFhNc58qtM47hbKJfHXPwDqF5k6csDZkLQzWTy+PyExRuGM+iQcfCJF4SMvObDm1z0VjuspXWTYrhBPWHIO10OPI2ZXfqXOX7AtjlIQsS4laFfr3Vov8Q8Whr1kt/tj9Aachd5B4AAAAAAAgbpB4AKqpZ+LBGiHmr6MXffq+qObE69l6PTcPFoXFp6zTnR6El0ckPwL5QZiVnSDx4AfBEg9p2ZnNUh5ZkrPxYKBMvsqymXuwpqysGURrYXbYabDwC1XH6vDiIZUPUCm3UWPH9+rdVxbkF1vVNPuptpqdmta48cWhM53asQe75Ek8AAAAAAAQN0g8ANVEI/GQu7egV+++Zrk3Uc/W67l5sAj2Bi8ehK+OiMSDHwRLPLSc2mfx9g3Ot7IsJVod7ddJvY7BPaEf+o3UssN44y9rofXdwNxvubZg8aeyynnLNWtI5R49H12avjLb9doLKZQNf/2bK5o2a+78Mlv76WyivcTKrOnup2rR2dYdJB4AAAAAAIgbJB6AaqKReCCIYEHiwQ+CJR4aj+n6XaDM+VaWpcSslru3YMq0WSp+/ZsrzCSBOfkerFB94rQUyn60fUp5r9595Vt3WstaWKtYt2l7j56PqsyB+5NItLdasvbT+VZLPIQ+TBIPAAAAAAAkAhIPQDVzskg8EN4FiQc/CJZ4COcVD/mHigcOSnKiabPmZjrBnHwPVqhCCmU/7t1KK6rcKcn+8QUH1sLaxtL0le6GAjUlHrQYWFPiQTtLwfpJ4gEAAAAAgLhB4gGoJmNnycodAXNGjCAiHgUl5YuYafWBYImHcD7jwTrPXudC6z61WJ25ccq0Wb1693W/5sAsTF+xqkfPR+WruQcnpLLznkiB6m+gFNnEQ+BCbqPtje2k2satueYeVJB4AAAAAAAgbpB4AHSb88tSM4tSMwsTNt5Mz5+24qBZHsGQ/UsrZnnixNyswg/XHzlVXqn//sFzqUESD4ELuYeWU/tcNKarfDWzDoHq8+w1fpxD6ELrPgM/fnKD9cMkrIVqeUrtP1w62omHS3/R5OaQH4JC4gEAAAAAgLhB4gFANRmbjt47eG15RXQnxGX/0oq0pa8APBci8VBjHCstT523qGmz5hIpE6e0bN0mOycv/ELrhL67poQsS0n4hWonBUWlsnP5avY5dEPO5gMvvHPU8ow1ASOd4ISslTqNG198ySX/Igs5u/KtiQcp79S5izpeCVmWEnNvJB4AAAAAAIgbJB4A/LfKyqoZH++7q/+aZ9/YrK+LAmlF2pIWpV19HeCh+iQeiHCCxAMAAAAAAImGxAOAH5w4VTFg6jaJmZ/sn/xRnr46CqQVaUs1Kq3rqwGvkHjwIFZnblTvs8RbLQEAAAAAkAhIPAD4Pu/Qyf8as0G9+GD4OztWbvTiHZCkFWlLvcxCWpc+6DUAT5B48EmQeAAAAAAAIG6QeAASXcamo92TspyPW3hg+LrCkrPVq0SFtCJtqWWtD4CXSDz4JEg8AAAAAAAQN0g8AInLfLWBOxngAXeSw/2qi+q1gOgi8eCTIPEAAAAAAEDcIPEAJCjnQx3cn6+g3v7IVSu6tLd1snYJiLbUzMJl2cXylYhhpG8tJvEAAAAAAEDcIPEAJKJgLy+Y/FFeWsZBd0lUSVvaB1mbL8IAoi2VVzz4I0g8AAAAAAAQN0g8AAknxAcqPPvG5q17S/XSqJG2pEW9NGQPgYgj8eCTIPEAAAAAAEDcIPEAJJDQrzjFXeMAABR7SURBVCcor6i8e2CmfNVXRE2IFoO9JgOIOBIPPgkSDwAAAAAAxA0SD0CiqPETFIK9/iCqQrzGosYOAxFB4sEnQeIBAAAAAIC4QeIBSAjhvIDA/MQFD4T+VInQL9EAIoLEg0+CxAMAAAAAAHGDxAMQ/44eL+82NOv5v2WfPHNeX+cy/J0dKzd6/bEK0qK0q5e6SJ+l59J/OQp9HRAJJB78EMdJPAAAAAAAEEdIPAAJ4ejx8gnzdt83LGvRqkMV5+0venhg+LrCkrN6aZRJi9KuXnqB9FN6K32WnpN1QPSkrT9SUFJuToUTXsaq3ONr9tjfdQ0AAAAAADQ4JB6ABLLv8KnBM7Y/MmaD+cqGEAmAaLMmPKSH0k/prfRZWwVEVtnZyvnrjszJKkzNJGIRawvnri3adpC3UwMAAAAAIH6QeAASzuY9x5+esOmhEetkwSms8S2Pokd7iyfplfRNeujuHgAAAAAAAICGgsQDkIjGfZA7/N0d7pcUhP6Q56hyPtTaeUGG9E16qNcDAAAAAAAA0BCQeAASTs7+Ew+NXH+m/Lz7QxT+PH7j1r2xeYN1aVdad38EhfRNeij91KsCAAAAAAAA8D0SD0Biqar6vs/ELcs3FDklJ8+cn/nJ/i6DMssrKl0VvSPtSuvSB+mJUyg9lH5W2T8GGwAAAAAAAIB/kXgAEssX3x559o3N5oR+2ekKvchDZuvSQ+mn9FYrBwAAAAAAAOBzJB6ABHK2vLLHqPXb9jWMtzCSfkpvpc/6CgAAAAAAAAA+RuIBSCAHj56e+cl+vdTHpLfSZ70UAAAAAAAAgI+ReAAAAAAAAAAAABFD4gEAAAAAAAAAAEQMiQcAAAAAAAAAABAxJB4AAAAAAAAAAEDEkHgAAAAAAAAAAAARQ+IBiHNnys+v+PaIXtoAyVHIseilAAAAAAAAAHyGxAMQ595Zlj8uNVcvbYDkKORY9FIAAAAAAAAAPkPiAYhnhSVnuw3NOnq8XF/RAMlRyLHIEekrAAAAAAAAAPgJiQcgno2cvfODzw/opQ2WHIsckV4KAAAAAAAAwE9IPABxKzuv9OHR68srKvUVDZYcixyRHJe+AgAAAAAAAIBvkHgA4lNV1fdPv7bpq81H9RUNnByRHJccHQAAAAAAAAB/IvEAxKcDRadHvLtDL40LclxydHopAAAAAAAAAH8g8QAAAAAAAAAAACKGxAMAAAAAAAAAAIgYEg8AAAAAAAAAACBiSDwAAAAAAAAAAICIIfEAAAAAAAAAAAAihsQDED8qzldt3Vuql8Y1OV45ar0UAAAAAAAAQOyQeADix4cZB4e8naOXxjU5XjlqvRQAAAAAAABA7JB4AOJEyYlz3YZmHTx6Wl8R1+R45ajl2PUVAAAAAAAAAGKExAMQJybM2z394316aQKQo5Zj10sBAAAAAAAAxAiJByAe5B4oe2D4ulNnz+srEoActRy7nAF9BQAAAAAAAIBYIPEANHhVVd/3nbTls3VF+oqEIccuZ6CKD5kGAAAAAAAAfIDEA9Dg5R06+dyb2Yk87S7HLmdAzoO+AgAAAAAAAIDnSDwA8SCRsw4KZwAAAAAAAADwCRIPAAAAAAAAAAAgYkg8AAAAAAAAAACAiCHxAAAAAAAAAAAAIobEAwAAAAAAAAAAiBgSD0CDdL6yquDoGb0UF8iZkfOjlwIAAAAAAADwBIkHoEFavPrQoOnb9VJcIGdGzo9eCgAAAAAAAMATJB6Ahqf0ZMV9w7L2HT6lr8AFcmbk/MhZ0lcAAAAAAAAAiD4SD0DDM2lh3t8W5emlcJHzI2dJLwUAAAAAAAAQfSQegAZm76Ef/p2/7DT/zh+KnB85S3Ku9BUAAAAAAAAAoozEA9DA9Juydck3h/VSGOQsybnSSwEAAAAAAABEGYkHoCHZkV/2VPKmysoqfQUMcpbkXMkZ01cAAAAAAAAAiCYSD0ADc/ZcpV6EIDhXAAAAAAAAgPdIPAAAAAAAAAAA8P+3d/dBVlb3HcB3xj9tJ01nSmhGbW3/aFBebHhTXoQFFDOJYqJFJbY2jg5NKvUFhBUU303RyGimRqNSRFkEFIJUZBlfqFJclaoB1ETUWlACrCxXghoRtT36JHdunnN39yL3cp8n+/nMb3Yu557n3PucH3+d7969VI3gAQAAAAAAqBrBAwAAAAAAUDWCBwAAAAAAoGoED5B1n376f3s+2JceZT+FPQw7CQAAAADUmuABsu6x59uafvpSepT9FPYw7GR6FAAAAACoNsEDZNqHez8565p1L7/56/QT7Kewh2Enw36mnwAAAAAAqkrwAJl2T8vmG+a/mh7lCwk7GfYzPQoAAAAAVJXgAbKrrfDhaVc8G36mn+ALsZ8AAAAAcBAIHiC7rr/v1XtXbUmPcgDCfoZdTY8CAAAAANUjeICM2vTWngnX+k6CKgv7GXY17G36CQAAAACgSgQPkF3+KFAt2FUAAAAAqCnBAwAAAAAAUDWCBwAAAAAAoGoEDwAAAAAAQNUIHgAAAAAAgKoRPJBvez78ZNFzbQue2d7cqqpW9z+7/YF1be/v/SS93bX08817mlt3xG9Gla0Fz+x46e330psIAAAAABkgeCDfFq9r27prb+G9j1V1K+zq0ufb0ttdM2s2vfvELwrx21Cd1JOvvvvUpkJ6KwEAAACg3gQP5Ftz6/b4QFZVpRY9tyO93TUTXit+A6rLWrzu4PUIAAAAACokeCDfBA+1K8FD9mvJQfxUCgAAAABUSPBAvgkealeCh+yX4AEAAACADBI8kG+dBw9tuz9YuGLZeRdOPG7EkK/17tWzZ89evY8a1jh80pSLWx5/cteeffElqljZCR5Cp5atWvVPl0waMnJor9/2sVd4HEbCeHfuo+ABAAAAgAwSPJBvHQUP7Xs+mvvg/IHDBg0YMvC8aRNvXnzrnMfnLVm/PPwMj8PIgKEDh44Y/nDL4/G1KqmMBA8PPrzi2OHHddjHIQPDs2FOfGF3KMEDAAAAABkkeCDfygYPW9t3n3PBuX36973iJ1cvWb+8owrP9ut/zOSpTTt3740XUXUPHkJffnDJv/StoI9hTpjZDfsoeAAAAAAggwQP5FscPGxt3z321JNGnzymuXVRfEidqjDnhFNOHH/WhG54Zt1l1Td4CB055fRvV97HMDPM7259FDwAAAAAkEGCB/ItFTy07/nonAvOHX3ymAdeXBYfT5etMHPsuJMubZoRn+p286pv8HDB5Iv3t49hfrgqvpE/4BI8AAAAAJBBggfyLRU8zH1wfp/+fec/nf4d+Zl3XDPtlhnFWvzCz0qfDfO/PrD/ilWr44Pd7lx1DB6Wr3ysb/9+cR87b2WYH64K18b38odaggcAAAAAMkjwQL6VBg9tuz8YNGxw/H0A18+b1fD7pt0yY+G6JaVzrrr9usZRo3ft2Ref7XbbqlfwELowdOTwuI+VtDJcFa7tPn0UPAAAAACQQYIH8q00eFi4YtmAoQPj0+pD//jQhoaGc6een1RyYH1Hy92paUNHDH909dpkqbbCbza88kaxXvvfbfGZb5c19hvf3LJtV/Gf11w/q8dXehZHwku8seW3p+07d+/t/CXefPud7e3vpwZT6yfTxp/53RPGfqPzaRVWvYKH0IWBQwfHfaywleHaYh+T2rpjd9LHVzZtLnS88xVOK1tlG1SINr9sg+JplZfgAQAAAIAMEjyQb6XBw3kXTTx/2sSyp9VH/s1fFf/ZOG50fFod6qKZk5umz0yWWtP6wmGHH/HNk8cldeXV18dnvl3WlGkzftX269KRYcNHbP5Ve/I4vMTxIxpf3LgpPN7wyhvhVeIVivX9f77w4ZYnUoPx+hVOq7DqFTxcMq2pbB8rbGW4NqxQXG3Ltl3X3nBj0sfxZ373sf9sDTs/4exzkmeLO1922gE2qBBtfoXTKi/BAwAAAAAZJHgg30qDh+NGDLl50a1dnlZf/K9TvnX2KfPWLEhNu23JnWNOODFZqvRsuliv/s/WpukzQ2145Y0rr7lhzrwFycxk8Ic3zi6d/OCyR8Jg6rfgU8FDQ0NDclXxXLuj1eID67LrVzIt9RLhppoXLk2mpV60XsHDiFGNZftYYSvDtWGF0vtNxQxhpE/ffo+ufjqMXDR5WnHn42lxg5KZcY/inS+U2/xKpsXrd9IjwQMAAAAAGSR4IN9Kg4evHd1rzhP3dnla3VHds7q5b79jioe/cfCQ/Ap888Kl3ztv4tz7Fs760S2zbr510oWTw0ioO+fcW/rBiKefW9/rqKOLMUNS8SceLrn0stZ1G5Jz7fUvvx6vFgbDU0ce+dfHHjf0H889v6P1K5+Weok1n3+2Y+ZV18W3UK/g4eg+vcv2cUllrQzXhhWKq5W2cts7e5KPMhQThS996U/i4KE4LdWgshvY0c4Xfn/zK58W/x/opEeCBwAAAAAySPBAvpUGD4cdftji538Wn0RXclr9Wb3wH0cccUSy1JrWF7785T/t07dfqOJf5C+eTSf5QfPCpVObLv/l62+Fx6HWPvvz1F/jKY0Z4pFktYunND247JHkVDr+pfvC775t4ux/+N6ceQuS7x4ou1qF08JLnD7+rNI3HEbGnXraW9sL4dmXfvnm350xoXhhvYKHww8/vGwfl1TWynBtWKG4WtiZf7v97tDHh1ueSG4zueVJF04+4i/+Mmx+cZ/jaakGFQeTlZMedbLzhZLNr3Ba3KBksKMeCR4AAAAAyCDBA/lWGjz06n1An3i4/6klXX7iIRU8TL70sh/eODv8M9SAQYO/QPCQDIbHHQUPSZX9Ez3x+l1OCy/R4ys9kzccasq0GWXvNKl6BQ+9+/Yp28cllbUyXBtWiG8nbE7Y0tZ1G5Jbvmn2j8MOhH+mupaaVihpUKFc8FC8Kt755NrSHnU5LW5QMthRjwQPAAAAAGSQ4IF8Kw0eho4cVva7AVKn1ePO+XaPr/a469G56QPr5fd1/h0PcfBw7nkTyx5DJxUHA2WDh5tm/3jKtBkHLXhI3Vc8Uqx6BQ+NY8aU7WOFrQzXhhWKq72+efvS5S3J4+KXN8T73Mm0YoMKByV4iNtRdjApwQMAAAAAGSR4IN9Kg4dJUy4+f9rELk+rG8eNbmhouKPl7tS06dde2TR9ZidHvZ0HD2dO+PsvFjwUfvdNAx0dahc6OLCO1+9yWulLvLFlx6wf3VL2TpOqV/AQuvD96ZPiPlbYynBtsY+pW+4keIgH4waVnZY8LrvzhahHXU6LG5QaTJXgAQAAAIAMEjyQb6XBQ8vjTw4cOig+rf6zP+/R0NBw9IA+SYXHhxxyyE9X/XvpnIc2rhzROOrR1WuTpdaUfMdDqB9ccFHp+W8xeJgydfpNs3+czJnXvLh4DH3/4mVh5NBD/+ioo3sn18YjpafJSx5aGa7dvvO94mojG0evf/n14q394rUt3zn9jOK3TcSrJZU6146nxS/RyaF2vYKH0IUhxw+L+1hhK8O1xT52ecvF8KDzaUmDyk5LJqQaVCi3+YWoQfG0sut30iPBAwAAAAAZJHgg30qDh1179g0bOfyKn1wdH1j3+OpnB9ZF961dmJpw2713jRo9JqwQn+1226pX8BC60DhqzNV3XB/3sctWhqvCtd2nj4IHAAAAADJI8EC+lQYPoR5uebxf/2PmP70oPrDupB7675WDBh+7YtXq+GC3O1e9godQoRcDBg3c3z6G+eGqbtVHwQMAAAAAGSR4IN9SwUOoyVObTjjlxAdeXBYfTJet5RtaTht/xtSmy+NT3W5edQweQoWOfOs74yrvY5gZ5ne3PgoeAAAAAMggwQP5FgcPO3fvHX/WhLHjTmpu7fr35Zc/v/K08WecOeHscFV8qtvNq77BQ+hI6Mspp53a3Lo4blyqwpwwsxv2UfAAAAAAQAYJHsi3OHgofH5mfWnTjK8P7H/V7dfFh9RJPbRx5W333jVo8LFTmy7vbqfVFVZ9g4fC530M3Rk4aPCsu2fHHSxWeDbM6Z59FDwAAAAAkEGCB/KtbPCQ1IpVq0eOGjX0+OEXXj75tqV33vNE87INjyx46oG5y+dfds3MEY2NjaNGd6vvA9jfqnvwkFToUejU8BEjplx52R3L5tz35GcfZAk/w+MwEsa7cx8FDwAAAABkkOCBfOskeAi1a8++R1evbZo+84QTx/Y75m979uwZfobHYSSMh2fjS1SxMhI8FPSx4xI8AAAAAJBBggfyrfPgQR1IZSd4UB2V4AEAAACADBI8kG+Ch9qV4CH7JXgAAAAAIIMED+Sb4KF2JXjIfgkeAAAAAMggwQP5JnioXQkesl+CBwAAAAAySPBAvjW3bl+5oT38VNWtlo3tBzl40Mf9rdAjwQMAAAAAGSR4IN+afeKhZnWQg4f4DaguS/AAAAAAQAYJHsg3wUPtSvCQ/RI8AAAAAJBBggfyTfBQuxI8ZL8EDwAAAABkkOCBfBM81K4ED9kvwQMAAAAAGSR4IN8ED7UrwUP2S/AAAAAAQAYJHsg3wUPtSvCQ/RI8AAAAAJBBggfyTfBQuxI8ZL8EDwAAAABkkOCBfGtu3b5yQ3v4qapbLRvbD3LwoI/7W6FHggcAAAAAMkjwQL41+8RDzeogBw/xG1BdluABAAAAgAwSPJBvgofaleAh+yV4AAAAACCDBA/km+ChdiV4yH4JHgAAAADIIMED+SZ4qF0JHrJfggcAAAAAMkjwQL4JHmpXBzV4WNcWvwHVZQkeAAAAAMggwQP5tuCZHbui01h14BV2dfG6g3eovWL9zjfbfhO/DdVJbWn/cOXG9vRWAgAAAEC9CR7It5fefu/JV9+Nz2TVgdTu9z/+r9fefXnre+ntrpmPPv50zpptm9+RPVRaW9o/nLt2W9i39FYCAAAAQL0JHsi9ta+/u+T5NlXFWvTcjqc2FdIbXWP7Pvn0kY074zejylbYq7Bj6U0EAAAAgAwQPAAAAAAAAFUjeAAAAAAAAKpG8AAAAAAAAFSN4AEAAAAAAKgawQMAAAAAAFA1/w99zXvg2LTQdwAAAABJRU5ErkJggg==;" vertex="1" parent="1">
            <mxGeometry x="-630" y="30" width="2088" height="658" as="geometry" />
          </mxCell>
        </UserObject>
        <UserObject label="" plantUmlData="{&#xa;  &quot;data&quot;: &quot;@startuml\nskinparam state {\n  BackgroundColor #EFF4FC\n  BorderColor #70AD47\n  FontSize 13\n}\n\n[*] --&gt; Idle\n\nIdle --&gt; CriteriaEntered: Ввод параметров\nCriteriaEntered --&gt; Searching: Нажатие \&quot;Поиск\&quot;\nSearching --&gt; ResultsShown: Найдены результаты\nSearching --&gt; NoResults: Нет результатов\n\nstate ResultsShown {\n  [*] --&gt; ListView\n  ListView --&gt; DetailsView: Выбор объекта\n  DetailsView --&gt; ListView: Назад\n}\n\nNoResults --&gt; CriteriaEntered: Изменить критерии\nResultsShown --&gt; CriteriaEntered: Новый поиск\n@enduml&quot;,&#xa;  &quot;format&quot;: &quot;svg&quot;&#xa;}" id="TXvXWFRMx7JduoYhu3wI-2">
          <mxCell style="shape=image;noLabel=1;verticalAlign=top;aspect=fixed;imageAspect=0;image=data:image/svg+xml,PHN2ZyB4bWxucz0iaHR0cDovL3d3dy53My5vcmcvMjAwMC9zdmciIHhtbG5zOnhsaW5rPSJodHRwOi8vd3d3LnczLm9yZy8xOTk5L3hsaW5rIiBjb250ZW50U3R5bGVUeXBlPSJ0ZXh0L2NzcyIgZGF0YS1kaWFncmFtLXR5cGU9IlNUQVRFIiBoZWlnaHQ9IjcyMXB4IiBwcmVzZXJ2ZUFzcGVjdFJhdGlvPSJub25lIiBzdHlsZT0id2lkdGg6Mzc0cHg7aGVpZ2h0OjcyMXB4O2JhY2tncm91bmQ6I0ZGRkZGRjsiIHZlcnNpb249IjEuMSIgdmlld0JveD0iMCAwIDM3NCA3MjEiIHdpZHRoPSIzNzRweCIgem9vbUFuZFBhbj0ibWFnbmlmeSI+PGRlZnMvPjxnPjxwYXRoIGQ9Ik0xOS41LDg3IEwxNDMuOTkwNCw4NyBBMTIuNSwxMi41IDAgMCAxIDE1Ni40OTA0LDk5LjUgTDE1Ni40OTA0LDExMC45MTQxIEw3LDExMC45MTQxIEw3LDk5LjUgQTEyLjUsMTIuNSAwIDAgMSAxOS41LDg3IiBmaWxsPSIjRUZGNEZDIiBzdHlsZT0ic3Ryb2tlOiNFRkY0RkM7c3Ryb2tlLXdpZHRoOjE7Ii8+PHJlY3QgZmlsbD0ibm9uZSIgaGVpZ2h0PSIyNTIuOTE0MSIgcng9IjEyLjUiIHJ5PSIxMi41IiBzdHlsZT0ic3Ryb2tlOiM3MEFENDc7c3Ryb2tlLXdpZHRoOjAuNTsiIHdpZHRoPSIxNDkuNDkwNCIgeD0iNyIgeT0iODciLz48bGluZSBzdHlsZT0ic3Ryb2tlOiM3MEFENDc7c3Ryb2tlLXdpZHRoOjAuNTsiIHgxPSI3IiB4Mj0iMTU2LjQ5MDQiIHkxPSIxMTAuOTE0MSIgeTI9IjExMC45MTQxIi8+PHRleHQgZmlsbD0iIzAwMDAwMCIgZm9udC1mYW1pbHk9InNhbnMtc2VyaWYiIGZvbnQtc2l6ZT0iMTMiIGxlbmd0aEFkanVzdD0ic3BhY2luZyIgdGV4dExlbmd0aD0iNzgiIHg9IjQyLjc0NTIiIHk9IjEwNC4yODkxIj5SZXN1bHRzU2hvd248L3RleHQ+PGVsbGlwc2UgY3g9Ijc4Ljk5MDQiIGN5PSIxMzEuOTE0MSIgZmlsbD0iIzIyMjIyMiIgcng9IjEwIiByeT0iMTAiIHN0eWxlPSJzdHJva2U6IzIyMjIyMjtzdHJva2Utd2lkdGg6MTsiLz48ZyBpZD0iUmVzdWx0c1Nob3duLkxpc3RWaWV3Ij48cmVjdCBmaWxsPSIjRUZGNEZDIiBoZWlnaHQ9IjUwIiByeD0iMTIuNSIgcnk9IjEyLjUiIHN0eWxlPSJzdHJva2U6IzcwQUQ0NztzdHJva2Utd2lkdGg6MC41OyIgd2lkdGg9IjcyIiB4PSI0Mi45OTA0IiB5PSIxNzguOTE0MSIvPjxsaW5lIHN0eWxlPSJzdHJva2U6IzcwQUQ0NztzdHJva2Utd2lkdGg6MC41OyIgeDE9IjQyLjk5MDQiIHgyPSIxMTQuOTkwNCIgeTE9IjIwMi44MjgxIiB5Mj0iMjAyLjgyODEiLz48dGV4dCBmaWxsPSIjMDAwMDAwIiBmb250LWZhbWlseT0ic2Fucy1zZXJpZiIgZm9udC1zaXplPSIxMyIgbGVuZ3RoQWRqdXN0PSJzcGFjaW5nIiB0ZXh0TGVuZ3RoPSI1MiIgeD0iNTIuOTkwNCIgeT0iMTk2LjIwMzEiPkxpc3RWaWV3PC90ZXh0PjwvZz48ZyBpZD0iUmVzdWx0c1Nob3duLkRldGFpbHNWaWV3Ij48cmVjdCBmaWxsPSIjRUZGNEZDIiBoZWlnaHQ9IjUwIiByeD0iMTIuNSIgcnk9IjEyLjUiIHN0eWxlPSJzdHJva2U6IzcwQUQ0NztzdHJva2Utd2lkdGg6MC41OyIgd2lkdGg9IjkxLjUiIHg9IjMzLjQ5MDQiIHk9IjI3OS45MTQxIi8+PGxpbmUgc3R5bGU9InN0cm9rZTojNzBBRDQ3O3N0cm9rZS13aWR0aDowLjU7IiB4MT0iMzMuNDkwNCIgeDI9IjEyNC45OTA0IiB5MT0iMzAzLjgyODEiIHkyPSIzMDMuODI4MSIvPjx0ZXh0IGZpbGw9IiMwMDAwMDAiIGZvbnQtZmFtaWx5PSJzYW5zLXNlcmlmIiBmb250LXNpemU9IjEzIiBsZW5ndGhBZGp1c3Q9InNwYWNpbmciIHRleHRMZW5ndGg9IjcxLjUiIHg9IjQzLjQ5MDQiIHk9IjI5Ny4yMDMxIj5EZXRhaWxzVmlldzwvdGV4dD48L2c+PCEtLWxpbmsgKnN0YXJ0KlJlc3VsdHNTaG93biB0byBMaXN0Vmlldy0tPjxnIGNsYXNzPSJsaW5rIiBkYXRhLWVudGl0eS0xPSIqc3RhcnQqUmVzdWx0c1Nob3duIiBkYXRhLWVudGl0eS0yPSJMaXN0VmlldyIgZGF0YS1zb3VyY2UtbGluZT0iMTUiIGRhdGEtdWlkPSJsbmsxNCIgaWQ9ImxpbmtfKnN0YXJ0KlJlc3VsdHNTaG93bl9MaXN0VmlldyI+PHBhdGggZD0iTTc4Ljk5MDQsMTQyLjA2NDEgQzc4Ljk5MDQsMTUxLjMzNDEgNzguOTkwNCwxNjAuMDU0MSA3OC45OTA0LDE3Mi42OTQxIiBmaWxsPSJub25lIiBpZD0iKnN0YXJ0KlJlc3VsdHNTaG93bi10by1MaXN0VmlldyIgc3R5bGU9InN0cm9rZTojMTgxODE4O3N0cm9rZS13aWR0aDoxOyIvPjxwb2x5Z29uIGZpbGw9IiMxODE4MTgiIHBvaW50cz0iNzguOTkwNCwxNzguNjk0MSw4Mi45OTA0LDE2OS42OTQxLDc4Ljk5MDQsMTczLjY5NDEsNzQuOTkwNCwxNjkuNjk0MSw3OC45OTA0LDE3OC42OTQxIiBzdHlsZT0ic3Ryb2tlOiMxODE4MTg7c3Ryb2tlLXdpZHRoOjE7Ii8+PC9nPjwhLS1saW5rIExpc3RWaWV3IHRvIERldGFpbHNWaWV3LS0+PGcgY2xhc3M9ImxpbmsiIGRhdGEtZW50aXR5LTE9Ikxpc3RWaWV3IiBkYXRhLWVudGl0eS0yPSJEZXRhaWxzVmlldyIgZGF0YS1zb3VyY2UtbGluZT0iMTYiIGRhdGEtdWlkPSJsbmsxNiIgaWQ9ImxpbmtfTGlzdFZpZXdfRGV0YWlsc1ZpZXciPjxwYXRoIGQ9Ik00Mi43MjA0LDIyNi4zMjQxIEMzNS45NjA0LDIzMi4xMDQxIDI5LjgyMDQsMjM4Ljk4NDEgMjUuOTkwNCwyNDYuOTE0MSBDMjAuMTEwNCwyNTkuMDg0MSAyMi40MzA5LDI2Ni40NDIzIDMyLjkwMDksMjc1Ljc3MjMiIGZpbGw9Im5vbmUiIGlkPSJMaXN0Vmlldy10by1EZXRhaWxzVmlldyIgc3R5bGU9InN0cm9rZTojMTgxODE4O3N0cm9rZS13aWR0aDoxOyIvPjxwb2x5Z29uIGZpbGw9IiMxODE4MTgiIHBvaW50cz0iMzcuMzgwNCwyNzkuNzY0MSwzMy4zMjIzLDI3MC43OTAxLDMzLjY0NzUsMjc2LjQzNzYsMjgsMjc2Ljc2MjgsMzcuMzgwNCwyNzkuNzY0MSIgc3R5bGU9InN0cm9rZTojMTgxODE4O3N0cm9rZS13aWR0aDoxOyIvPjx0ZXh0IGZpbGw9IiMwMDAwMDAiIGZvbnQtZmFtaWx5PSJzYW5zLXNlcmlmIiBmb250LXNpemU9IjEzIiBsZW5ndGhBZGp1c3Q9InNwYWNpbmciIHRleHRMZW5ndGg9Ijg0LjUiIHg9IjI2Ljk5MDQiIHk9IjI2MC4yMDMxIj4mIzEwNDI7JiMxMDk5OyYjMTA3MzsmIzEwODY7JiMxMDg4OyAmIzEwODY7JiMxMDczOyYjMTA5ODsmIzEwNzc7JiMxMDgyOyYjMTA5MDsmIzEwNzI7PC90ZXh0PjwvZz48IS0tbGluayBEZXRhaWxzVmlldyB0byBMaXN0Vmlldy0tPjxnIGNsYXNzPSJsaW5rIiBkYXRhLWVudGl0eS0xPSJEZXRhaWxzVmlldyIgZGF0YS1lbnRpdHktMj0iTGlzdFZpZXciIGRhdGEtc291cmNlLWxpbmU9IjE3IiBkYXRhLXVpZD0ibG5rMTciIGlkPSJsaW5rX0RldGFpbHNWaWV3X0xpc3RWaWV3Ij48cGF0aCBkPSJNMTAzLjk5MDQsMjc5LjY1NDEgQzExMS4wNzA0LDI2OS44ODQxIDExNS45MTA0LDI1OC4yNjQxIDExMS45OTA0LDI0Ni45MTQxIEMxMDkuODEwNCwyNDAuNjA0MSAxMDkuNzY3OSwyMzkuMzc3NiAxMDUuNzc3OSwyMzMuODg3NiIgZmlsbD0ibm9uZSIgaWQ9IkRldGFpbHNWaWV3LXRvLUxpc3RWaWV3IiBzdHlsZT0ic3Ryb2tlOiMxODE4MTg7c3Ryb2tlLXdpZHRoOjE7Ii8+PHBvbHlnb24gZmlsbD0iIzE4MTgxOCIgcG9pbnRzPSIxMDIuMjUwNCwyMjkuMDM0MSwxMDQuMzA1OSwyMzguNjY2LDEwNS4xOSwyMzMuMDc4NywxMTAuNzc3MywyMzMuOTYyOCwxMDIuMjUwNCwyMjkuMDM0MSIgc3R5bGU9InN0cm9rZTojMTgxODE4O3N0cm9rZS13aWR0aDoxOyIvPjx0ZXh0IGZpbGw9IiMwMDAwMDAiIGZvbnQtZmFtaWx5PSJzYW5zLXNlcmlmIiBmb250LXNpemU9IjEzIiBsZW5ndGhBZGp1c3Q9InNwYWNpbmciIHRleHRMZW5ndGg9IjMyLjUiIHg9IjExMy45OTA0IiB5PSIyNjAuMjAzMSI+JiMxMDUzOyYjMTA3MjsmIzEwNzk7JiMxMDcyOyYjMTA3Njs8L3RleHQ+PC9nPjxlbGxpcHNlIGN4PSIyNTUuNSIgY3k9IjE2IiBmaWxsPSIjMjIyMjIyIiByeD0iMTAiIHJ5PSIxMCIgc3R5bGU9InN0cm9rZTojMjIyMjIyO3N0cm9rZS13aWR0aDoxOyIvPjxnIGlkPSJJZGxlIj48cmVjdCBmaWxsPSIjRUZGNEZDIiBoZWlnaHQ9IjUwIiByeD0iMTIuNSIgcnk9IjEyLjUiIHN0eWxlPSJzdHJva2U6IzcwQUQ0NztzdHJva2Utd2lkdGg6MC41OyIgd2lkdGg9IjUwIiB4PSIyMzAuNSIgeT0iMTg4LjUiLz48bGluZSBzdHlsZT0ic3Ryb2tlOiM3MEFENDc7c3Ryb2tlLXdpZHRoOjAuNTsiIHgxPSIyMzAuNSIgeDI9IjI4MC41IiB5MT0iMjEyLjQxNDEiIHkyPSIyMTIuNDE0MSIvPjx0ZXh0IGZpbGw9IiMwMDAwMDAiIGZvbnQtZmFtaWx5PSJzYW5zLXNlcmlmIiBmb250LXNpemU9IjEzIiBsZW5ndGhBZGp1c3Q9InNwYWNpbmciIHRleHRMZW5ndGg9IjI2IiB4PSIyNDIuNSIgeT0iMjA1Ljc4OTEiPklkbGU8L3RleHQ+PC9nPjxnIGlkPSJDcml0ZXJpYUVudGVyZWQiPjxyZWN0IGZpbGw9IiNFRkY0RkMiIGhlaWdodD0iNTAiIHJ4PSIxMi41IiByeT0iMTIuNSIgc3R5bGU9InN0cm9rZTojNzBBRDQ3O3N0cm9rZS13aWR0aDowLjU7IiB3aWR0aD0iMTE3LjUiIHg9IjE5NyIgeT0iNDE1Ii8+PGxpbmUgc3R5bGU9InN0cm9rZTojNzBBRDQ3O3N0cm9rZS13aWR0aDowLjU7IiB4MT0iMTk3IiB4Mj0iMzE0LjUiIHkxPSI0MzguOTE0MSIgeTI9IjQzOC45MTQxIi8+PHRleHQgZmlsbD0iIzAwMDAwMCIgZm9udC1mYW1pbHk9InNhbnMtc2VyaWYiIGZvbnQtc2l6ZT0iMTMiIGxlbmd0aEFkanVzdD0ic3BhY2luZyIgdGV4dExlbmd0aD0iOTcuNSIgeD0iMjA3IiB5PSI0MzIuMjg5MSI+Q3JpdGVyaWFFbnRlcmVkPC90ZXh0PjwvZz48ZyBpZD0iU2VhcmNoaW5nIj48cmVjdCBmaWxsPSIjRUZGNEZDIiBoZWlnaHQ9IjUwIiByeD0iMTIuNSIgcnk9IjEyLjUiIHN0eWxlPSJzdHJva2U6IzcwQUQ0NztzdHJva2Utd2lkdGg6MC41OyIgd2lkdGg9Ijc4LjUiIHg9Ijk0IiB5PSI1NDAiLz48bGluZSBzdHlsZT0ic3Ryb2tlOiM3MEFENDc7c3Ryb2tlLXdpZHRoOjAuNTsiIHgxPSI5NCIgeDI9IjE3Mi41IiB5MT0iNTYzLjkxNDEiIHkyPSI1NjMuOTE0MSIvPjx0ZXh0IGZpbGw9IiMwMDAwMDAiIGZvbnQtZmFtaWx5PSJzYW5zLXNlcmlmIiBmb250LXNpemU9IjEzIiBsZW5ndGhBZGp1c3Q9InNwYWNpbmciIHRleHRMZW5ndGg9IjU4LjUiIHg9IjEwNCIgeT0iNTU3LjI4OTEiPlNlYXJjaGluZzwvdGV4dD48L2c+PGcgaWQ9Ik5vUmVzdWx0cyI+PHJlY3QgZmlsbD0iI0VGRjRGQyIgaGVpZ2h0PSI1MCIgcng9IjEyLjUiIHJ5PSIxMi41IiBzdHlsZT0ic3Ryb2tlOiM3MEFENDc7c3Ryb2tlLXdpZHRoOjAuNTsiIHdpZHRoPSI3OC41IiB4PSIxNTUiIHk9IjY2NSIvPjxsaW5lIHN0eWxlPSJzdHJva2U6IzcwQUQ0NztzdHJva2Utd2lkdGg6MC41OyIgeDE9IjE1NSIgeDI9IjIzMy41IiB5MT0iNjg4LjkxNDEiIHkyPSI2ODguOTE0MSIvPjx0ZXh0IGZpbGw9IiMwMDAwMDAiIGZvbnQtZmFtaWx5PSJzYW5zLXNlcmlmIiBmb250LXNpemU9IjEzIiBsZW5ndGhBZGp1c3Q9InNwYWNpbmciIHRleHRMZW5ndGg9IjU4LjUiIHg9IjE2NSIgeT0iNjgyLjI4OTEiPk5vUmVzdWx0czwvdGV4dD48L2c+PCEtLWxpbmsgKnN0YXJ0KiB0byBJZGxlLS0+PGcgY2xhc3M9ImxpbmsiIGRhdGEtZW50aXR5LTE9IipzdGFydCoiIGRhdGEtZW50aXR5LTI9IklkbGUiIGRhdGEtc291cmNlLWxpbmU9IjciIGRhdGEtdWlkPSJsbms0IiBpZD0ibGlua18qc3RhcnQqX0lkbGUiPjxwYXRoIGQ9Ik0yNTUuNSwyNi4xNyBDMjU1LjUsNTUuMDggMjU1LjUsMTM5IDI1NS41LDE4Mi40OCIgZmlsbD0ibm9uZSIgaWQ9IipzdGFydCotdG8tSWRsZSIgc3R5bGU9InN0cm9rZTojMTgxODE4O3N0cm9rZS13aWR0aDoxOyIvPjxwb2x5Z29uIGZpbGw9IiMxODE4MTgiIHBvaW50cz0iMjU1LjUsMTg4LjQ4LDI1OS41LDE3OS40OCwyNTUuNSwxODMuNDgsMjUxLjUsMTc5LjQ4LDI1NS41LDE4OC40OCIgc3R5bGU9InN0cm9rZTojMTgxODE4O3N0cm9rZS13aWR0aDoxOyIvPjwvZz48IS0tbGluayBJZGxlIHRvIENyaXRlcmlhRW50ZXJlZC0tPjxnIGNsYXNzPSJsaW5rIiBkYXRhLWVudGl0eS0xPSJJZGxlIiBkYXRhLWVudGl0eS0yPSJDcml0ZXJpYUVudGVyZWQiIGRhdGEtc291cmNlLWxpbmU9IjkiIGRhdGEtdWlkPSJsbms2IiBpZD0ibGlua19JZGxlX0NyaXRlcmlhRW50ZXJlZCI+PHBhdGggZD0iTTI1NS41LDIzOC41MyBDMjU1LjUsMjgxLjYyIDI1NS41LDM2NS41OSAyNTUuNSw0MDguODEiIGZpbGw9Im5vbmUiIGlkPSJJZGxlLXRvLUNyaXRlcmlhRW50ZXJlZCIgc3R5bGU9InN0cm9rZTojMTgxODE4O3N0cm9rZS13aWR0aDoxOyIvPjxwb2x5Z29uIGZpbGw9IiMxODE4MTgiIHBvaW50cz0iMjU1LjUsNDE0LjgxLDI1OS41LDQwNS44MSwyNTUuNSw0MDkuODEsMjUxLjUsNDA1LjgxLDI1NS41LDQxNC44MSIgc3R5bGU9InN0cm9rZTojMTgxODE4O3N0cm9rZS13aWR0aDoxOyIvPjx0ZXh0IGZpbGw9IiMwMDAwMDAiIGZvbnQtZmFtaWx5PSJzYW5zLXNlcmlmIiBmb250LXNpemU9IjEzIiBsZW5ndGhBZGp1c3Q9InNwYWNpbmciIHRleHRMZW5ndGg9Ijk3LjUiIHg9IjI1Ni41IiB5PSIzODMuMjg5MSI+JiMxMDQyOyYjMTA3NDsmIzEwODY7JiMxMDc2OyAmIzEwODc7JiMxMDcyOyYjMTA4ODsmIzEwNzI7JiMxMDg0OyYjMTA3NzsmIzEwOTA7JiMxMDg4OyYjMTA4NjsmIzEwNzQ7PC90ZXh0PjwvZz48IS0tbGluayBDcml0ZXJpYUVudGVyZWQgdG8gU2VhcmNoaW5nLS0+PGcgY2xhc3M9ImxpbmsiIGRhdGEtZW50aXR5LTE9IkNyaXRlcmlhRW50ZXJlZCIgZGF0YS1lbnRpdHktMj0iU2VhcmNoaW5nIiBkYXRhLXNvdXJjZS1saW5lPSIxMCIgZGF0YS11aWQ9ImxuazgiIGlkPSJsaW5rX0NyaXRlcmlhRW50ZXJlZF9TZWFyY2hpbmciPjxwYXRoIGQ9Ik0xOTYuODQsNDU5LjM3IEMxNjguMzcsNDY5LjU5IDEzOC41OCw0ODIuNyAxMzAuNSw0OTUgQzEyMS45NCw1MDguMDMgMTIxLjYyMTUsNTE5Ljc0NzEgMTI0LjU4MTUsNTMzLjg5NzEiIGZpbGw9Im5vbmUiIGlkPSJDcml0ZXJpYUVudGVyZWQtdG8tU2VhcmNoaW5nIiBzdHlsZT0ic3Ryb2tlOiMxODE4MTg7c3Ryb2tlLXdpZHRoOjE7Ii8+PHBvbHlnb24gZmlsbD0iIzE4MTgxOCIgcG9pbnRzPSIxMjUuODEsNTM5Ljc3LDEyNy44ODI1LDUzMC4xNDE3LDEyNC43ODYyLDUzNC44NzU5LDEyMC4wNTE5LDUzMS43Nzk3LDEyNS44MSw1MzkuNzciIHN0eWxlPSJzdHJva2U6IzE4MTgxODtzdHJva2Utd2lkdGg6MTsiLz48dGV4dCBmaWxsPSIjMDAwMDAwIiBmb250LWZhbWlseT0ic2Fucy1zZXJpZiIgZm9udC1zaXplPSIxMyIgbGVuZ3RoQWRqdXN0PSJzcGFjaW5nIiB0ZXh0TGVuZ3RoPSI5Ny41IiB4PSIxMzEuNSIgeT0iNTA4LjI4OTEiPiYjMTA1MzsmIzEwNzI7JiMxMDc4OyYjMTA3MjsmIzEwOTA7JiMxMDgwOyYjMTA3NzsgIiYjMTA1NTsmIzEwODY7JiMxMDgwOyYjMTA4OTsmIzEwODI7IjwvdGV4dD48L2c+PCEtLWxpbmsgU2VhcmNoaW5nIHRvIFJlc3VsdHNTaG93bi0tPjxnIGNsYXNzPSJsaW5rIiBkYXRhLWVudGl0eS0xPSJTZWFyY2hpbmciIGRhdGEtZW50aXR5LTI9IlJlc3VsdHNTaG93biIgZGF0YS1zb3VyY2UtbGluZT0iMTEiIGRhdGEtdWlkPSJsbms5IiBpZD0ibGlua19TZWFyY2hpbmdfUmVzdWx0c1Nob3duIj48cGF0aCBkPSJNMTA4LjYsNTM5LjczIEM5MS40LDUyMS4xMiA2OS45Nyw0OTMuODEgNjAuNSw0NjUgQzQ3LjUyLDQyNS41MSA0Ni40MjU3LDM4Ni42OTIgNTEuMDI1NywzNDYuMDIyIiBmaWxsPSJub25lIiBpZD0iU2VhcmNoaW5nLXRvLVJlc3VsdHNTaG93biIgc3R5bGU9InN0cm9rZTojMTgxODE4O3N0cm9rZS13aWR0aDoxOyIvPjxwb2x5Z29uIGZpbGw9IiMxODE4MTgiIHBvaW50cz0iNTEuNywzNDAuMDYsNDYuNzEzOCwzNDguNTUzNCw1MS4xMzgxLDM0NS4wMjgzLDU0LjY2MzIsMzQ5LjQ1MjUsNTEuNywzNDAuMDYiIHN0eWxlPSJzdHJva2U6IzE4MTgxODtzdHJva2Utd2lkdGg6MTsiLz48dGV4dCBmaWxsPSIjMDAwMDAwIiBmb250LWZhbWlseT0ic2Fucy1zZXJpZiIgZm9udC1zaXplPSIxMyIgbGVuZ3RoQWRqdXN0PSJzcGFjaW5nIiB0ZXh0TGVuZ3RoPSIxMTciIHg9IjYxLjUiIHk9IjQ0NS43ODkxIj4mIzEwNTM7JiMxMDcyOyYjMTA4MTsmIzEwNzY7JiMxMDc3OyYjMTA4NTsmIzEwOTk7ICYjMTA4ODsmIzEwNzc7JiMxMDc5OyYjMTA5MTsmIzEwODM7JiMxMTAwOyYjMTA5MDsmIzEwNzI7JiMxMDkwOyYjMTA5OTs8L3RleHQ+PC9nPjwhLS1saW5rIFNlYXJjaGluZyB0byBOb1Jlc3VsdHMtLT48ZyBjbGFzcz0ibGluayIgZGF0YS1lbnRpdHktMT0iU2VhcmNoaW5nIiBkYXRhLWVudGl0eS0yPSJOb1Jlc3VsdHMiIGRhdGEtc291cmNlLWxpbmU9IjEyIiBkYXRhLXVpZD0ibG5rMTEiIGlkPSJsaW5rX1NlYXJjaGluZ19Ob1Jlc3VsdHMiPjxwYXRoIGQ9Ik0xMjcuMTUsNTkwLjA2IEMxMjQuNzgsNjAzLjgzIDEyNC4wMyw2MjEuMDggMTMwLjUsNjM1IEMxMzUuODksNjQ2LjYgMTQwLjUyMjYsNjUyLjc3ODYgMTUwLjMzMjYsNjYwLjkxODYiIGZpbGw9Im5vbmUiIGlkPSJTZWFyY2hpbmctdG8tTm9SZXN1bHRzIiBzdHlsZT0ic3Ryb2tlOiMxODE4MTg7c3Ryb2tlLXdpZHRoOjE7Ii8+PHBvbHlnb24gZmlsbD0iIzE4MTgxOCIgcG9pbnRzPSIxNTQuOTUsNjY0Ljc1LDE1MC41NzgxLDY1NS45MjQ3LDE1MS4xMDIyLDY2MS41NTcyLDE0NS40Njk2LDY2Mi4wODEyLDE1NC45NSw2NjQuNzUiIHN0eWxlPSJzdHJva2U6IzE4MTgxODtzdHJva2Utd2lkdGg6MTsiLz48dGV4dCBmaWxsPSIjMDAwMDAwIiBmb250LWZhbWlseT0ic2Fucy1zZXJpZiIgZm9udC1zaXplPSIxMyIgbGVuZ3RoQWRqdXN0PSJzcGFjaW5nIiB0ZXh0TGVuZ3RoPSI5Ny41IiB4PSIxMzEuNSIgeT0iNjMzLjI4OTEiPiYjMTA1MzsmIzEwNzc7JiMxMDkwOyAmIzEwODg7JiMxMDc3OyYjMTA3OTsmIzEwOTE7JiMxMDgzOyYjMTEwMDsmIzEwOTA7JiMxMDcyOyYjMTA5MDsmIzEwODY7JiMxMDc0OzwvdGV4dD48L2c+PCEtLWxpbmsgTm9SZXN1bHRzIHRvIENyaXRlcmlhRW50ZXJlZC0tPjxnIGNsYXNzPSJsaW5rIiBkYXRhLWVudGl0eS0xPSJOb1Jlc3VsdHMiIGRhdGEtZW50aXR5LTI9IkNyaXRlcmlhRW50ZXJlZCIgZGF0YS1zb3VyY2UtbGluZT0iMjAiIGRhdGEtdWlkPSJsbmsxOCIgaWQ9ImxpbmtfTm9SZXN1bHRzX0NyaXRlcmlhRW50ZXJlZCI+PHBhdGggZD0iTTIxNi4wNiw2NjQuNzYgQzIyMi43NCw2NTUuOTYgMjI5LjQxLDY0NS41NyAyMzMuNSw2MzUgQzI1NS44OSw1NzcuMTUgMjU3LjY1MzQsNTA4Ljg2ODMgMjU2Ljc1MzQsNDcxLjIxODMiIGZpbGw9Im5vbmUiIGlkPSJOb1Jlc3VsdHMtdG8tQ3JpdGVyaWFFbnRlcmVkIiBzdHlsZT0ic3Ryb2tlOiMxODE4MTg7c3Ryb2tlLXdpZHRoOjE7Ii8+PHBvbHlnb24gZmlsbD0iIzE4MTgxOCIgcG9pbnRzPSIyNTYuNjEsNDY1LjIyLDI1Mi44MjYyLDQ3NC4zMTMsMjU2LjcyOTUsNDcwLjIxODYsMjYwLjgyMzksNDc0LjEyMTgsMjU2LjYxLDQ2NS4yMiIgc3R5bGU9InN0cm9rZTojMTgxODE4O3N0cm9rZS13aWR0aDoxOyIvPjx0ZXh0IGZpbGw9IiMwMDAwMDAiIGZvbnQtZmFtaWx5PSJzYW5zLXNlcmlmIiBmb250LXNpemU9IjEzIiBsZW5ndGhBZGp1c3Q9InNwYWNpbmciIHRleHRMZW5ndGg9IjExMC41IiB4PSIyNTUuNSIgeT0iNTcwLjc4OTEiPiYjMTA0ODsmIzEwNzk7JiMxMDg0OyYjMTA3NzsmIzEwODU7JiMxMDgwOyYjMTA5MDsmIzExMDA7ICYjMTA4MjsmIzEwODg7JiMxMDgwOyYjMTA5MDsmIzEwNzc7JiMxMDg4OyYjMTA4MDsmIzEwODA7PC90ZXh0PjwvZz48IS0tbGluayBSZXN1bHRzU2hvd24gdG8gQ3JpdGVyaWFFbnRlcmVkLS0+PGcgY2xhc3M9ImxpbmsiIGRhdGEtZW50aXR5LTE9IlJlc3VsdHNTaG93biIgZGF0YS1lbnRpdHktMj0iQ3JpdGVyaWFFbnRlcmVkIiBkYXRhLXNvdXJjZS1saW5lPSIyMSIgZGF0YS11aWQ9ImxuazE5IiBpZD0ibGlua19SZXN1bHRzU2hvd25fQ3JpdGVyaWFFbnRlcmVkIj48cGF0aCBkPSJNMTQwLjg3LDM0MC4zNSBDMTUwLjk2LDM1Ni4yMiAxNjIuMjEsMzcxLjU3IDE3NC41LDM4NSBDMTg0Ljg4LDM5Ni4zNSAxOTMuMDkzNCw0MDMuMTczOCAyMDUuODQzNCw0MTEuNDgzOCIgZmlsbD0ibm9uZSIgaWQ9IlJlc3VsdHNTaG93bi10by1Dcml0ZXJpYUVudGVyZWQiIHN0eWxlPSJzdHJva2U6IzE4MTgxODtzdHJva2Utd2lkdGg6MTsiLz48cG9seWdvbiBmaWxsPSIjMTgxODE4IiBwb2ludHM9IjIxMC44Nyw0MTQuNzYsMjA1LjUxNDIsNDA2LjQ5NDcsMjA2LjY4MTIsNDEyLjAyOTksMjAxLjE0Niw0MTMuMTk2OCwyMTAuODcsNDE0Ljc2IiBzdHlsZT0ic3Ryb2tlOiMxODE4MTg7c3Ryb2tlLXdpZHRoOjE7Ii8+PHRleHQgZmlsbD0iIzAwMDAwMCIgZm9udC1mYW1pbHk9InNhbnMtc2VyaWYiIGZvbnQtc2l6ZT0iMTMiIGxlbmd0aEFkanVzdD0ic3BhY2luZyIgdGV4dExlbmd0aD0iNzEuNSIgeD0iMTc1LjUiIHk9IjM4My4yODkxIj4mIzEwNTM7JiMxMDg2OyYjMTA3NDsmIzEwOTk7JiMxMDgxOyAmIzEwODc7JiMxMDg2OyYjMTA4MDsmIzEwODk7JiMxMDgyOzwvdGV4dD48L2c+PCEtLVNSQz1bVEw1RElxOTE1RHRGaHhaT0JYMkExQTU1S0VnMzg1ZWFqOGFNV3NfR21UVVJjRlQ0QTBBcE5SZmdyS1J3Mm9nLV9DWmlCenB2SHpzUGRnOVlZdmN2Uy1VU1MteXo0ekxiVUN5cmx1Q2V2aDYwSG1QbW5ZbHJnYlFEcTItZUc2ZE9BdGJVcFlsTzV3THplVERpX2sycWNDakpyYkRYTjlPRjBXd0ZzMURaRF9rdGFDc1VtQmFWMkNSaXhndTVCTUVYOUktNVQwWl82RjBEWHhaMDRVMEZ6YXFCLXBaN25CR2ZNazJHUlM2VEg1Ym1OUWQ5aTRoYTdrNF9ZVFY2MklRR21HellKU21wcFo5aTFORWFBbjRyV1pXZ3JyR3BKN2JKNzY2MnR3TzNMMnAxaU5kMUJ6Q2JBUDhwZEl0LWZLZUw3OWFRdDQ1bzdSQ18xelZoRUprTlZicDhBQndNZWFjZlBVWm9ISDVwNktKc1JhcW43SHBXbWhJMEgwVmNiS2hEUjE1WWhHNHQxREVmbmhINnpXRE03Vl9aLXBqMXZ6TzBDZ25qa2EwNU1aUWF1VVo0MlRpT09SVDZwdXZDaEt4anh3TkVfbTgwXS0tPjwvZz48L3N2Zz4=;" vertex="1" parent="1">
            <mxGeometry x="-630" y="760" width="374" height="721" as="geometry" />
          </mxCell>
        </UserObject>
        <UserObject label="" plantUmlData="{&#xa;  &quot;data&quot;: &quot;@startuml\nskinparam activity {\n  BackgroundColor #EFF4FC\n  BorderColor #FFC000\n  FontSize 13\n}\n\nstart\n:Пользователь выбирает объект;\nfork\n  :Проверка доступности даты;\nfork again\n  :Отправка уведомления агенту;\nend fork\nif (Дата свободна?) then (Да)\n  :Подтверждение бронирования;\n  :Отправка подтверждения клиенту;\nelse (Нет)\n  :Предложение альтернативных дат;\nendif\nstop\n@enduml&quot;,&#xa;  &quot;format&quot;: &quot;svg&quot;&#xa;}" id="TXvXWFRMx7JduoYhu3wI-3">
          <mxCell style="shape=image;noLabel=1;verticalAlign=top;aspect=fixed;imageAspect=0;image=data:image/svg+xml,PHN2ZyB4bWxucz0iaHR0cDovL3d3dy53My5vcmcvMjAwMC9zdmciIHhtbG5zOnhsaW5rPSJodHRwOi8vd3d3LnczLm9yZy8xOTk5L3hsaW5rIiBjb250ZW50U3R5bGVUeXBlPSJ0ZXh0L2NzcyIgZGF0YS1kaWFncmFtLXR5cGU9IkFDVElWSVRZIiBoZWlnaHQ9IjQxNHB4IiBwcmVzZXJ2ZUFzcGVjdFJhdGlvPSJub25lIiBzdHlsZT0id2lkdGg6NDcycHg7aGVpZ2h0OjQxNHB4O2JhY2tncm91bmQ6I0ZGRkZGRjsiIHZlcnNpb249IjEuMSIgdmlld0JveD0iMCAwIDQ3MiA0MTQiIHdpZHRoPSI0NzJweCIgem9vbUFuZFBhbj0ibWFnbmlmeSI+PGRlZnMvPjxnPjxlbGxpcHNlIGN4PSIyMzYiIGN5PSIyMCIgZmlsbD0iIzIyMjIyMiIgcng9IjEwIiByeT0iMTAiIHN0eWxlPSJzdHJva2U6IzIyMjIyMjtzdHJva2Utd2lkdGg6MTsiLz48cmVjdCBmaWxsPSIjRUZGNEZDIiBoZWlnaHQ9IjMzLjkxNDEiIHJ4PSIxMi41IiByeT0iMTIuNSIgc3R5bGU9InN0cm9rZTojRkZDMDAwO3N0cm9rZS13aWR0aDowLjU7IiB3aWR0aD0iMjAyIiB4PSIxMzUiIHk9IjUwIi8+PHRleHQgZmlsbD0iIzAwMDAwMCIgZm9udC1mYW1pbHk9InNhbnMtc2VyaWYiIGZvbnQtc2l6ZT0iMTMiIGxlbmd0aEFkanVzdD0ic3BhY2luZyIgdGV4dExlbmd0aD0iMTgyIiB4PSIxNDUiIHk9IjcyLjI4OTEiPiYjMTA1NTsmIzEwODY7JiMxMDgzOyYjMTEwMDsmIzEwNzk7JiMxMDg2OyYjMTA3NDsmIzEwNzI7JiMxMDkwOyYjMTA3NzsmIzEwODM7JiMxMTAwOyAmIzEwNzQ7JiMxMDk5OyYjMTA3MzsmIzEwODA7JiMxMDg4OyYjMTA3MjsmIzEwNzc7JiMxMDkwOyAmIzEwODY7JiMxMDczOyYjMTA5ODsmIzEwNzc7JiMxMDgyOyYjMTA5MDs8L3RleHQ+PHJlY3QgZmlsbD0iIzU1NTU1NSIgaGVpZ2h0PSI2IiByeD0iMi41IiByeT0iMi41IiBzdHlsZT0ic3Ryb2tlOiM1NTU1NTU7c3Ryb2tlLXdpZHRoOjE7IiB3aWR0aD0iNDM0IiB4PSIxOSIgeT0iMTAzLjkxNDEiLz48cmVjdCBmaWxsPSIjRUZGNEZDIiBoZWlnaHQ9IjMzLjkxNDEiIHJ4PSIxMi41IiByeT0iMTIuNSIgc3R5bGU9InN0cm9rZTojRkZDMDAwO3N0cm9rZS13aWR0aDowLjU7IiB3aWR0aD0iMTgyLjUiIHg9IjMzIiB5PSIxMjkuOTE0MSIvPjx0ZXh0IGZpbGw9IiMwMDAwMDAiIGZvbnQtZmFtaWx5PSJzYW5zLXNlcmlmIiBmb250LXNpemU9IjEzIiBsZW5ndGhBZGp1c3Q9InNwYWNpbmciIHRleHRMZW5ndGg9IjE2Mi41IiB4PSI0MyIgeT0iMTUyLjIwMzEiPiYjMTA1NTsmIzEwODg7JiMxMDg2OyYjMTA3NDsmIzEwNzc7JiMxMDg4OyYjMTA4MjsmIzEwNzI7ICYjMTA3NjsmIzEwODY7JiMxMDg5OyYjMTA5MDsmIzEwOTE7JiMxMDg3OyYjMTA4NTsmIzEwODY7JiMxMDg5OyYjMTA5MDsmIzEwODA7ICYjMTA3NjsmIzEwNzI7JiMxMDkwOyYjMTA5OTs8L3RleHQ+PHJlY3QgZmlsbD0iI0VGRjRGQyIgaGVpZ2h0PSIzMy45MTQxIiByeD0iMTIuNSIgcnk9IjEyLjUiIHN0eWxlPSJzdHJva2U6I0ZGQzAwMDtzdHJva2Utd2lkdGg6MC41OyIgd2lkdGg9IjE5NS41IiB4PSIyNDMuNSIgeT0iMTI5LjkxNDEiLz48dGV4dCBmaWxsPSIjMDAwMDAwIiBmb250LWZhbWlseT0ic2Fucy1zZXJpZiIgZm9udC1zaXplPSIxMyIgbGVuZ3RoQWRqdXN0PSJzcGFjaW5nIiB0ZXh0TGVuZ3RoPSIxNzUuNSIgeD0iMjUzLjUiIHk9IjE1Mi4yMDMxIj4mIzEwNTQ7JiMxMDkwOyYjMTA4NzsmIzEwODg7JiMxMDcyOyYjMTA3NDsmIzEwODI7JiMxMDcyOyAmIzEwOTE7JiMxMDc0OyYjMTA3NzsmIzEwNzY7JiMxMDg2OyYjMTA4NDsmIzEwODM7JiMxMDc3OyYjMTA4NTsmIzEwODA7JiMxMTAzOyAmIzEwNzI7JiMxMDc1OyYjMTA3NzsmIzEwODU7JiMxMDkwOyYjMTA5MTs8L3RleHQ+PHJlY3QgZmlsbD0iIzU1NTU1NSIgaGVpZ2h0PSI2IiByeD0iMi41IiByeT0iMi41IiBzdHlsZT0ic3Ryb2tlOiM1NTU1NTU7c3Ryb2tlLXdpZHRoOjE7IiB3aWR0aD0iNDM0IiB4PSIxOSIgeT0iMTgzLjgyODEiLz48cG9seWdvbiBmaWxsPSIjRUZGNEZDIiBwb2ludHM9IjE5MC41LDIwOS44MjgxLDI4MS41LDIwOS44MjgxLDI5My41LDIyMS44MjgxLDI4MS41LDIzMy44MjgxLDE5MC41LDIzMy44MjgxLDE3OC41LDIyMS44MjgxLDE5MC41LDIwOS44MjgxIiBzdHlsZT0ic3Ryb2tlOiNGRkMwMDA7c3Ryb2tlLXdpZHRoOjAuNTsiLz48dGV4dCBmaWxsPSIjMDAwMDAwIiBmb250LWZhbWlseT0ic2Fucy1zZXJpZiIgZm9udC1zaXplPSIxMyIgbGVuZ3RoQWRqdXN0PSJzcGFjaW5nIiB0ZXh0TGVuZ3RoPSI5MSIgeD0iMTkwLjUiIHk9IjIyNy4xNjAyIj4mIzEwNDQ7JiMxMDcyOyYjMTA5MDsmIzEwNzI7ICYjMTA4OTsmIzEwNzQ7JiMxMDg2OyYjMTA3MzsmIzEwODY7JiMxMDc2OyYjMTA4NTsmIzEwNzI7PzwvdGV4dD48dGV4dCBmaWxsPSIjMDAwMDAwIiBmb250LWZhbWlseT0ic2Fucy1zZXJpZiIgZm9udC1zaXplPSIxMSIgbGVuZ3RoQWRqdXN0PSJzcGFjaW5nIiB0ZXh0TGVuZ3RoPSIxMSIgeD0iMTY3LjUiIHk9IjIyMC40NTMxIj4mIzEwNDQ7JiMxMDcyOzwvdGV4dD48dGV4dCBmaWxsPSIjMDAwMDAwIiBmb250LWZhbWlseT0ic2Fucy1zZXJpZiIgZm9udC1zaXplPSIxMSIgbGVuZ3RoQWRqdXN0PSJzcGFjaW5nIiB0ZXh0TGVuZ3RoPSIxNi41IiB4PSIyOTMuNSIgeT0iMjIwLjQ1MzEiPiYjMTA1MzsmIzEwNzc7JiMxMDkwOzwvdGV4dD48cmVjdCBmaWxsPSIjRUZGNEZDIiBoZWlnaHQ9IjMzLjkxNDEiIHJ4PSIxMi41IiByeT0iMTIuNSIgc3R5bGU9InN0cm9rZTojRkZDMDAwO3N0cm9rZS13aWR0aDowLjU7IiB3aWR0aD0iMTg5IiB4PSIyNCIgeT0iMjQzLjgyODEiLz48dGV4dCBmaWxsPSIjMDAwMDAwIiBmb250LWZhbWlseT0ic2Fucy1zZXJpZiIgZm9udC1zaXplPSIxMyIgbGVuZ3RoQWRqdXN0PSJzcGFjaW5nIiB0ZXh0TGVuZ3RoPSIxNjkiIHg9IjM0IiB5PSIyNjYuMTE3MiI+JiMxMDU1OyYjMTA4NjsmIzEwNzY7JiMxMDkwOyYjMTA3NDsmIzEwNzc7JiMxMDg4OyYjMTA3ODsmIzEwNzY7JiMxMDc3OyYjMTA4NTsmIzEwODA7JiMxMDc3OyAmIzEwNzM7JiMxMDg4OyYjMTA4NjsmIzEwODU7JiMxMDgwOyYjMTA4ODsmIzEwODY7JiMxMDc0OyYjMTA3MjsmIzEwODU7JiMxMDgwOyYjMTEwMzs8L3RleHQ+PHJlY3QgZmlsbD0iI0VGRjRGQyIgaGVpZ2h0PSIzMy45MTQxIiByeD0iMTIuNSIgcnk9IjEyLjUiIHN0eWxlPSJzdHJva2U6I0ZGQzAwMDtzdHJva2Utd2lkdGg6MC41OyIgd2lkdGg9IjIxNSIgeD0iMTEiIHk9IjI5Ny43NDIyIi8+PHRleHQgZmlsbD0iIzAwMDAwMCIgZm9udC1mYW1pbHk9InNhbnMtc2VyaWYiIGZvbnQtc2l6ZT0iMTMiIGxlbmd0aEFkanVzdD0ic3BhY2luZyIgdGV4dExlbmd0aD0iMTk1IiB4PSIyMSIgeT0iMzIwLjAzMTMiPiYjMTA1NDsmIzEwOTA7JiMxMDg3OyYjMTA4ODsmIzEwNzI7JiMxMDc0OyYjMTA4MjsmIzEwNzI7ICYjMTA4NzsmIzEwODY7JiMxMDc2OyYjMTA5MDsmIzEwNzQ7JiMxMDc3OyYjMTA4ODsmIzEwNzg7JiMxMDc2OyYjMTA3NzsmIzEwODU7JiMxMDgwOyYjMTEwMzsgJiMxMDgyOyYjMTA4MzsmIzEwODA7JiMxMDc3OyYjMTA4NTsmIzEwOTA7JiMxMDkxOzwvdGV4dD48cmVjdCBmaWxsPSIjRUZGNEZDIiBoZWlnaHQ9IjMzLjkxNDEiIHJ4PSIxMi41IiByeT0iMTIuNSIgc3R5bGU9InN0cm9rZTojRkZDMDAwO3N0cm9rZS13aWR0aDowLjU7IiB3aWR0aD0iMjE1IiB4PSIyNDYiIHk9IjI0My44MjgxIi8+PHRleHQgZmlsbD0iIzAwMDAwMCIgZm9udC1mYW1pbHk9InNhbnMtc2VyaWYiIGZvbnQtc2l6ZT0iMTMiIGxlbmd0aEFkanVzdD0ic3BhY2luZyIgdGV4dExlbmd0aD0iMTk1IiB4PSIyNTYiIHk9IjI2Ni4xMTcyIj4mIzEwNTU7JiMxMDg4OyYjMTA3NzsmIzEwNzY7JiMxMDgzOyYjMTA4NjsmIzEwNzg7JiMxMDc3OyYjMTA4NTsmIzEwODA7JiMxMDc3OyAmIzEwNzI7JiMxMDgzOyYjMTEwMDsmIzEwOTA7JiMxMDc3OyYjMTA4ODsmIzEwODU7JiMxMDcyOyYjMTA5MDsmIzEwODA7JiMxMDc0OyYjMTA4NTsmIzEwOTk7JiMxMDkzOyAmIzEwNzY7JiMxMDcyOyYjMTA5MDs8L3RleHQ+PHBvbHlnb24gZmlsbD0iI0VGRjRGQyIgcG9pbnRzPSIyMzYsMzM3LjY1NjMsMjQ4LDM0OS42NTYzLDIzNiwzNjEuNjU2MywyMjQsMzQ5LjY1NjMsMjM2LDMzNy42NTYzIiBzdHlsZT0ic3Ryb2tlOiNGRkMwMDA7c3Ryb2tlLXdpZHRoOjAuNTsiLz48ZWxsaXBzZSBjeD0iMjM2IiBjeT0iMzkyLjY1NjMiIGZpbGw9Im5vbmUiIHJ4PSIxMSIgcnk9IjExIiBzdHlsZT0ic3Ryb2tlOiMyMjIyMjI7c3Ryb2tlLXdpZHRoOjE7Ii8+PGVsbGlwc2UgY3g9IjIzNiIgY3k9IjM5Mi42NTYzIiBmaWxsPSIjMjIyMjIyIiByeD0iNiIgcnk9IjYiIHN0eWxlPSJzdHJva2U6IzIyMjIyMjtzdHJva2Utd2lkdGg6MTsiLz48bGluZSBzdHlsZT0ic3Ryb2tlOiMxODE4MTg7c3Ryb2tlLXdpZHRoOjE7IiB4MT0iMjM2IiB4Mj0iMjM2IiB5MT0iMzAiIHkyPSI1MCIvPjxwb2x5Z29uIGZpbGw9IiMxODE4MTgiIHBvaW50cz0iMjMyLDQwLDIzNiw1MCwyNDAsNDAsMjM2LDQ0IiBzdHlsZT0ic3Ryb2tlOiMxODE4MTg7c3Ryb2tlLXdpZHRoOjE7Ii8+PGxpbmUgc3R5bGU9InN0cm9rZTojMTgxODE4O3N0cm9rZS13aWR0aDoxOyIgeDE9IjEyNC4yNSIgeDI9IjEyNC4yNSIgeTE9IjEwOS45MTQxIiB5Mj0iMTI5LjkxNDEiLz48cG9seWdvbiBmaWxsPSIjMTgxODE4IiBwb2ludHM9IjEyMC4yNSwxMTkuOTE0MSwxMjQuMjUsMTI5LjkxNDEsMTI4LjI1LDExOS45MTQxLDEyNC4yNSwxMjMuOTE0MSIgc3R5bGU9InN0cm9rZTojMTgxODE4O3N0cm9rZS13aWR0aDoxOyIvPjxsaW5lIHN0eWxlPSJzdHJva2U6IzE4MTgxODtzdHJva2Utd2lkdGg6MTsiIHgxPSIzNDEuMjUiIHgyPSIzNDEuMjUiIHkxPSIxMDkuOTE0MSIgeTI9IjEyOS45MTQxIi8+PHBvbHlnb24gZmlsbD0iIzE4MTgxOCIgcG9pbnRzPSIzMzcuMjUsMTE5LjkxNDEsMzQxLjI1LDEyOS45MTQxLDM0NS4yNSwxMTkuOTE0MSwzNDEuMjUsMTIzLjkxNDEiIHN0eWxlPSJzdHJva2U6IzE4MTgxODtzdHJva2Utd2lkdGg6MTsiLz48bGluZSBzdHlsZT0ic3Ryb2tlOiMxODE4MTg7c3Ryb2tlLXdpZHRoOjE7IiB4MT0iMTI0LjI1IiB4Mj0iMTI0LjI1IiB5MT0iMTYzLjgyODEiIHkyPSIxODMuODI4MSIvPjxwb2x5Z29uIGZpbGw9IiMxODE4MTgiIHBvaW50cz0iMTIwLjI1LDE3My44MjgxLDEyNC4yNSwxODMuODI4MSwxMjguMjUsMTczLjgyODEsMTI0LjI1LDE3Ny44MjgxIiBzdHlsZT0ic3Ryb2tlOiMxODE4MTg7c3Ryb2tlLXdpZHRoOjE7Ii8+PGxpbmUgc3R5bGU9InN0cm9rZTojMTgxODE4O3N0cm9rZS13aWR0aDoxOyIgeDE9IjM0MS4yNSIgeDI9IjM0MS4yNSIgeTE9IjE2My44MjgxIiB5Mj0iMTgzLjgyODEiLz48cG9seWdvbiBmaWxsPSIjMTgxODE4IiBwb2ludHM9IjMzNy4yNSwxNzMuODI4MSwzNDEuMjUsMTgzLjgyODEsMzQ1LjI1LDE3My44MjgxLDM0MS4yNSwxNzcuODI4MSIgc3R5bGU9InN0cm9rZTojMTgxODE4O3N0cm9rZS13aWR0aDoxOyIvPjxsaW5lIHN0eWxlPSJzdHJva2U6IzE4MTgxODtzdHJva2Utd2lkdGg6MTsiIHgxPSIyMzYiIHgyPSIyMzYiIHkxPSI4My45MTQxIiB5Mj0iMTAzLjkxNDEiLz48cG9seWdvbiBmaWxsPSIjMTgxODE4IiBwb2ludHM9IjIzMiw5My45MTQxLDIzNiwxMDMuOTE0MSwyNDAsOTMuOTE0MSwyMzYsOTcuOTE0MSIgc3R5bGU9InN0cm9rZTojMTgxODE4O3N0cm9rZS13aWR0aDoxOyIvPjxsaW5lIHN0eWxlPSJzdHJva2U6IzE4MTgxODtzdHJva2Utd2lkdGg6MTsiIHgxPSIxMTguNSIgeDI9IjExOC41IiB5MT0iMjc3Ljc0MjIiIHkyPSIyOTcuNzQyMiIvPjxwb2x5Z29uIGZpbGw9IiMxODE4MTgiIHBvaW50cz0iMTE0LjUsMjg3Ljc0MjIsMTE4LjUsMjk3Ljc0MjIsMTIyLjUsMjg3Ljc0MjIsMTE4LjUsMjkxLjc0MjIiIHN0eWxlPSJzdHJva2U6IzE4MTgxODtzdHJva2Utd2lkdGg6MTsiLz48bGluZSBzdHlsZT0ic3Ryb2tlOiMxODE4MTg7c3Ryb2tlLXdpZHRoOjE7IiB4MT0iMTc4LjUiIHgyPSIxMTguNSIgeTE9IjIyMS44MjgxIiB5Mj0iMjIxLjgyODEiLz48bGluZSBzdHlsZT0ic3Ryb2tlOiMxODE4MTg7c3Ryb2tlLXdpZHRoOjE7IiB4MT0iMTE4LjUiIHgyPSIxMTguNSIgeTE9IjIyMS44MjgxIiB5Mj0iMjQzLjgyODEiLz48cG9seWdvbiBmaWxsPSIjMTgxODE4IiBwb2ludHM9IjExNC41LDIzMy44MjgxLDExOC41LDI0My44MjgxLDEyMi41LDIzMy44MjgxLDExOC41LDIzNy44MjgxIiBzdHlsZT0ic3Ryb2tlOiMxODE4MTg7c3Ryb2tlLXdpZHRoOjE7Ii8+PGxpbmUgc3R5bGU9InN0cm9rZTojMTgxODE4O3N0cm9rZS13aWR0aDoxOyIgeDE9IjI5My41IiB4Mj0iMzUzLjUiIHkxPSIyMjEuODI4MSIgeTI9IjIyMS44MjgxIi8+PGxpbmUgc3R5bGU9InN0cm9rZTojMTgxODE4O3N0cm9rZS13aWR0aDoxOyIgeDE9IjM1My41IiB4Mj0iMzUzLjUiIHkxPSIyMjEuODI4MSIgeTI9IjI0My44MjgxIi8+PHBvbHlnb24gZmlsbD0iIzE4MTgxOCIgcG9pbnRzPSIzNDkuNSwyMzMuODI4MSwzNTMuNSwyNDMuODI4MSwzNTcuNSwyMzMuODI4MSwzNTMuNSwyMzcuODI4MSIgc3R5bGU9InN0cm9rZTojMTgxODE4O3N0cm9rZS13aWR0aDoxOyIvPjxsaW5lIHN0eWxlPSJzdHJva2U6IzE4MTgxODtzdHJva2Utd2lkdGg6MTsiIHgxPSIxMTguNSIgeDI9IjExOC41IiB5MT0iMzMxLjY1NjMiIHkyPSIzNDkuNjU2MyIvPjxsaW5lIHN0eWxlPSJzdHJva2U6IzE4MTgxODtzdHJva2Utd2lkdGg6MTsiIHgxPSIxMTguNSIgeDI9IjIyNCIgeTE9IjM0OS42NTYzIiB5Mj0iMzQ5LjY1NjMiLz48cG9seWdvbiBmaWxsPSIjMTgxODE4IiBwb2ludHM9IjIxNCwzNDUuNjU2MywyMjQsMzQ5LjY1NjMsMjE0LDM1My42NTYzLDIxOCwzNDkuNjU2MyIgc3R5bGU9InN0cm9rZTojMTgxODE4O3N0cm9rZS13aWR0aDoxOyIvPjxsaW5lIHN0eWxlPSJzdHJva2U6IzE4MTgxODtzdHJva2Utd2lkdGg6MTsiIHgxPSIzNTMuNSIgeDI9IjM1My41IiB5MT0iMjc3Ljc0MjIiIHkyPSIzNDkuNjU2MyIvPjxsaW5lIHN0eWxlPSJzdHJva2U6IzE4MTgxODtzdHJva2Utd2lkdGg6MTsiIHgxPSIzNTMuNSIgeDI9IjI0OCIgeTE9IjM0OS42NTYzIiB5Mj0iMzQ5LjY1NjMiLz48cG9seWdvbiBmaWxsPSIjMTgxODE4IiBwb2ludHM9IjI1OCwzNDUuNjU2MywyNDgsMzQ5LjY1NjMsMjU4LDM1My42NTYzLDI1NCwzNDkuNjU2MyIgc3R5bGU9InN0cm9rZTojMTgxODE4O3N0cm9rZS13aWR0aDoxOyIvPjxsaW5lIHN0eWxlPSJzdHJva2U6IzE4MTgxODtzdHJva2Utd2lkdGg6MTsiIHgxPSIyMzYiIHgyPSIyMzYiIHkxPSIxODkuODI4MSIgeTI9IjIwOS44MjgxIi8+PHBvbHlnb24gZmlsbD0iIzE4MTgxOCIgcG9pbnRzPSIyMzIsMTk5LjgyODEsMjM2LDIwOS44MjgxLDI0MCwxOTkuODI4MSwyMzYsMjAzLjgyODEiIHN0eWxlPSJzdHJva2U6IzE4MTgxODtzdHJva2Utd2lkdGg6MTsiLz48bGluZSBzdHlsZT0ic3Ryb2tlOiMxODE4MTg7c3Ryb2tlLXdpZHRoOjE7IiB4MT0iMjM2IiB4Mj0iMjM2IiB5MT0iMzYxLjY1NjMiIHkyPSIzODEuNjU2MyIvPjxwb2x5Z29uIGZpbGw9IiMxODE4MTgiIHBvaW50cz0iMjMyLDM3MS42NTYzLDIzNiwzODEuNjU2MywyNDAsMzcxLjY1NjMsMjM2LDM3NS42NTYzIiBzdHlsZT0ic3Ryb2tlOiMxODE4MTg7c3Ryb2tlLXdpZHRoOjE7Ii8+PCEtLVNSQz1bUkw3MUppOTA0QnRsTHFwWUhNdU9GU2QxSDY5X20yemVlRTA2eDlBYmNnV25hSGVsT2tCNWdfZUIxSWFzR0U0TlBsXzhEcmtZN1pXcWtwamx0Zmx0ZmlFVVpXVVgzSXlmUjJOd01ZU3RUQVU4SmlETWhzbERMVG5rY2h3bmo3U00xNFQxS24xWnN2N1RMZUVXTVFfTktHckNkOXBoc3VXRTNqTXpLaUNhajhhd3ZhelV5ekF6eTNWRUFNU2t2THBVbjVDdHZXYU54ZTRwcGJyQW0yVms2VVoyZkd0TENSTzdLVjNIOENtU3Z1OHB1WGNsdFNZYnhmNHRONVB0QmdHQ1JKVWtjMUhzR25yeF9XVldaSHlvek5wbTgyT2dsRThiUllLeWwxQm1CdGM4UzRENVNQa3kwenNYVk54cGphNFRXR2dOLTZRV1BJU3JJWXdZa0VnZUxNdTVHdEZiVHV1LUZ1MXBHWlc5S2xoNFZYTkx2Q1BFYnlZc0txWVNCYzJ4LUVVckZ1bld1THNNTUZqVGNJSFNHY0YtUG8ySmxTbC0wUFMtS1c3dnFldFRxdFB6Rmhaa3VELVBtR3kwXS0tPjwvZz48L3N2Zz4=;" vertex="1" parent="1">
            <mxGeometry x="-160" y="760" width="472" height="414" as="geometry" />
          </mxCell>
        </UserObject>
        <mxCell id="TXvXWFRMx7JduoYhu3wI-4" value="&lt;h3&gt;&lt;strong&gt;Диаграмма активности для процесса бронирования просмотра&lt;/strong&gt;&lt;/h3&gt;" style="text;html=1;align=center;verticalAlign=middle;whiteSpace=wrap;rounded=0;" vertex="1" parent="1">
          <mxGeometry x="-160" y="720" width="480" height="30" as="geometry" />
        </mxCell>
        <mxCell id="TXvXWFRMx7JduoYhu3wI-5" value="&lt;h3&gt;&lt;strong&gt;Диаграмма состояний для процесса поиска недвижимости&lt;/strong&gt;&lt;/h3&gt;" style="text;html=1;align=center;verticalAlign=middle;whiteSpace=wrap;rounded=0;" vertex="1" parent="1">
          <mxGeometry x="-630" y="720" width="370" height="30" as="geometry" />
        </mxCell>
      </root>
    </mxGraphModel>
  </diagram>
</mxfile>
